<?xml version="1.0" encoding="utf-8"?>
<!-- Generator: Adobe Illustrator 23.0.1, SVG Export Plug-In . SVG Version: 6.00 Build 0)  -->
<svg version="1.0" id="Layer_1" xmlns="http://www.w3.org/2000/svg" xmlns:xlink="http://www.w3.org/1999/xlink" x="0px" y="0px"
	 viewBox="0 0 540 1080" enable-background="new 0 0 540 1080" xml:space="preserve">
<g>
	<path fill="#EAEAEA" d="M41.42,254.34c-9.49-9.49-18.99-19.12-28.61-28.48c-2.82-2.82-4.23-6.29-4.49-10.14
		c-0.13-2.05,0.51-4.23,1.28-6.29c2.44-6.03,8.98-9.37,14.37-9.11c3.98,0.26,7.31,1.92,10.14,4.62c6.54,6.42,13.22,12.7,19.5,19.5
		C65,236,110.7,282.18,111.73,283.34c1.41,3.08,1.92,6.42,1.8,9.88c-0.13,2.31-0.9,4.49-2.31,6.29c-3.46,4.36-7.83,7.06-13.6,6.67
		C95.17,306.18,92,305,91,304L41.42,254.34z"/>
	<path fill="#EAEAEA" d="M504.71,205.72c2.95-2.95,6.54-4.88,10.65-5.39c2.95-0.38,5.65,0.38,8.08,1.92c3.08,1.92,5.9,4.36,6.8,7.95
		c1.54,5.77,0.9,11.03-3.59,15.52c-9.24,9.37-76.23,76.62-77.37,77.49C447,305,443,307,436.59,305.54
		c-6.29-1.92-10.91-7.06-10.65-13.6c0.06-7.94,3.34-10.65,6.16-13.22C434.15,276.92,493.3,217.26,504.71,205.72z"/>
	<path fill="#EAEAEA" d="M284.68,189.04c0,9.88,0,19.76,0,29.64v19.68c0,0.61-0.08,1.21-0.25,1.79c-0.69,2.3-1.42,4.85-5.42,7.85
		c-1.56,1.17-3.54,2.02-5.47,2.26c-3.94,0.48-9.69-0.2-14.39-4c-2.31-2.57-3.72-5.39-3.98-8.85c-0.13-1.92,0-3.85,0-5.65
		c0-13.86,0-27.71,0-41.57c0-20.66,0-41.31,0-61.84c0-5.65,2.57-10.14,7.57-12.7c5.13-2.57,10.52-2.57,15.27,0.77
		c4.36,3.08,6.67,7.18,6.67,12.7C284.55,149.13,284.68,169.02,284.68,189.04z"/>
	<path fill="#FF9001" d="M486.5,500.17c0,1.8-0.13,3.59,0,5.39c0.51,8.6-2.69,15.52-9.11,21.04c-5.39,3.72-11.29,4.62-17.71,4.23
		c-1.03-0.13-1.67-1.03-2.57-0.77c-0.77-0.51-1.8-0.64-2.57-0.9c-4.62-2.05-8.08-5.52-10.52-9.88c-1.54-2.82-2.18-6.16-2.57-9.37
		c0.26-5.52-0.26-11.16-0.64-16.68c-0.13-2.05,0-4.11-0.77-6.16c0.13-2.18-0.38-4.23-0.77-6.29c-0.51-3.59-1.03-7.31-2.18-10.78
		c0.13-1.15-0.26-2.31-0.64-3.34c-1.28-3.34-1.92-6.93-2.95-10.26c-1.8-6.03-3.98-12.06-6.8-17.71c-0.26-0.64-0.38-1.28-0.64-1.8
		c-9.49-20.91-22.58-39.13-39.39-54.78c-29.38-27.2-64.15-42.47-104.05-45.68c-18.22-1.41-36.31,0.13-54.14,4.49
		c-55.17,13.6-101.1,55.3-120.09,108.93c-7.83,22.2-11.16,44.91-9.75,68.38c0.51,9.49,1.8,18.86,3.85,28.1
		c8.98,39,29.12,71.34,60.3,96.48c29.64,23.86,63.64,36.44,101.74,37.59c9.24,0.26,18.48,0.51,27.71,2.05
		c25.4,4.36,47.86,15.14,67.62,31.56c4.62,3.85,8.72,8.08,13.09,12.19c0.9,1.28,2.05,2.57,3.21,3.59c0.64,1.03,1.41,2.05,2.44,2.82
		c0.26,0.26,0.38,0.64,0.64,0.9c4.62,5.77,8.85,11.8,12.57,18.09c3.46,5.77,6.29,11.93,8.98,18.22c3.85,8.85,6.54,18.09,8.47,27.58
		c1.15,5.26,1.54,10.65,2.31,15.91c-0.26,0.38-0.26,0.77,0,1.03c-0.13,5.13,0.51,10.26,0,15.52c-0.13,1.15,0,2.31,0,3.34
		c-0.26,0.38-0.26,0.77,0,1.03c-0.51,2.18-0.51,4.49-0.77,6.8c-2.44,19.12-8.08,37.21-17.96,53.76
		c-25.02,41.95-61.84,65.82-110.47,71.21c-13.47,1.54-26.82,0.64-40.16-2.05c-34.51-6.93-62.74-24.25-84.68-51.71
		c-2.44-3.08-4.62-6.16-6.93-9.37c-0.26-0.38-0.38-0.9-0.64-1.28c-2.31-2.82-3.98-6.03-5.65-9.24c-1.54-2.95-3.08-5.9-4.62-8.85
		c-2.05-4.23-3.72-8.6-5.26-13.09c0-1.03-0.38-2.05-0.9-2.95c-0.13-0.38-0.26-0.77-0.26-1.03c0-0.13,0-0.38,0-0.51
		c-3.72-12.19-5.9-24.63-6.29-37.34c0-0.51-0.13-0.9-0.26-1.41c0.13-2.31,0.26-4.49,0.38-6.8c0.26-5,2.31-9.11,5.65-12.7
		c3.59-3.85,8.08-5.9,13.22-6.67c0.9-0.13,1.92,0,2.82-0.38c0.77,0.13,1.54,0.26,2.18,0.26c6.67,0.64,12.19,3.46,16.42,8.85
		c2.05,2.69,3.21,5.77,4.23,8.98c-0.13,0.64,0,1.15,0.26,1.8c0.13,0.38,0.13,0.64,0.26,1.03c0,4.62-0.13,9.11,0.77,13.6
		c0.26,3.46,0.64,6.93,1.8,10.26c0.38,2.95,1.28,5.65,2.18,8.47c2.18,6.8,5,13.47,8.98,19.37c2.95,5.39,6.54,10.39,10.78,14.75
		c0.64,1.03,1.41,2.05,2.44,2.69c1.03,1.54,2.31,2.69,3.85,3.85c0.9,1.28,2.18,2.18,3.34,3.08c25.66,21.43,54.91,28.35,87.37,20.53
		c21.3-5.13,38.75-16.68,52.09-33.87c18.86-24.25,25.53-51.71,18.86-81.86c-5.13-23.48-17.96-42.47-36.82-57.09
		c-16.55-12.83-35.41-19.89-56.45-20.27c-6.42-0.13-12.83-0.38-19.25-0.9c-12.96-1.03-25.66-3.34-38.23-6.67
		c-7.83-2.05-15.52-4.88-23.22-7.57c-4.62-1.92-9.37-3.85-13.98-6.03c-5.26-2.44-10.14-5.39-15.14-8.34
		c-4.75-2.82-9.37-5.77-13.98-8.6l0,0c-0.38-0.64-1.03-1.03-1.67-1.15l0,0c-1.03-1.15-2.31-1.92-3.59-2.57
		c-0.9-0.77-1.92-1.54-2.82-2.31c-7.7-5.77-14.88-12.06-21.68-18.86c-19.5-19.37-34.77-41.7-45.93-66.85
		c-9.88-22.45-15.65-45.8-17.58-70.18c-0.77-10.14-0.9-20.27-0.26-30.41c0.77-12.83,2.57-25.4,5.65-37.85
		c11.16-45.42,34.38-83.52,69.67-114.19c4.75-4.11,9.62-7.95,14.63-11.68c4.62-3.59,9.75-6.54,14.75-9.49
		c34-20.4,70.82-30.66,110.47-31.05c8.6-0.13,17.19,0.51,25.79,1.41c12.32,1.41,24.25,3.72,36.18,7.31
		c38.36,11.29,71.08,31.69,98.28,61.07c15.78,17.06,28.48,36.18,38.11,57.22c2.31,5,4.23,10.14,6.42,15.14
		c2.57,7.95,5.13,15.78,7.18,23.86c1.15,5.52,2.18,10.91,3.34,16.42c0.64,5.52,1.41,11.03,1.92,16.55
		C485.98,493.37,485.85,496.83,486.5,500.17z"/>
</g>
<g>
</g>
<g>
</g>
<g>
</g>
<g>
</g>
<g>
</g>
<g>
</g>
<g>
</g>
<g>
</g>
<g>
</g>
<g>
</g>
<g>
</g>
<g>
</g>
<g>
</g>
<g>
</g>
<g>
</g>
</svg>
