<?xml version="1.0" encoding="utf-8"?>
<!-- Generator: Adobe Illustrator 23.0.1, SVG Export Plug-In . SVG Version: 6.00 Build 0)  -->
<svg version="1.0" id="Layer_1" xmlns="http://www.w3.org/2000/svg" xmlns:xlink="http://www.w3.org/1999/xlink" x="0px" y="0px"
	 viewBox="0 0 1000 1000" enable-background="new 0 0 1000 1000" xml:space="preserve">
<g>
	<path fill="#EAEAEA" d="M244.38,168.9c-11.13-11.07-22.26-22.31-33.54-33.22c-3.31-3.29-4.96-7.34-5.26-11.83
		c-0.15-2.39,0.6-4.93,1.5-7.34c2.86-7.03,10.53-10.93,16.85-10.63c4.67,0.3,8.57,2.24,11.89,5.39c7.67,7.49,15.5,14.82,22.86,22.75
		c13.35,13.49,66.93,67.36,68.14,68.71c1.65,3.59,2.25,7.49,2.11,11.53c-0.15,2.69-1.06,5.24-2.71,7.34
		c-4.06,5.09-9.18,8.24-15.94,7.78c-2.87,0-6.59-1.38-7.76-2.54L244.38,168.9z"/>
	<path fill="#EAEAEA" d="M787.55,112.18c3.46-3.44,7.67-5.69,12.49-6.29c3.46-0.44,6.62,0.44,9.47,2.24
		c3.61,2.24,6.92,5.09,7.97,9.27c1.81,6.73,1.06,12.87-4.21,18.11c-10.83,10.93-89.37,89.39-90.71,90.4
		c-2.67,2.09-7.36,4.42-14.88,2.72c-7.37-2.24-12.79-8.24-12.49-15.87c0.07-9.26,3.92-12.42,7.22-15.42
		C704.83,195.24,774.17,125.64,787.55,112.18z"/>
	<path fill="#EAEAEA" d="M529.59,92.72c0,11.53,0,23.05,0,34.58v22.96c0,0.71-0.09,1.41-0.29,2.09c-0.81,2.68-1.66,5.66-6.35,9.16
		c-1.83,1.36-4.15,2.36-6.41,2.64c-4.62,0.56-11.36-0.23-16.87-4.67c-2.71-3-4.36-6.29-4.67-10.32c-0.15-2.24,0-4.49,0-6.59
		c0-16.17,0-32.33,0-48.5c0-24.1,0-48.19,0-72.14c0-6.59,3.01-11.83,8.88-14.82c6.01-3,12.33-3,17.9,0.9
		c5.11,3.59,7.82,8.38,7.82,14.82C529.43,46.16,529.59,69.36,529.59,92.72z"/>
	<path fill="#F7901E" d="M766.2,455.68c0,2.1-0.15,4.19,0,6.29c0.6,10.03-3.15,18.11-10.68,24.55c-6.32,4.34-13.24,5.39-20.76,4.93
		c-1.21-0.15-1.96-1.2-3.01-0.9c-0.9-0.59-2.11-0.75-3.01-1.05c-5.42-2.39-9.47-6.44-12.33-11.53c-1.81-3.29-2.56-7.19-3.01-10.93
		c0.3-6.44-0.3-13.02-0.75-19.46c-0.15-2.39,0-4.79-0.9-7.19c0.15-2.54-0.45-4.93-0.9-7.34c-0.6-4.19-1.21-8.53-2.56-12.58
		c0.15-1.34-0.3-2.69-0.75-3.9c-1.5-3.9-2.25-8.08-3.46-11.97c-2.11-7.03-4.67-14.07-7.97-20.66c-0.3-0.75-0.45-1.49-0.75-2.1
		c-11.13-24.39-26.47-45.65-46.18-63.91c-34.45-31.73-75.21-49.55-121.99-53.29c-21.36-1.64-42.57,0.15-63.47,5.24
		c-64.68,15.87-118.53,64.51-140.8,127.08c-9.18,25.9-13.08,52.39-11.43,79.77c0.6,11.07,2.11,22,4.51,32.78
		c10.53,45.5,34.14,83.23,70.7,112.55c34.75,27.84,74.61,42.51,119.28,43.85c10.83,0.3,21.67,0.59,32.49,2.39
		c29.78,5.09,56.11,17.66,79.28,36.82c5.42,4.49,10.22,9.43,15.35,14.22c1.06,1.49,2.4,3,3.76,4.19c0.75,1.2,1.65,2.39,2.86,3.29
		c0.3,0.3,0.45,0.75,0.75,1.05c5.42,6.73,10.38,13.77,14.74,21.1c4.06,6.73,7.37,13.92,10.53,21.26c4.51,10.32,7.67,21.1,9.93,32.17
		c1.35,6.14,1.81,12.42,2.71,18.56c-0.3,0.44-0.3,0.9,0,1.2c-0.15,5.98,0.6,11.97,0,18.11c-0.15,1.34,0,2.69,0,3.9
		c-0.3,0.44-0.3,0.9,0,1.2c-0.6,2.54-0.6,5.24-0.9,7.93c-2.86,22.31-9.47,43.41-21.06,62.72c-29.33,48.94-72.5,76.79-129.52,83.07
		c-15.79,1.8-31.44,0.75-47.08-2.39c-40.46-8.08-73.56-28.29-99.28-60.33c-2.86-3.59-5.42-7.19-8.12-10.93
		c-0.3-0.44-0.45-1.05-0.75-1.49c-2.71-3.29-4.67-7.03-6.62-10.78c-1.81-3.44-3.61-6.88-5.42-10.32c-2.4-4.93-4.36-10.03-6.17-15.27
		c0-1.2-0.45-2.39-1.06-3.44c-0.15-0.44-0.3-0.9-0.3-1.2c0-0.15,0-0.44,0-0.59c-4.36-14.22-6.92-28.73-7.37-43.56
		c0-0.59-0.15-1.05-0.3-1.64c0.15-2.69,0.3-5.24,0.45-7.93c0.3-5.83,2.71-10.63,6.62-14.82c4.21-4.49,9.47-6.88,15.5-7.78
		c1.06-0.15,2.25,0,3.31-0.44c0.9,0.15,1.81,0.3,2.56,0.3c7.82,0.75,14.29,4.04,19.25,10.32c2.4,3.14,3.76,6.73,4.96,10.48
		c-0.15,0.75,0,1.34,0.3,2.1c0.15,0.44,0.15,0.75,0.3,1.2c0,5.39-0.15,10.63,0.9,15.87c0.3,4.04,0.75,8.08,2.11,11.97
		c0.45,3.44,1.5,6.59,2.56,9.88c2.56,7.93,5.86,15.71,10.53,22.6c3.46,6.29,7.67,12.12,12.64,17.21c0.75,1.2,1.65,2.39,2.86,3.14
		c1.21,1.8,2.71,3.14,4.51,4.49c1.06,1.49,2.56,2.54,3.92,3.59c30.08,25,64.38,33.07,102.43,23.95
		c24.97-5.98,45.43-19.46,61.07-39.51c22.11-28.29,29.93-60.33,22.11-95.5c-6.01-27.39-21.06-49.55-43.17-66.6
		c-19.4-14.97-41.52-23.2-66.18-23.65c-7.53-0.15-15.04-0.44-22.57-1.05c-15.19-1.2-30.08-3.9-44.82-7.78
		c-9.18-2.39-18.2-5.69-27.22-8.83c-5.42-2.24-10.99-4.49-16.39-7.03c-6.17-2.85-11.89-6.29-17.75-9.73
		c-5.57-3.29-10.99-6.73-16.39-10.03l0,0c-0.45-0.75-1.21-1.2-1.96-1.34l0,0c-1.21-1.34-2.71-2.24-4.21-3
		c-1.06-0.9-2.25-1.8-3.31-2.69c-9.03-6.73-17.45-14.07-25.42-22c-22.86-22.6-40.76-48.65-53.85-77.99
		c-11.58-26.19-18.35-53.43-20.61-81.87c-0.9-11.83-1.06-23.65-0.3-35.48c0.9-14.97,3.01-29.63,6.62-44.16
		c13.08-52.99,40.31-97.43,81.68-133.21c5.57-4.79,11.28-9.27,17.15-13.63c5.42-4.19,11.43-7.63,17.29-11.07
		c39.86-23.8,83.03-35.77,129.52-36.22c10.08-0.15,20.15,0.59,30.24,1.64c14.44,1.64,28.43,4.34,42.42,8.53
		c44.97,13.17,83.34,36.97,115.22,71.24c18.5,19.9,33.39,42.21,44.68,66.75c2.71,5.83,4.96,11.83,7.53,17.66
		c3.01,9.27,6.01,18.41,8.42,27.84c1.35,6.44,2.56,12.73,3.92,19.16c0.75,6.44,1.65,12.87,2.25,19.31
		C765.59,447.75,765.44,451.79,766.2,455.68z"/>
</g>
<g>
</g>
<g>
</g>
<g>
</g>
<g>
</g>
<g>
</g>
<g>
</g>
</svg>
