<?xml version="1.0" encoding="utf-8"?>
<!-- Generator: Adobe Illustrator 23.0.1, SVG Export Plug-In . SVG Version: 6.00 Build 0)  -->
<svg version="1.0" id="Layer_1" xmlns="http://www.w3.org/2000/svg" xmlns:xlink="http://www.w3.org/1999/xlink" x="0px" y="0px"
	 viewBox="0 0 180 72" enable-background="new 0 0 180 72" xml:space="preserve">
<g>
	<path fill="#EAEAEA" d="M9.17,63.38V33.67h7.05c1.31,0,2.48,0.13,3.51,0.4c1.02,0.27,1.89,0.7,2.61,1.3
		c0.72,0.6,1.26,1.38,1.63,2.33c0.37,0.95,0.55,2.12,0.55,3.48c0,1.22-0.17,2.27-0.49,3.15c-0.33,0.88-0.8,1.57-1.42,2.07
		c-0.62,0.5-1.41,0.83-2.36,0.97c1.17,0.25,2.12,0.68,2.87,1.32c0.74,0.64,1.3,1.46,1.66,2.48c0.37,1.02,0.55,2.23,0.55,3.65
		c0,1.35-0.16,2.55-0.47,3.61c-0.32,1.06-0.8,1.96-1.46,2.68c-0.66,0.72-1.48,1.28-2.48,1.67c-1,0.39-2.17,0.59-3.5,0.59H9.17z
		 M13.91,45.92h2.15c1.12,0,1.99-0.16,2.61-0.48s1.05-0.83,1.3-1.52s0.37-1.58,0.37-2.66c0-1.22-0.19-2.13-0.57-2.71
		c-0.38-0.59-0.96-0.98-1.75-1.17c-0.79-0.2-1.82-0.29-3.08-0.29h-1.02V45.92z M13.91,60h2.41c1.75,0,2.93-0.42,3.54-1.27
		s0.91-2.16,0.91-3.94c0-1.22-0.16-2.23-0.47-3.03c-0.32-0.79-0.81-1.39-1.48-1.78c-0.67-0.39-1.58-0.59-2.72-0.59h-2.19V60z"/>
	<path fill="#EAEAEA" d="M34.69,63.71c-1.53,0-2.78-0.31-3.74-0.92c-0.96-0.61-1.66-1.49-2.08-2.62s-0.64-2.49-0.64-4.05v-6.68
		c0-1.56,0.21-2.92,0.64-4.05c0.43-1.14,1.12-2.01,2.08-2.62s2.21-0.92,3.74-0.92c1.56,0,2.8,0.31,3.74,0.92
		c0.94,0.61,1.63,1.49,2.06,2.62c0.44,1.14,0.66,2.49,0.66,4.05v6.68c0,1.56-0.22,2.92-0.66,4.05c-0.44,1.14-1.13,2.01-2.06,2.62
		C37.49,63.4,36.25,63.71,34.69,63.71z M34.69,60.51c0.68,0,1.16-0.19,1.44-0.57c0.28-0.38,0.45-0.89,0.51-1.52
		c0.06-0.64,0.09-1.31,0.09-2.02v-7.23c0-0.73-0.03-1.41-0.09-2.04c-0.06-0.62-0.23-1.13-0.51-1.52c-0.28-0.39-0.76-0.59-1.44-0.59
		c-0.66,0-1.13,0.2-1.42,0.59c-0.29,0.39-0.47,0.9-0.53,1.52c-0.06,0.62-0.09,1.3-0.09,2.04v7.23c0,0.71,0.03,1.38,0.09,2.02
		s0.24,1.14,0.53,1.52C33.56,60.33,34.03,60.51,34.69,60.51z"/>
	<path fill="#EAEAEA" d="M50.75,63.71c-1.53,0-2.78-0.31-3.74-0.92c-0.96-0.61-1.66-1.49-2.08-2.62s-0.64-2.49-0.64-4.05v-6.68
		c0-1.56,0.21-2.92,0.64-4.05c0.43-1.14,1.12-2.01,2.08-2.62s2.21-0.92,3.74-0.92c1.56,0,2.8,0.31,3.74,0.92
		c0.94,0.61,1.63,1.49,2.06,2.62c0.44,1.14,0.66,2.49,0.66,4.05v6.68c0,1.56-0.22,2.92-0.66,4.05c-0.44,1.14-1.13,2.01-2.06,2.62
		C53.56,63.4,52.31,63.71,50.75,63.71z M50.75,60.51c0.68,0,1.16-0.19,1.44-0.57c0.28-0.38,0.45-0.89,0.51-1.52
		c0.06-0.64,0.09-1.31,0.09-2.02v-7.23c0-0.73-0.03-1.41-0.09-2.04c-0.06-0.62-0.23-1.13-0.51-1.52c-0.28-0.39-0.76-0.59-1.44-0.59
		c-0.66,0-1.13,0.2-1.42,0.59c-0.29,0.39-0.47,0.9-0.53,1.52c-0.06,0.62-0.09,1.3-0.09,2.04v7.23c0,0.71,0.03,1.38,0.09,2.02
		s0.24,1.14,0.53,1.52C49.62,60.33,50.1,60.51,50.75,60.51z"/>
	<path fill="#EAEAEA" d="M60.79,63.34V33.63h4.42v17.38l5.55-8.84h4.78l-5.15,8.4l5,12.8h-4.56L66.93,52.7l-1.72,2.57v8.07H60.79z"
		/>
</g>
<g>
	<path fill="#EAEAEA" d="M110.34,63.34v-21.2h4.2v1.94c0.73-0.81,1.52-1.39,2.36-1.76c0.84-0.37,1.71-0.55,2.61-0.55
		c0.8,0,1.51,0.2,2.13,0.6c0.62,0.4,1.08,1.08,1.37,2.04c0.75-0.93,1.58-1.6,2.48-2.02c0.9-0.42,1.83-0.62,2.77-0.62
		c0.73,0,1.38,0.17,1.95,0.51c0.57,0.34,1.03,0.88,1.37,1.61s0.51,1.67,0.51,2.82v16.61h-4.16V47.09c0-0.9-0.15-1.52-0.46-1.85
		c-0.3-0.33-0.71-0.5-1.22-0.5c-0.46,0-0.96,0.13-1.48,0.38s-1.02,0.62-1.48,1.08c0,0.07,0,0.15,0,0.24c0,0.09,0,0.18,0,0.28v16.61
		h-4.13V47.09c0-0.9-0.15-1.52-0.46-1.85c-0.3-0.33-0.71-0.5-1.22-0.5c-0.46,0-0.96,0.13-1.48,0.38s-1.02,0.62-1.48,1.08v17.13
		H110.34z"/>
	<path fill="#EAEAEA" d="M139.81,63.67c-0.88,0-1.65-0.25-2.32-0.73c-0.67-0.49-1.19-1.11-1.55-1.87c-0.37-0.76-0.55-1.55-0.55-2.38
		c0-1.32,0.23-2.43,0.69-3.34c0.46-0.9,1.09-1.67,1.88-2.29c0.79-0.62,1.69-1.16,2.7-1.61c1.01-0.45,2.06-0.89,3.16-1.3v-1.69
		c0-0.71-0.04-1.31-0.13-1.82s-0.27-0.87-0.55-1.12c-0.28-0.24-0.69-0.37-1.22-0.37c-0.49,0-0.88,0.11-1.17,0.33
		c-0.29,0.22-0.5,0.53-0.62,0.93c-0.12,0.4-0.18,0.88-0.18,1.41L139.92,49l-4.31-0.15c0.07-2.4,0.64-4.17,1.71-5.32
		c1.07-1.15,2.71-1.72,4.93-1.72c2.12,0,3.64,0.58,4.56,1.74c0.92,1.16,1.39,2.79,1.39,4.9v9.76c0,0.71,0.02,1.38,0.05,2
		c0.04,0.62,0.09,1.19,0.15,1.71s0.12,0.99,0.16,1.43h-4.05c-0.07-0.44-0.16-0.97-0.26-1.58s-0.17-1.11-0.22-1.5
		c-0.24,0.83-0.71,1.61-1.41,2.33C141.95,63.31,141,63.67,139.81,63.67z M141.49,60.11c0.37,0,0.7-0.1,1-0.29
		c0.3-0.2,0.58-0.42,0.82-0.66c0.24-0.24,0.41-0.45,0.51-0.62v-5.98c-0.58,0.34-1.13,0.68-1.63,1.01c-0.5,0.33-0.94,0.68-1.31,1.06
		c-0.38,0.38-0.67,0.8-0.88,1.27c-0.21,0.46-0.31,0.99-0.31,1.58c0,0.81,0.15,1.45,0.46,1.93
		C140.46,59.87,140.91,60.11,141.49,60.11z"/>
	<path fill="#EAEAEA" d="M152,63.34v-21.2h4.42v3.15c0.75-1.3,1.51-2.19,2.26-2.68c0.75-0.49,1.55-0.73,2.37-0.73
		c0.12,0,0.24,0,0.35,0s0.22,0.02,0.35,0.07v4.73c-0.27-0.12-0.58-0.23-0.95-0.31s-0.74-0.13-1.13-0.13c-0.63,0-1.21,0.15-1.73,0.46
		s-1.03,0.84-1.51,1.6v15.04H152z"/>
	<path fill="#EAEAEA" d="M170.08,63.59c-1.22,0-2.19-0.21-2.92-0.64c-0.73-0.43-1.25-1.03-1.55-1.82s-0.46-1.72-0.46-2.82V45.07
		h-2.19v-2.93h2.19v-6.27h4.46v6.27h3.29v2.93h-3.29v12.91c0,0.76,0.15,1.31,0.44,1.65s0.79,0.51,1.5,0.51
		c0.22,0,0.46-0.02,0.71-0.06c0.25-0.04,0.5-0.07,0.75-0.09v3.38c-0.44,0.07-0.9,0.13-1.39,0.17
		C171.13,63.58,170.61,63.59,170.08,63.59z"/>
</g>
<g>
	<path fill="#EAEAEA" d="M79.17,14.06c0.04,0.08,0.1,0.12,0.16,0.18c0.59,0.59,1.17,1.17,1.76,1.76c0.09,0.09,0.17,0.18,0.25,0.27
		c0.11,0.24,0.15,0.5,0.14,0.77c-0.01,0.18-0.07,0.35-0.18,0.49c-0.27,0.34-0.61,0.55-1.06,0.52c-0.19,0-0.35-0.12-0.53-0.13
		c-0.02-0.11-0.13-0.15-0.2-0.22c-0.2-0.2-0.38-0.41-0.6-0.58c-0.17-0.21-0.37-0.4-0.58-0.58c-0.23-0.27-0.48-0.52-0.75-0.75
		c-0.17-0.22-0.38-0.39-0.57-0.59c-0.26-0.28-0.56-0.52-0.79-0.83c-0.05-0.07-0.11-0.14-0.2-0.18c-0.04-0.08-0.1-0.12-0.16-0.18
		c-0.74-0.74-1.48-1.49-2.23-2.22c-0.22-0.22-0.33-0.49-0.35-0.79c-0.01-0.16,0.04-0.33,0.1-0.49c0.19-0.47,0.7-0.73,1.12-0.71
		c0.31,0.02,0.57,0.15,0.79,0.36c0.51,0.5,1.03,0.99,1.52,1.52c0.72,0.78,1.5,1.51,2.24,2.27C79.08,14,79.13,14.03,79.17,14.06z"/>
	<path fill="#EAEAEA" d="M106.74,15.48c0.07-0.03,0.11-0.09,0.17-0.14c0.44-0.44,0.89-0.89,1.33-1.33c0.05-0.05,0.11-0.1,0.14-0.17
		c0.27-0.25,0.54-0.5,0.77-0.79c0.04-0.05,0.09-0.1,0.14-0.15c0.89-0.89,1.79-1.78,2.68-2.68c0.23-0.23,0.51-0.38,0.83-0.42
		c0.23-0.03,0.44,0.03,0.63,0.15c0.24,0.15,0.46,0.34,0.53,0.62c0.12,0.45,0.07,0.86-0.28,1.21c-0.72,0.73-1.45,1.45-2.18,2.18
		c-0.06,0.06-0.12,0.11-0.16,0.18c-0.09,0.05-0.15,0.13-0.23,0.21c-0.34,0.34-0.67,0.68-1.01,1.01c-0.16,0.16-0.32,0.32-0.45,0.51
		c-0.27,0.23-0.52,0.49-0.75,0.75c-0.18,0.15-0.34,0.31-0.49,0.49c-0.19,0.14-0.34,0.33-0.52,0.5c-0.08,0.07-0.14,0.16-0.24,0.21
		c-0.16,0.08-0.32,0.16-0.49,0.22c-0.17,0-0.34,0.01-0.5-0.04c-0.49-0.15-0.85-0.55-0.83-1.06c0-0.1,0-0.21,0-0.31
		c0.07-0.3,0.26-0.52,0.48-0.72C106.47,15.77,106.62,15.64,106.74,15.48z"/>
	<path fill="#EAEAEA" d="M94.82,8.92c0,0.77,0,1.54,0,2.31c0,0.53,0,1.06,0,1.6c-0.09,0.14-0.1,0.32-0.22,0.44
		c-0.09,0.1-0.18,0.21-0.27,0.31c-0.07,0-0.12,0.05-0.18,0.07c-0.28,0.09-0.56,0.16-0.85,0.03c-0.09-0.04-0.19-0.08-0.29-0.1
		c-0.04-0.08-0.12-0.13-0.18-0.2c-0.18-0.2-0.29-0.42-0.31-0.69c-0.01-0.15,0-0.3,0-0.44c0-1.08,0-2.16,0-3.24c0-1.61,0-3.22,0-4.82
		c0-0.44,0.2-0.79,0.59-0.99c0.4-0.2,0.82-0.2,1.19,0.06c0.34,0.24,0.52,0.56,0.52,0.99C94.81,5.81,94.82,7.36,94.82,8.92z"/>
	<path fill="#FF9001" d="M110.55,33.17c0,0.14-0.01,0.28,0,0.42c0.04,0.67-0.21,1.21-0.71,1.64c-0.42,0.29-0.88,0.36-1.38,0.33
		c-0.08-0.01-0.13-0.08-0.2-0.06c-0.06-0.04-0.14-0.05-0.2-0.07c-0.36-0.16-0.63-0.43-0.82-0.77c-0.12-0.22-0.17-0.48-0.2-0.73
		c0.02-0.43-0.02-0.87-0.05-1.3c-0.01-0.16,0-0.32-0.06-0.48c0.01-0.17-0.03-0.33-0.06-0.49c-0.04-0.28-0.08-0.57-0.17-0.84
		c0.01-0.09-0.02-0.18-0.05-0.26c-0.1-0.26-0.15-0.54-0.23-0.8c-0.14-0.47-0.31-0.94-0.53-1.38c-0.02-0.05-0.03-0.1-0.05-0.14
		c-0.74-1.63-1.76-3.05-3.07-4.27c-2.29-2.12-5-3.31-8.11-3.56c-1.42-0.11-2.83,0.01-4.22,0.35c-4.3,1.06-7.88,4.31-9.36,8.49
		c-0.61,1.73-0.87,3.5-0.76,5.33c0.04,0.74,0.14,1.47,0.3,2.19c0.7,3.04,2.27,5.56,4.7,7.52c2.31,1.86,4.96,2.84,7.93,2.93
		c0.72,0.02,1.44,0.04,2.16,0.16c1.98,0.34,3.73,1.18,5.27,2.46c0.36,0.3,0.68,0.63,1.02,0.95c0.07,0.1,0.16,0.2,0.25,0.28
		c0.05,0.08,0.11,0.16,0.19,0.22c0.02,0.02,0.03,0.05,0.05,0.07c0.36,0.45,0.69,0.92,0.98,1.41c0.27,0.45,0.49,0.93,0.7,1.42
		c0.3,0.69,0.51,1.41,0.66,2.15c0.09,0.41,0.12,0.83,0.18,1.24c-0.02,0.03-0.02,0.06,0,0.08c-0.01,0.4,0.04,0.8,0,1.21
		c-0.01,0.09,0,0.18,0,0.26c-0.02,0.03-0.02,0.06,0,0.08c-0.04,0.17-0.04,0.35-0.06,0.53c-0.19,1.49-0.63,2.9-1.4,4.19
		c-1.95,3.27-4.82,5.13-8.61,5.55c-1.05,0.12-2.09,0.05-3.13-0.16c-2.69-0.54-4.89-1.89-6.6-4.03c-0.19-0.24-0.36-0.48-0.54-0.73
		c-0.02-0.03-0.03-0.07-0.05-0.1c-0.18-0.22-0.31-0.47-0.44-0.72c-0.12-0.23-0.24-0.46-0.36-0.69c-0.16-0.33-0.29-0.67-0.41-1.02
		c0-0.08-0.03-0.16-0.07-0.23c-0.01-0.03-0.02-0.06-0.02-0.08c0-0.01,0-0.03,0-0.04c-0.29-0.95-0.46-1.92-0.49-2.91
		c0-0.04-0.01-0.07-0.02-0.11c0.01-0.18,0.02-0.35,0.03-0.53c0.02-0.39,0.18-0.71,0.44-0.99c0.28-0.3,0.63-0.46,1.03-0.52
		c0.07-0.01,0.15,0,0.22-0.03c0.06,0.01,0.12,0.02,0.17,0.02c0.52,0.05,0.95,0.27,1.28,0.69c0.16,0.21,0.25,0.45,0.33,0.7
		c-0.01,0.05,0,0.09,0.02,0.14c0.01,0.03,0.01,0.05,0.02,0.08c0,0.36-0.01,0.71,0.06,1.06c0.02,0.27,0.05,0.54,0.14,0.8
		c0.03,0.23,0.1,0.44,0.17,0.66c0.17,0.53,0.39,1.05,0.7,1.51c0.23,0.42,0.51,0.81,0.84,1.15c0.05,0.08,0.11,0.16,0.19,0.21
		c0.08,0.12,0.18,0.21,0.3,0.3c0.07,0.1,0.17,0.17,0.26,0.24c2,1.67,4.28,2.21,6.81,1.6c1.66-0.4,3.02-1.3,4.06-2.64
		c1.47-1.89,1.99-4.03,1.47-6.38c-0.4-1.83-1.4-3.31-2.87-4.45c-1.29-1-2.76-1.55-4.4-1.58c-0.5-0.01-1-0.03-1.5-0.07
		c-1.01-0.08-2-0.26-2.98-0.52c-0.61-0.16-1.21-0.38-1.81-0.59c-0.36-0.15-0.73-0.3-1.09-0.47c-0.41-0.19-0.79-0.42-1.18-0.65
		c-0.37-0.22-0.73-0.45-1.09-0.67l0,0c-0.03-0.05-0.08-0.08-0.13-0.09l0,0c-0.08-0.09-0.18-0.15-0.28-0.2
		c-0.07-0.06-0.15-0.12-0.22-0.18c-0.6-0.45-1.16-0.94-1.69-1.47c-1.52-1.51-2.71-3.25-3.58-5.21c-0.77-1.75-1.22-3.57-1.37-5.47
		c-0.06-0.79-0.07-1.58-0.02-2.37c0.06-1,0.2-1.98,0.44-2.95c0.87-3.54,2.68-6.51,5.43-8.9c0.37-0.32,0.75-0.62,1.14-0.91
		c0.36-0.28,0.76-0.51,1.15-0.74c2.65-1.59,5.52-2.39,8.61-2.42c0.67-0.01,1.34,0.04,2.01,0.11c0.96,0.11,1.89,0.29,2.82,0.57
		c2.99,0.88,5.54,2.47,7.66,4.76c1.23,1.33,2.22,2.82,2.97,4.46c0.18,0.39,0.33,0.79,0.5,1.18c0.2,0.62,0.4,1.23,0.56,1.86
		c0.09,0.43,0.17,0.85,0.26,1.28c0.05,0.43,0.11,0.86,0.15,1.29C110.51,32.64,110.5,32.91,110.55,33.17z"/>
</g>
<g>
</g>
<g>
</g>
<g>
</g>
<g>
</g>
<g>
</g>
<g>
</g>
<g>
</g>
<g>
</g>
<g>
</g>
<g>
</g>
<g>
</g>
<g>
</g>
<g>
</g>
<g>
</g>
<g>
</g>
</svg>
