<?xml version="1.0" encoding="utf-8"?>
<!-- Generator: Adobe Illustrator 23.0.1, SVG Export Plug-In . SVG Version: 6.00 Build 0)  -->
<svg version="1.0" id="Layer_1" xmlns="http://www.w3.org/2000/svg" xmlns:xlink="http://www.w3.org/1999/xlink" x="0px" y="0px"
	 viewBox="0 0 1920 1080" enable-background="new 0 0 1920 1080" xml:space="preserve">
<g>
	<radialGradient id="SVGID_1_" cx="1735.8298" cy="1340.3405" r="3.0638" gradientUnits="userSpaceOnUse">
		<stop  offset="0" style="stop-color:#1E1E1E"/>
		<stop  offset="0.3665" style="stop-color:#181818"/>
		<stop  offset="1" style="stop-color:#141414"/>
	</radialGradient>
	<rect x="-0.12" fill="url(#SVGID_1_)" width="1923.14" height="1081.08"/>
</g>
<g>
	<g>
		
			<radialGradient id="SVGID_2_" cx="580.601" cy="198.6705" r="62.3884" gradientTransform="matrix(0.6757 -0.2817 -0.2977 -0.7143 524.9488 1166.189)" gradientUnits="userSpaceOnUse">
			<stop  offset="0" style="stop-color:#000000"/>
			<stop  offset="1" style="stop-color:#000000;stop-opacity:0"/>
		</radialGradient>
		<path opacity="0.44" fill="url(#SVGID_2_)" enable-background="new    " d="M901.41,842.68c9.91,23.76-1.45,51.11-25.36,61.07
			c-23.91,9.97-51.32-1.22-61.23-24.98c-9.91-23.76,1.45-51.11,25.36-61.07C864.09,807.73,891.51,818.91,901.41,842.68z"/>
		<path fill="#ECECEC" d="M862.88,831.18c-3.35,0-6.53,0.75-9.39,2.06c-6.09-11.77-18.38-19.84-32.55-19.84
			c-12.27,0-23.12,6.04-29.77,15.3c-2.31-0.68-4.75-1.04-7.28-1.04c-9.91,0-18.52,5.58-22.86,13.76c-1.27-0.43-2.63-0.66-4.05-0.66
			c-7.06,0-12.79,5.72-12.79,12.79c0,7.06,5.72,12.79,12.79,12.79c1.41,0,2.78-0.24,4.05-0.66c4.35,8.18,12.95,13.76,22.86,13.76
			c4.25,0,8.26-1.03,11.79-2.85c6.58,6.26,15.46,10.11,25.26,10.11c12,0,22.64-5.77,29.33-14.67c3.59,2.46,7.93,3.9,12.62,3.9
			c12.35,0,22.36-10.02,22.36-22.36S875.23,831.18,862.88,831.18z"/>
		
			<radialGradient id="SVGID_3_" cx="683.8649" cy="198.8971" r="37.2305" gradientTransform="matrix(0.7368 -0.3071 -0.2977 -0.7143 419.0287 1212.7245)" gradientUnits="userSpaceOnUse">
			<stop  offset="0" style="stop-color:#000000"/>
			<stop  offset="1" style="stop-color:#000000;stop-opacity:0"/>
		</radialGradient>
		<path opacity="0.67" fill="url(#SVGID_3_)" enable-background="new    " d="M891.86,848.89c5.91,14.18-1.91,30.93-17.47,37.42
			c-15.56,6.49-32.97,0.25-38.88-13.93c-5.91-14.18,1.91-30.93,17.47-37.42C868.54,828.47,885.95,834.71,891.86,848.89z"/>
		
			<radialGradient id="SVGID_4_" cx="675.4449" cy="198.923" r="37.2305" gradientTransform="matrix(0.7368 -0.3071 -0.2977 -0.7143 414.7525 1202.4666)" gradientUnits="userSpaceOnUse">
			<stop  offset="0" style="stop-color:#000000"/>
			<stop  offset="1" style="stop-color:#000000;stop-opacity:0"/>
		</radialGradient>
		<path opacity="0.67" fill="url(#SVGID_4_)" enable-background="new    " d="M881.38,841.2c5.91,14.18-1.91,30.93-17.47,37.42
			c-15.56,6.49-32.97,0.25-38.88-13.93c-5.91-14.18,1.91-30.93,17.47-37.42C858.06,820.78,875.47,827.03,881.38,841.2z"/>
		
			<radialGradient id="SVGID_5_" cx="583.1442" cy="198.9681" r="37.2302" gradientTransform="matrix(0.7368 -0.3071 -0.2977 -0.7143 406.6125 1182.9398)" gradientUnits="userSpaceOnUse">
			<stop  offset="0" style="stop-color:#000000"/>
			<stop  offset="1" style="stop-color:#000000;stop-opacity:0"/>
		</radialGradient>
		<path opacity="0.67" fill="url(#SVGID_5_)" enable-background="new    " d="M805.22,849.99c5.91,14.18-1.91,30.93-17.47,37.42
			c-15.56,6.49-32.97,0.25-38.88-13.93c-5.91-14.18,1.91-30.93,17.47-37.42C781.9,829.58,799.31,835.81,805.22,849.99z"/>
		<path fill="#ECECEC" d="M855.25,831.18c-2.77,0-5.38,0.75-7.74,2.06c-5.02-11.77-15.14-19.84-26.82-19.84
			c-10.11,0-19.05,6.04-24.52,15.3c-1.91-0.68-3.91-1.04-6-1.04c-8.16,0-15.25,5.58-18.83,13.76c-1.05-0.43-2.17-0.66-3.34-0.66
			c-5.82,0-10.53,5.72-10.53,12.79c0,7.06,4.72,12.79,10.53,12.79c1.17,0,2.29-0.24,3.34-0.66c3.58,8.18,10.67,13.76,18.83,13.76
			c3.5,0,6.8-1.03,9.72-2.85c5.42,6.26,12.74,10.11,20.8,10.11c9.88,0,18.65-5.77,24.16-14.67c2.96,2.46,6.54,3.9,10.39,3.9
			c10.18,0,18.43-10.02,18.43-22.36S865.42,831.18,855.25,831.18z"/>
		
			<radialGradient id="SVGID_6_" cx="663.6556" cy="198.9121" r="37.2312" gradientTransform="matrix(0.7368 -0.3071 -0.2977 -0.7143 416.4459 1206.5289)" gradientUnits="userSpaceOnUse">
			<stop  offset="0" style="stop-color:#000000"/>
			<stop  offset="1" style="stop-color:#000000;stop-opacity:0"/>
		</radialGradient>
		<path fill="url(#SVGID_6_)" d="M874.39,848.89c5.91,14.18-1.91,30.93-17.47,37.42s-32.97,0.25-38.88-13.93
			c-5.91-14.18,1.91-30.93,17.47-37.42C851.07,828.47,868.47,834.71,874.39,848.89z"/>
		
			<radialGradient id="SVGID_7_" cx="630.7458" cy="244.1946" r="37.2384" gradientTransform="matrix(0.7368 -0.3071 -0.325 -0.7797 424.3153 1226.9801)" gradientUnits="userSpaceOnUse">
			<stop  offset="0" style="stop-color:#000000"/>
			<stop  offset="1" style="stop-color:#000000;stop-opacity:0"/>
		</radialGradient>
		<path opacity="0.67" fill="url(#SVGID_7_)" enable-background="new    " d="M837.86,831.14c6.45,15.48-0.93,33.29-16.49,39.77
			c-15.56,6.49-33.41-0.8-39.85-16.29c-6.45-15.48,0.93-33.29,16.49-39.77C813.56,808.36,831.41,815.66,837.86,831.14z"/>
		
			<radialGradient id="SVGID_8_" cx="613.119" cy="198.9505" r="37.2327" gradientTransform="matrix(0.7368 -0.3071 -0.2977 -0.7143 408.9891 1188.6407)" gradientUnits="userSpaceOnUse">
			<stop  offset="0" style="stop-color:#000000"/>
			<stop  offset="1" style="stop-color:#000000;stop-opacity:0"/>
		</radialGradient>
		<path opacity="0.67" fill="url(#SVGID_8_)" enable-background="new    " d="M829.68,846.5c5.91,14.18-1.91,30.93-17.47,37.42
			c-15.56,6.49-32.97,0.25-38.88-13.93c-5.91-14.18,1.91-30.93,17.47-37.42C806.36,826.08,823.77,832.32,829.68,846.5z"/>
		<g>
			<path fill="#ECECEC" d="M847.65,831.18c-2.07,0-4.03,0.75-5.79,2.06c-3.75-11.77-11.33-19.84-20.07-19.84
				c-7.56,0-14.25,6.04-18.36,15.3c-1.42-0.68-2.93-1.04-4.49-1.04c-6.11,0-11.42,5.58-14.09,13.76c-0.78-0.43-1.62-0.66-2.5-0.66
				c-4.35,0-7.88,5.72-7.88,12.79c0,7.06,3.53,12.79,7.88,12.79c0.87,0,1.71-0.24,2.5-0.66c2.68,8.18,7.98,13.76,14.09,13.76
				c2.62,0,5.09-1.03,7.27-2.85c4.05,6.26,9.53,10.11,15.57,10.11c7.4,0,13.96-5.77,18.08-14.67c2.22,2.46,4.89,3.9,7.78,3.9
				c7.61,0,13.79-10.02,13.79-22.36S855.27,831.18,847.65,831.18z"/>
			<path opacity="0.51" fill="#D6D6D6" enable-background="new    " d="M847.65,831.18c-2.07,0-4.03,0.75-5.79,2.06
				c-3.74-11.74-11.28-19.77-19.98-19.83v73.27c7.35-0.05,13.88-5.8,17.99-14.67c2.22,2.46,4.89,3.9,7.78,3.9
				c7.61,0,13.79-10.02,13.79-22.36C861.44,841.2,855.27,831.18,847.65,831.18z"/>
		</g>
	</g>
	<g>
		
			<radialGradient id="SVGID_9_" cx="670.6151" cy="198.8424" r="44.8797" gradientTransform="matrix(0.6757 -0.2817 -0.2977 -0.7143 494.8284 1093.9337)" gradientUnits="userSpaceOnUse">
			<stop  offset="0" style="stop-color:#000000"/>
			<stop  offset="1" style="stop-color:#000000;stop-opacity:0"/>
		</radialGradient>
		<path opacity="0.35" fill="url(#SVGID_9_)" enable-background="new    " d="M919.91,750.01c7.12,17.1-1.04,36.77-18.24,43.94
			c-17.2,7.17-36.92-0.87-44.05-17.97c-7.12-17.1,1.04-36.77,18.24-43.94C893.07,724.86,912.79,732.91,919.91,750.01z"/>
		<path fill="#ECECEC" d="M903.31,734.33c-2.41,0-4.7,0.54-6.75,1.48c-4.38-8.47-13.22-14.27-23.42-14.27
			c-8.82,0-16.64,4.35-21.42,11c-1.66-0.48-3.42-0.75-5.24-0.75c-7.13,0-13.32,4.01-16.45,9.9c-0.92-0.31-1.89-0.48-2.91-0.48
			c-5.08,0-9.2,4.12-9.2,9.2s4.12,9.2,9.2,9.2c1.02,0,1.99-0.17,2.91-0.48c3.13,5.89,9.32,9.9,16.45,9.9c3.06,0,5.94-0.74,8.49-2.05
			c4.73,4.5,11.13,7.28,18.17,7.28c8.63,0,16.29-4.15,21.1-10.56c2.59,1.77,5.71,2.8,9.08,2.8c8.89,0,16.09-7.21,16.09-16.09
			C919.4,741.53,912.2,734.33,903.31,734.33z"/>
		
			<radialGradient id="SVGID_10_" cx="781.0272" cy="199.0642" r="26.7868" gradientTransform="matrix(0.7368 -0.3071 -0.2977 -0.7143 387.6978 1137.5657)" gradientUnits="userSpaceOnUse">
			<stop  offset="0" style="stop-color:#000000"/>
			<stop  offset="1" style="stop-color:#000000;stop-opacity:0"/>
		</radialGradient>
		<path opacity="0.67" fill="url(#SVGID_10_)" enable-background="new    " d="M924.17,747.07c4.25,10.2-1.38,22.26-12.57,26.93
			c-11.2,4.66-23.72,0.18-27.97-10.02c-4.25-10.2,1.38-22.26,12.57-26.93C907.39,732.38,919.91,736.87,924.17,747.07z"/>
		
			<radialGradient id="SVGID_11_" cx="774.9697" cy="199.0791" r="26.7884" gradientTransform="matrix(0.7368 -0.3071 -0.2977 -0.7143 384.6213 1130.1854)" gradientUnits="userSpaceOnUse">
			<stop  offset="0" style="stop-color:#000000"/>
			<stop  offset="1" style="stop-color:#000000;stop-opacity:0"/>
		</radialGradient>
		<path opacity="0.67" fill="url(#SVGID_11_)" enable-background="new    " d="M916.62,741.54c4.25,10.2-1.38,22.26-12.57,26.93
			c-11.2,4.66-23.72,0.18-27.97-10.02c-4.25-10.2,1.38-22.26,12.57-26.93S912.37,731.34,916.62,741.54z"/>
		
			<radialGradient id="SVGID_12_" cx="708.5612" cy="199.1135" r="26.7878" gradientTransform="matrix(0.7368 -0.3071 -0.2977 -0.7143 378.7649 1116.1367)" gradientUnits="userSpaceOnUse">
			<stop  offset="0" style="stop-color:#000000"/>
			<stop  offset="1" style="stop-color:#000000;stop-opacity:0"/>
		</radialGradient>
		<path opacity="0.67" fill="url(#SVGID_12_)" enable-background="new    " d="M861.83,747.86c4.25,10.2-1.38,22.26-12.57,26.93
			c-11.2,4.67-23.72,0.18-27.97-10.02c-4.25-10.2,1.38-22.26,12.57-26.93C845.05,733.17,857.57,737.66,861.83,747.86z"/>
		<path fill="#ECECEC" d="M897.82,734.33c-1.99,0-3.87,0.54-5.56,1.48c-3.61-8.47-10.89-14.27-19.29-14.27
			c-7.27,0-13.71,4.35-17.64,11c-1.37-0.48-2.82-0.75-4.31-0.75c-5.87,0-10.97,4.01-13.55,9.9c-0.75-0.31-1.56-0.48-2.4-0.48
			c-4.19,0-7.58,4.12-7.58,9.2s3.39,9.2,7.58,9.2c0.84,0,1.64-0.17,2.4-0.48c2.57,5.89,7.68,9.9,13.55,9.9
			c2.52,0,4.89-0.74,6.99-2.05c3.89,4.5,9.16,7.28,14.97,7.28c7.11,0,13.42-4.15,17.38-10.56c2.13,1.77,4.7,2.8,7.48,2.8
			c7.32,0,13.25-7.21,13.25-16.09C911.08,741.53,905.14,734.33,897.82,734.33z"/>
		
			<radialGradient id="SVGID_13_" cx="766.4834" cy="199.0765" r="26.7885" gradientTransform="matrix(0.7368 -0.3071 -0.2977 -0.7143 385.8396 1133.108)" gradientUnits="userSpaceOnUse">
			<stop  offset="0" style="stop-color:#000000"/>
			<stop  offset="1" style="stop-color:#000000;stop-opacity:0"/>
		</radialGradient>
		<path fill="url(#SVGID_13_)" d="M911.59,747.07c4.25,10.2-1.38,22.26-12.57,26.93c-11.2,4.66-23.72,0.18-27.97-10.02
			c-4.25-10.2,1.38-22.26,12.57-26.93C894.82,732.38,907.34,736.87,911.59,747.07z"/>
		
			<radialGradient id="SVGID_14_" cx="743.021" cy="244.3303" r="26.7913" gradientTransform="matrix(0.7368 -0.3071 -0.325 -0.7797 396.9922 1161.4283)" gradientUnits="userSpaceOnUse">
			<stop  offset="0" style="stop-color:#000000"/>
			<stop  offset="1" style="stop-color:#000000;stop-opacity:0"/>
		</radialGradient>
		<path opacity="0.67" fill="url(#SVGID_14_)" enable-background="new    " d="M885.31,734.29c4.64,11.14-0.67,23.95-11.86,28.62
			c-11.2,4.66-24.03-0.58-28.68-11.72s0.67-23.95,11.86-28.62C867.83,717.91,880.67,723.16,885.31,734.29z"/>
		
			<radialGradient id="SVGID_15_" cx="730.1282" cy="199.098" r="26.7904" gradientTransform="matrix(0.7368 -0.3071 -0.2977 -0.7143 380.4747 1120.2384)" gradientUnits="userSpaceOnUse">
			<stop  offset="0" style="stop-color:#000000"/>
			<stop  offset="1" style="stop-color:#000000;stop-opacity:0"/>
		</radialGradient>
		<path opacity="0.67" fill="url(#SVGID_15_)" enable-background="new    " d="M879.43,745.35c4.25,10.2-1.38,22.26-12.57,26.93
			c-11.2,4.66-23.72,0.18-27.97-10.02c-4.25-10.2,1.38-22.26,12.57-26.93C862.66,730.66,875.18,735.14,879.43,745.35z"/>
		<g>
			<path fill="#ECECEC" d="M892.35,734.33c-1.49,0-2.9,0.54-4.17,1.48c-2.7-8.47-8.15-14.27-14.44-14.27
				c-5.44,0-10.26,4.35-13.21,11c-1.03-0.48-2.11-0.75-3.23-0.75c-4.4,0-8.21,4.01-10.14,9.9c-0.57-0.31-1.17-0.48-1.8-0.48
				c-3.13,0-5.67,4.12-5.67,9.2s2.54,9.2,5.67,9.2c0.63,0,1.23-0.17,1.8-0.48c1.93,5.89,5.75,9.9,10.14,9.9
				c1.89,0,3.66-0.74,5.23-2.05c2.92,4.5,6.86,7.28,11.2,7.28c5.32,0,10.04-4.15,13.01-10.56c1.59,1.77,3.52,2.8,5.59,2.8
				c5.48,0,9.92-7.21,9.92-16.09C902.28,741.53,897.83,734.33,892.35,734.33z"/>
			<path opacity="0.51" fill="#D6D6D6" enable-background="new    " d="M892.35,734.33c-1.49,0-2.9,0.54-4.17,1.48
				c-2.7-8.44-8.11-14.22-14.37-14.27v52.71c5.29-0.04,9.98-4.17,12.94-10.56c1.59,1.77,3.52,2.8,5.59,2.8
				c5.48,0,9.92-7.21,9.92-16.09C902.28,741.53,897.83,734.33,892.35,734.33z"/>
		</g>
	</g>
	
		<radialGradient id="SVGID_16_" cx="748.5792" cy="198.6163" r="62.243" gradientTransform="matrix(0.6757 -0.2817 -0.2977 -0.7143 534.8587 1189.9614)" gradientUnits="userSpaceOnUse">
		<stop  offset="0" style="stop-color:#000000"/>
		<stop  offset="1" style="stop-color:#000000;stop-opacity:0"/>
	</radialGradient>
	<path opacity="0.54" fill="url(#SVGID_16_)" enable-background="new    " d="M1024.74,819.21c9.88,23.71-1.45,50.99-25.3,60.93
		c-23.86,9.95-51.2-1.22-61.09-24.92c-9.88-23.71,1.45-50.99,25.3-60.93C987.5,784.34,1014.86,795.5,1024.74,819.21z"/>
	
		<radialGradient id="SVGID_17_" cx="973.5823" cy="-16.7808" r="257.5049" gradientTransform="matrix(1 0 0 -0.7774 0 1009.1078)" gradientUnits="userSpaceOnUse">
		<stop  offset="0" style="stop-color:#333333"/>
		<stop  offset="0.6476" style="stop-color:#0E0E0E"/>
		<stop  offset="1" style="stop-color:#000000"/>
	</radialGradient>
	<path opacity="0.48" fill="url(#SVGID_17_)" enable-background="new    " d="M1167.69,1012.32c12.55-2.19,19.54-4.61,19.54-7.16
		c0-9.6-98.8-17.38-220.67-17.38s-220.67,7.78-220.67,17.38c0,2.77,8.27,5.4,22.96,7.72c-34.72,3.46-55.45,7.83-55.45,12.58
		c0,11.21,115.43,13.05,257.82,13.05s257.82-1.84,257.82-13.05C1229.03,1020.45,1205.94,1015.86,1167.69,1012.32z"/>
	<path fill="#E1DEDF" d="M1102.84,1022.07c0,0-14.64-3.61-48.56-0.89L1102.84,1022.07z"/>
	<path fill="#E1DEDF" d="M891.27,1011.05c0,0-14.87-2.51-48.49,2.73L891.27,1011.05z"/>
	<ellipse fill="#5E2A0E" cx="969.19" cy="1020.89" rx="33.72" ry="17.73"/>
	<g>
		<g>
			<path fill="#F7F5F6" d="M870.36,1011.68l-73.97-7.65l63.09-52.83l95,7.65c0,0,15.05,31.11,14.41,49.27l-43.42,4.26
				L870.36,1011.68z"/>
			<path fill="#ECECEC" d="M968.89,1008.12c0,0-15.59-18.13-36.89-19.38c-59.46-3.47-135.6,15.29-135.6,15.29l-14.5,27.11
				l158.71-0.08C940.59,1031.07,950.67,1009.42,968.89,1008.12z"/>
		</g>
		<g>
			<path fill="#F7F5F6" d="M1067.71,1011.68l73.97-7.65l-63.09-52.83l-95,7.65c0,0-15.05,31.11-14.41,49.27l43.42,4.26
				L1067.71,1011.68z"/>
			<path fill="#ECECEC" d="M969.18,1008.12c0,0,15.59-18.13,36.89-19.38c59.46-3.47,135.6,15.29,135.6,15.29l14.5,27.11
				l-158.71-0.08C997.47,1031.07,987.4,1009.42,969.18,1008.12z"/>
		</g>
	</g>
	
		<radialGradient id="SVGID_18_" cx="692.7587" cy="-976.5829" r="78.5703" gradientTransform="matrix(0.7976 -0.0253 -0.0151 -0.2764 290.8355 725.52)" gradientUnits="userSpaceOnUse">
		<stop  offset="0" style="stop-color:#000000"/>
		<stop  offset="0.919" style="stop-color:#000000;stop-opacity:0"/>
	</radialGradient>
	<path opacity="0.65" fill="url(#SVGID_18_)" enable-background="new    " d="M922.47,975.88c0.64,11.58-27.66,21.88-63.2,23.01
		c-35.53,1.13-64.86-7.35-65.49-18.93c-0.64-11.58,27.66-21.88,63.2-23.01C892.51,955.83,921.84,964.3,922.47,975.88z"/>
	
		<radialGradient id="SVGID_19_" cx="813.5467" cy="-2075.4932" r="85.4412" gradientTransform="matrix(0.7945 0.0586 0.0215 -0.1687 299.2697 582.1772)" gradientUnits="userSpaceOnUse">
		<stop  offset="0" style="stop-color:#000000"/>
		<stop  offset="0.0891" style="stop-color:#070707;stop-opacity:0.9109"/>
		<stop  offset="0.2165" style="stop-color:#1A1A1A;stop-opacity:0.7835"/>
		<stop  offset="0.3669" style="stop-color:#383838;stop-opacity:0.6331"/>
		<stop  offset="0.5348" style="stop-color:#646464;stop-opacity:0.4652"/>
		<stop  offset="0.7174" style="stop-color:#9B9B9B;stop-opacity:0.2826"/>
		<stop  offset="0.9092" style="stop-color:#DDDDDD;stop-opacity:0.0908"/>
		<stop  offset="1" style="stop-color:#FFFFFF;stop-opacity:0"/>
	</radialGradient>
	<path opacity="0.65" fill="url(#SVGID_19_)" enable-background="new    " d="M969.19,1001.71c-1.47,11.53-9.63-3.57-60.91-6.61
		c-35.46-2.1-79.24-7.07-77.77-18.61c1.47-11.53,49.17-19.31,84.58-16.7S970.66,990.17,969.19,1001.71z"/>
	<path fill="#E1DEDF" d="M791.86,988.89c0,0,140.32-21.5,177.57,19.23l-5.17-37.01c0,0-22.3-30.6-72.33-28.95
		c-39.15,1.29-59.28,0.41-59.28,0.41L791.86,988.89z"/>
	
		<radialGradient id="SVGID_20_" cx="843.9669" cy="-1109.5519" r="91.6859" gradientTransform="matrix(0.7847 -0.1279 -0.0554 -0.2412 292.8647 815.0287)" gradientUnits="userSpaceOnUse">
		<stop  offset="0" style="stop-color:#000000"/>
		<stop  offset="0.0891" style="stop-color:#070707;stop-opacity:0.9109"/>
		<stop  offset="0.2165" style="stop-color:#1A1A1A;stop-opacity:0.7835"/>
		<stop  offset="0.3669" style="stop-color:#383838;stop-opacity:0.6331"/>
		<stop  offset="0.5348" style="stop-color:#646464;stop-opacity:0.4652"/>
		<stop  offset="0.7174" style="stop-color:#9B9B9B;stop-opacity:0.2826"/>
		<stop  offset="0.9092" style="stop-color:#DDDDDD;stop-opacity:0.0908"/>
		<stop  offset="1" style="stop-color:#FFFFFF;stop-opacity:0"/>
	</radialGradient>
	<path opacity="0.65" fill="url(#SVGID_20_)" enable-background="new    " d="M1092.2,964.98c2.96,12.9-40.24,28.18-75.2,33.88
		c-34.97,5.7-69.83,12.53-72.79-0.37c-2.96-12.9,27.09-40.63,62.05-46.33C1041.24,946.46,1089.24,952.08,1092.2,964.98z"/>
	
		<radialGradient id="SVGID_21_" cx="861.5504" cy="-1049.071" r="78.5434" gradientTransform="matrix(0.7753 0.1446 0.0867 -0.2687 296.8205 547.3575)" gradientUnits="userSpaceOnUse">
		<stop  offset="0" style="stop-color:#000000"/>
		<stop  offset="0.919" style="stop-color:#000000;stop-opacity:0"/>
	</radialGradient>
	<path opacity="0.65" fill="url(#SVGID_21_)" enable-background="new    " d="M936.38,965.49c-3.63,11.26-34.58,15.16-69.13,8.72
		c-34.55-6.44-59.61-20.79-55.98-32.05c3.63-11.26,34.58-15.16,69.13-8.72C914.95,939.89,940.01,954.24,936.38,965.49z"/>
	
		<radialGradient id="SVGID_22_" cx="1118.5721" cy="-1037.4102" r="66.0147" gradientTransform="matrix(0.6913 0.3035 0.1819 -0.2396 346.5052 380.0965)" gradientUnits="userSpaceOnUse">
		<stop  offset="0" style="stop-color:#000000"/>
		<stop  offset="0.0891" style="stop-color:#070707;stop-opacity:0.9109"/>
		<stop  offset="0.2165" style="stop-color:#1A1A1A;stop-opacity:0.7835"/>
		<stop  offset="0.3669" style="stop-color:#383838;stop-opacity:0.6331"/>
		<stop  offset="0.5348" style="stop-color:#646464;stop-opacity:0.4652"/>
		<stop  offset="0.7174" style="stop-color:#9B9B9B;stop-opacity:0.2826"/>
		<stop  offset="0.9092" style="stop-color:#DDDDDD;stop-opacity:0.0908"/>
		<stop  offset="1" style="stop-color:#FFFFFF;stop-opacity:0"/>
	</radialGradient>
	<path opacity="0.65" fill="url(#SVGID_22_)" enable-background="new    " d="M977.92,988.71c-6.4,8.43-32.57,6.06-58.44-5.3
		c-25.88-11.36-41.66-27.4-35.26-35.83c6.4-8.43,32.57-6.06,58.44,5.3C968.53,964.24,984.32,980.28,977.92,988.71z"/>
	
		<radialGradient id="SVGID_23_" cx="980.4325" cy="-1021.609" r="78.5892" gradientTransform="matrix(0.7983 0 0 -0.2766 291.0325 688.0035)" gradientUnits="userSpaceOnUse">
		<stop  offset="0" style="stop-color:#000000"/>
		<stop  offset="1" style="stop-color:#000000;stop-opacity:0"/>
	</radialGradient>
	<ellipse opacity="0.65" fill="url(#SVGID_23_)" enable-background="new    " cx="1073.71" cy="970.58" rx="64.4" ry="20.99"/>
	<path fill="#F7F5F6" d="M810.38,934.72c0,0,21.04,29.83,80.49,30.88c62.37,1.1,79.65,42.52,79.65,42.52l-5.17-37.01
		c0,0,6.82-27.37-45.14-38.46c-44.57-9.51-58.74-31.02-58.74-31.02L810.38,934.72z"/>
	<path fill="#ECECEC" d="M810.38,934.72c0,0,21.04,29.83,80.49,30.88c62.37,1.1,79.65,42.52,79.65,42.52l-5.17-37.01
		c0,0,6.82-27.37-45.14-38.46c-44.57-9.51-58.74-31.02-58.74-31.02L810.38,934.72z"/>
	<path fill="#E1DEDF" d="M1143.93,978.79c0,0-141.82-14.74-175.63,27.69l2.09-37.19c0,0,19.72-31.61,69.8-32.35
		c39.19-0.58,59.2-2.43,59.2-2.43L1143.93,978.79z"/>
	
		<radialGradient id="SVGID_24_" cx="799.8093" cy="-696.3376" r="103.093" gradientTransform="matrix(0.7368 -0.2335 -0.14 -0.2554 341.476 961.2015)" gradientUnits="userSpaceOnUse">
		<stop  offset="0" style="stop-color:#000000"/>
		<stop  offset="0.0891" style="stop-color:#070707;stop-opacity:0.9109"/>
		<stop  offset="0.2165" style="stop-color:#1A1A1A;stop-opacity:0.7835"/>
		<stop  offset="0.3669" style="stop-color:#383838;stop-opacity:0.6331"/>
		<stop  offset="0.5348" style="stop-color:#646464;stop-opacity:0.4652"/>
		<stop  offset="0.7174" style="stop-color:#9B9B9B;stop-opacity:0.2826"/>
		<stop  offset="0.9092" style="stop-color:#DDDDDD;stop-opacity:0.0908"/>
		<stop  offset="1" style="stop-color:#FFFFFF;stop-opacity:0"/>
	</radialGradient>
	<path opacity="0.49" fill="url(#SVGID_24_)" enable-background="new    " d="M1106.27,927.57c7.7,14.04-20.99,36.49-64.07,50.15
		c-43.09,13.65-84.25,13.34-91.94-0.69c-7.7-14.04,20.99-36.49,64.07-50.15C1057.41,913.22,1098.58,913.53,1106.27,927.57z"/>
	
		<radialGradient id="SVGID_25_" cx="848.0839" cy="-696.3571" r="103.0913" gradientTransform="matrix(0.7368 -0.2335 -0.14 -0.2554 342.892 963.7841)" gradientUnits="userSpaceOnUse">
		<stop  offset="0" style="stop-color:#000000"/>
		<stop  offset="0.919" style="stop-color:#000000;stop-opacity:0"/>
	</radialGradient>
	<path opacity="0.49" fill="url(#SVGID_25_)" enable-background="new    " d="M1143.26,918.88c7.7,14.04-20.99,36.49-64.07,50.15
		c-43.08,13.65-84.25,13.34-91.94-0.69c-7.7-14.04,20.99-36.49,64.07-50.15C1094.39,904.53,1135.56,904.84,1143.26,918.88z"/>
	<path fill="#F1F1F1" d="M1112.48,921.45c0,0-20.38,27.25-76.28,37.47c-55.96,10.23-67.88,47.55-67.88,47.55l2.09-37.19
		c0,0-0.25-22.78,41.87-40.54c34.03-14.36,56.05-33.76,56.05-33.76L1112.48,921.45z"/>
	
		<radialGradient id="SVGID_26_" cx="807.9579" cy="-549.9422" r="83.9974" gradientTransform="matrix(0.6913 -0.3035 -0.1819 -0.2396 384.9184 1048.7847)" gradientUnits="userSpaceOnUse">
		<stop  offset="0" style="stop-color:#000000"/>
		<stop  offset="0.919" style="stop-color:#000000;stop-opacity:0"/>
	</radialGradient>
	<path opacity="0.49" fill="url(#SVGID_26_)" enable-background="new    " d="M1103.12,909.16c8.15,10.73-11.94,31.15-44.88,45.61
		c-32.93,14.46-66.23,17.48-74.38,6.75c-8.15-10.73,11.94-31.15,44.88-45.61C1061.68,901.45,1094.97,898.43,1103.12,909.16z"/>
	<path fill="#F7F5F6" d="M1097.17,907.38c0,0-0.71,21.13-68.9,37.17c-51.02,12-60.37,62.52-60.37,62.52l-2.84-39.95
		c0,0-3.24-24.38,35.46-45.93c31.27-17.41,50.16-39.52,50.16-39.52L1097.17,907.38z"/>
	<g>
		<path fill="#F79200" d="M998.07,1030.53c0,0-6.37-23.35-26.26-24.03c-2.19-0.08-4.26,0.11-6.21,0.5
			c-13.24,2.66-21.97,14.46-23.52,22.77l3.8,2.26c0,0,6.75-24.17,25.57-21.78s22.73,21.1,22.73,21.1L998.07,1030.53z"/>
		<g>
			<polygon fill="#DE4740" points="995.7,1026.99 1001,1032.63 1165.32,1032.63 1161.78,1025.86 			"/>
			<polygon fill="#DE4740" points="944.81,1026.99 939.51,1032.63 775.19,1032.63 778.72,1025.86 			"/>
			<path fill="#DE4740" d="M1011.77,1028.89l-10.77,3.75c0,0-27.33,21.01-61.88-0.26l5.69-5.38c0,0,14.38,8.67,29.25,7.98
				c14.87-0.69,21.64-7.98,21.64-7.98L1011.77,1028.89z"/>
		</g>
	</g>
	<path fill="#E1DEDF" d="M1060.72,1015.11c0,0-17.11-4.05-56.75-1L1060.72,1015.11z"/>
	
		<radialGradient id="SVGID_27_" cx="606.5241" cy="988.1448" r="34.1479" gradientTransform="matrix(-0.0978 -0.5296 -0.661 0.1221 1775.0464 1225.6688)" gradientUnits="userSpaceOnUse">
		<stop  offset="0" style="stop-color:#000000"/>
		<stop  offset="0.919" style="stop-color:#000000;stop-opacity:0"/>
	</radialGradient>
	<path opacity="0.35" fill="url(#SVGID_27_)" enable-background="new    " d="M1059.13,1006.54c12.04-2.22,23.33,4.29,25.23,14.55
		c1.89,10.26-6.33,20.38-18.36,22.59c-12.04,2.22-23.33-4.29-25.23-14.55C1038.88,1018.88,1047.1,1008.76,1059.13,1006.54z"/>
	<path fill="#E1DEDF" d="M940.52,1016.67c0,0-17.11-4.05-56.75-1L940.52,1016.67z"/>
	<path fill="#F79200" d="M1034.93,1005.87c0,0,14.81-0.87,22.36,9.99s9.72,33.43,24.82,45.18c15.09,11.76,33.02,13.57,33.02,13.57
		l-12.27-14.47l26.42,9.95c0,0-16.04-11.76-29.25-22.61c-13.21-10.85-14.81-34.88-24.25-40.3
		C1066.35,1001.74,1034.93,1005.87,1034.93,1005.87z"/>
	<path fill="#E1DEDF" d="M1086.3,1007.86c0,0-20.1-6.47-55.59-1.78L1086.3,1007.86z"/>
	<g>
		<polygon fill="#F79200" points="936.98,908.14 924.9,905.49 915.13,915.17 916.96,902.47 904.41,897.62 917.38,894 918.12,880.56 
			925.56,891.76 938.58,888.32 930.22,898.87 		"/>
		<polygon opacity="0.2" fill="#F79200" enable-background="new    " points="938.58,888.32 925.56,891.76 918.27,880.79 
			924.8,905.61 924.9,905.49 936.98,908.14 930.22,898.87 		"/>
		
			<radialGradient id="SVGID_28_" cx="1093.6505" cy="972.016" r="14.408" gradientTransform="matrix(-0.0104 -0.8844 -0.7241 8.478008e-03 1643.2438 1857.026)" gradientUnits="userSpaceOnUse">
			<stop  offset="0" style="stop-color:#000000"/>
			<stop  offset="0.9944" style="stop-color:#000000;stop-opacity:0"/>
		</radialGradient>
		<path opacity="0.57" fill="url(#SVGID_28_)" enable-background="new    " d="M927.88,884.96c5.56-0.06,10.14,5.74,10.23,12.97
			c0.08,7.23-4.36,13.13-9.91,13.2c-5.56,0.06-10.14-5.74-10.23-12.97C917.87,890.93,922.31,885.02,927.88,884.96z"/>
		
			<radialGradient id="SVGID_29_" cx="736.7487" cy="472.9569" r="10.9973" gradientTransform="matrix(0.6344 -0.4846 -0.7636 -0.9996 813.2548 1730.5001)" gradientUnits="userSpaceOnUse">
			<stop  offset="0" style="stop-color:#000000"/>
			<stop  offset="0.9944" style="stop-color:#000000;stop-opacity:0"/>
		</radialGradient>
		<path opacity="0.24" fill="url(#SVGID_29_)" enable-background="new    " d="M924.45,892.29c4.35,5.69,6.52,15.97,2.68,18.9
			c-3.84,2.93-10.48,0.7-14.82-4.99c-4.35-5.69-4.75-12.67-0.92-15.61C915.24,887.65,920.1,886.6,924.45,892.29z"/>
		<polygon fill="#F79200" points="934.69,910.28 924.6,905.56 918.8,914.1 918.95,901.95 910.11,894.79 918.51,893.7 917.88,880.62 
			923.88,892.21 931.67,888.12 927.64,899.54 		"/>
		<polygon opacity="0.2" fill="#F79200" enable-background="new    " points="931.67,888.12 923.88,892.21 918,880.86 
			924.54,905.68 924.6,905.56 934.69,910.28 927.64,899.54 		"/>
	</g>
	<g>
		<polygon fill="#F79200" points="1026.56,745.09 1019.72,738.67 1009.6,741.19 1015.72,733.64 1009.43,725.61 1019.28,728.27 
			1024.97,719.82 1025.47,730 1035.28,732.8 1025.75,736.42 		"/>
		<polygon opacity="0.2" fill="#F79200" enable-background="new    " points="1035.28,732.8 1025.47,730 1024.97,720.03 
			1019.6,738.72 1019.72,738.67 1026.56,745.09 1025.75,736.42 		"/>
		
			<radialGradient id="SVGID_30_" cx="1032.2916" cy="605.5412" r="10.9107" gradientTransform="matrix(0.4437 -0.7651 -0.6264 -0.3633 945.9268 1744.8352)" gradientUnits="userSpaceOnUse">
			<stop  offset="0" style="stop-color:#000000"/>
			<stop  offset="1" style="stop-color:#000000;stop-opacity:0"/>
		</radialGradient>
		<path opacity="0.57" fill="url(#SVGID_30_)" enable-background="new    " d="M1029.61,726.46c3.64,2.12,4.38,7.67,1.63,12.4
			c-2.75,4.73-7.93,6.86-11.57,4.75c-3.64-2.12-4.38-7.67-1.63-12.4C1020.79,726.48,1025.97,724.35,1029.61,726.46z"/>
		
			<radialGradient id="SVGID_31_" cx="989.1613" cy="322.6519" r="8.3408" gradientTransform="matrix(0.793 -0.0917 -0.1445 -1.2495 280.2749 1227.3274)" gradientUnits="userSpaceOnUse">
			<stop  offset="0" style="stop-color:#000000"/>
			<stop  offset="1" style="stop-color:#000000;stop-opacity:0"/>
		</radialGradient>
		<path opacity="0.24" fill="url(#SVGID_31_)" enable-background="new    " d="M1024.54,729.9c0.62,5.38-1.94,12.92-5.58,13.34
			c-3.64,0.42-7.09-3.61-7.71-8.99c-0.62-5.38,1.82-10.09,5.45-10.51S1023.92,724.51,1024.54,729.9z"/>
		<polygon fill="#F79200" points="1024.24,745.59 1019.49,738.61 1012.41,741.91 1017.21,734.06 1014.24,725.98 1020.13,728.52 
			1024.79,719.77 1024.2,729.64 1030.86,729.99 1023.81,735.87 		"/>
		<polygon opacity="0.2" fill="#F79200" enable-background="new    " points="1030.86,729.99 1024.2,729.64 1024.78,719.97 
			1019.41,738.66 1019.49,738.61 1024.24,745.59 1023.81,735.87 		"/>
	</g>
	<g>
		<polygon fill="#F79200" points="807.78,795.95 803.26,791.26 796.15,792.66 800.65,787.63 796.56,781.85 803.3,784.03 
			807.54,778.35 807.55,785.44 814.26,787.71 807.52,789.91 		"/>
		<polygon opacity="0.2" fill="#F79200" enable-background="new    " points="814.26,787.71 807.55,785.44 807.54,778.5 
			803.18,791.29 803.26,791.26 807.78,795.95 807.52,789.91 		"/>
		
			<radialGradient id="SVGID_32_" cx="880.8928" cy="594.8357" r="7.585" gradientTransform="matrix(0.4807 -0.7424 -0.6079 -0.3936 744.9547 1677.0104)" gradientUnits="userSpaceOnUse">
			<stop  offset="0" style="stop-color:#000000"/>
			<stop  offset="1" style="stop-color:#000000;stop-opacity:0"/>
		</radialGradient>
		<path opacity="0.57" fill="url(#SVGID_32_)" enable-background="new    " d="M810.54,783.13c2.46,1.59,2.78,5.47,0.71,8.67
			c-2.07,3.19-5.73,4.49-8.19,2.9c-2.46-1.59-2.78-5.47-0.71-8.67C804.42,782.83,808.08,781.53,810.54,783.13z"/>
		
			<radialGradient id="SVGID_33_" cx="714.9619" cy="331.2063" r="5.7884" gradientTransform="matrix(0.7965 -0.0527 -0.083 -1.2551 260.3052 1240.9738)" gradientUnits="userSpaceOnUse">
			<stop  offset="0" style="stop-color:#000000"/>
			<stop  offset="1" style="stop-color:#000000;stop-opacity:0"/>
		</radialGradient>
		<path opacity="0.24" fill="url(#SVGID_33_)" enable-background="new    " d="M806.9,785.34c0.25,3.76-1.79,8.91-4.33,9.07
			c-2.54,0.17-4.8-2.75-5.05-6.51s1.61-6.95,4.15-7.11C804.22,780.63,806.66,781.58,806.9,785.34z"/>
		<polygon fill="#F79200" points="806.16,796.22 803.1,791.21 798.07,793.27 801.68,787.98 799.88,782.27 803.89,784.23 
			807.42,778.31 806.68,785.15 811.28,785.62 806.19,789.46 		"/>
		<polygon opacity="0.2" fill="#F79200" enable-background="new    " points="811.28,785.62 806.68,785.15 807.41,778.46 
			803.04,791.24 803.1,791.21 806.16,796.22 806.19,789.46 		"/>
	</g>
	<g>
		<polygon fill="#F9EC00" points="799.77,919.15 794.7,913.31 786.18,914.54 791.83,908.85 787.33,901.73 795.19,904.74 
			800.56,898.26 800.14,906.67 807.96,909.78 799.83,911.97 		"/>
		<polygon fill="#F9EC00" points="807.96,909.78 800.14,906.67 800.55,898.44 794.6,913.34 794.7,913.31 799.77,919.15 
			799.83,911.97 		"/>
		
			<radialGradient id="SVGID_34_" cx="729.2374" cy="583.6794" r="9.0032" gradientTransform="matrix(0.5182 -0.7167 -0.5868 -0.4243 763.654 1681.0311)" gradientUnits="userSpaceOnUse">
			<stop  offset="0" style="stop-color:#000000"/>
			<stop  offset="0.9944" style="stop-color:#000000;stop-opacity:0"/>
		</radialGradient>
		<path opacity="0.57" fill="url(#SVGID_34_)" enable-background="new    " d="M803.83,904.1c2.82,2.04,2.96,6.66,0.31,10.32
			c-2.64,3.66-7.08,4.98-9.9,2.94s-2.96-6.66-0.31-10.32C796.58,903.38,801.01,902.07,803.83,904.1z"/>
		
			<radialGradient id="SVGID_35_" cx="663.4574" cy="328.4039" r="6.8769" gradientTransform="matrix(0.7982 -0.0117 -0.0184 -1.2577 270.2315 1329.6992)" gradientUnits="userSpaceOnUse">
			<stop  offset="0" style="stop-color:#000000"/>
			<stop  offset="0.9944" style="stop-color:#000000;stop-opacity:0"/>
		</radialGradient>
		<path opacity="0.24" fill="url(#SVGID_35_)" enable-background="new    " d="M799.38,906.51c0.06,4.47-2.66,10.45-5.68,10.49
			c-3.02,0.04-5.52-3.55-5.59-8.02s2.33-8.14,5.35-8.18C796.48,900.76,799.32,902.03,799.38,906.51z"/>
		<polygon fill="#F9EC00" points="797.83,919.37 794.51,913.24 788.43,915.37 793.02,909.32 791.24,902.44 795.88,905.01 
			800.42,898.2 799.12,906.26 804.55,907.11 798.28,911.35 		"/>
		<polygon fill="#F9EC00" points="804.55,907.11 799.12,906.26 800.39,898.38 794.44,913.27 794.51,913.24 797.83,919.37 
			798.28,911.35 		"/>
	</g>
	<g>
		<polygon fill="#F9EC00" points="896.38,803.58 888.76,802.2 882.88,808.48 883.73,800.5 875.78,797.76 883.79,795.19 
			883.94,786.78 888.86,793.61 896.9,791.15 891.93,797.94 		"/>
		<polygon fill="#F9EC00" points="896.9,791.15 888.86,793.61 884.04,786.92 888.7,802.28 888.76,802.2 896.38,803.58 
			891.93,797.94 		"/>
		
			<radialGradient id="SVGID_36_" cx="1218.7975" cy="1012.6835" r="9.0066" gradientTransform="matrix(-0.0434 -0.8834 -0.7233 0.0355 1675.915 1838.2073)" gradientUnits="userSpaceOnUse">
			<stop  offset="0" style="stop-color:#000000"/>
			<stop  offset="1" style="stop-color:#000000;stop-opacity:0"/>
		</radialGradient>
		<path opacity="0.57" fill="url(#SVGID_36_)" enable-background="new    " d="M890.14,789.3c3.47-0.17,6.47,3.35,6.69,7.86
			c0.22,4.51-2.41,8.31-5.89,8.48c-3.47,0.17-6.47-3.35-6.69-7.86C884.03,793.27,886.67,789.47,890.14,789.3z"/>
		
			<radialGradient id="SVGID_37_" cx="742.9511" cy="488.4511" r="6.8723" gradientTransform="matrix(0.6158 -0.508 -0.8004 -0.9703 818.7243 1650.6968)" gradientUnits="userSpaceOnUse">
			<stop  offset="0" style="stop-color:#000000"/>
			<stop  offset="1" style="stop-color:#000000;stop-opacity:0"/>
		</radialGradient>
		<path opacity="0.24" fill="url(#SVGID_37_)" enable-background="new    " d="M888.17,793.96c2.85,3.45,4.45,9.83,2.12,11.74
			c-2.33,1.92-6.52,0.68-9.37-2.77c-2.85-3.45-3.27-7.81-0.94-9.73C882.31,791.28,885.32,790.5,888.17,793.96z"/>
		<polygon fill="#F9EC00" points="894.99,804.96 888.57,802.25 885.15,807.72 884.96,800.13 879.27,795.86 884.49,794.98 
			883.79,786.83 887.82,793.93 892.58,791.19 890.34,798.42 		"/>
		<polygon fill="#F9EC00" points="892.58,791.19 887.82,793.93 883.87,786.97 888.54,802.33 888.57,802.25 894.99,804.96 
			890.34,798.42 		"/>
	</g>
	<g>
		<polygon fill="#F9EC00" points="838.57,801.92 835.54,801.31 833.14,803.77 833.54,800.59 830.4,799.44 833.61,798.48 
			833.74,795.12 835.65,797.88 838.88,796.97 836.84,799.63 		"/>
		<polygon fill="#F9EC00" points="838.88,796.97 835.65,797.88 833.78,795.18 835.51,801.34 835.54,801.31 838.57,801.92 
			836.84,799.63 		"/>
		
			<radialGradient id="SVGID_38_" cx="1173.2505" cy="998.9297" r="3.5918" gradientTransform="matrix(-0.0255 -0.8841 -0.7238 0.0208 1589.2338 1815.9272)" gradientUnits="userSpaceOnUse">
			<stop  offset="0" style="stop-color:#000000"/>
			<stop  offset="1" style="stop-color:#000000;stop-opacity:0"/>
		</radialGradient>
		<path opacity="0.57" fill="url(#SVGID_38_)" enable-background="new    " d="M836.19,796.18c1.39-0.04,2.56,1.39,2.61,3.19
			c0.05,1.8-1.03,3.29-2.41,3.33c-1.39,0.04-2.56-1.39-2.61-3.19C833.72,797.71,834.81,796.22,836.19,796.18z"/>
		
			<radialGradient id="SVGID_39_" cx="670.2921" cy="475.0352" r="2.7408" gradientTransform="matrix(0.626 -0.4953 -0.7805 -0.9864 785.3341 1600.7109)" gradientUnits="userSpaceOnUse">
			<stop  offset="0" style="stop-color:#000000"/>
			<stop  offset="1" style="stop-color:#000000;stop-opacity:0"/>
		</radialGradient>
		<path opacity="0.24" fill="url(#SVGID_39_)" enable-background="new    " d="M835.37,798.02c1.11,1.4,1.69,3.95,0.75,4.7
			c-0.94,0.75-2.61,0.22-3.71-1.18c-1.11-1.4-1.24-3.14-0.29-3.89C833.05,796.9,834.26,796.62,835.37,798.02z"/>
		<polygon fill="#F9EC00" points="838,802.46 835.46,801.33 834.05,803.48 834.04,800.46 831.8,798.7 833.89,798.4 833.68,795.14 
			835.23,798 837.15,796.95 836.19,799.81 		"/>
		<polygon fill="#F9EC00" points="837.15,796.95 835.23,798 833.72,795.2 835.45,801.36 835.46,801.33 838,802.46 836.19,799.81 		
			"/>
	</g>
	<g>
		<polygon fill="#F9EC00" points="924.57,708.89 921.5,705.93 916.88,707.01 919.71,703.61 916.9,699.92 921.37,701.19 924,697.38 
			924.18,702.01 928.62,703.35 924.26,704.94 		"/>
		<polygon fill="#F9EC00" points="928.62,703.35 924.18,702.01 924.01,697.47 921.45,705.95 921.5,705.93 924.57,708.89 
			924.26,704.94 		"/>
		
			<radialGradient id="SVGID_40_" cx="1028.9224" cy="599.015" r="4.9687" gradientTransform="matrix(0.4539 -0.7591 -0.6215 -0.3716 829.024 1707.9509)" gradientUnits="userSpaceOnUse">
			<stop  offset="0" style="stop-color:#000000"/>
			<stop  offset="1" style="stop-color:#000000;stop-opacity:0"/>
		</radialGradient>
		<path opacity="0.57" fill="url(#SVGID_40_)" enable-background="new    " d="M926.08,700.43c1.64,0.99,1.94,3.52,0.66,5.66
			c-1.28,2.14-3.65,3.08-5.29,2.09s-1.94-3.52-0.66-5.66C922.06,700.38,924.44,699.45,926.08,700.43z"/>
		
			<radialGradient id="SVGID_41_" cx="890.7933" cy="327.2224" r="3.7918" gradientTransform="matrix(0.7941 -0.081 -0.1277 -1.2514 255.184 1185.1866)" gradientUnits="userSpaceOnUse">
			<stop  offset="0" style="stop-color:#000000"/>
			<stop  offset="1" style="stop-color:#000000;stop-opacity:0"/>
		</radialGradient>
		<path opacity="0.24" fill="url(#SVGID_41_)" enable-background="new    " d="M923.75,701.96c0.25,2.45-0.96,5.87-2.62,6.04
			c-1.66,0.17-3.21-1.68-3.45-4.14c-0.25-2.45,0.89-4.58,2.55-4.75C921.88,698.94,923.5,699.51,923.75,701.96z"/>
		<polygon fill="#F9EC00" points="923.51,709.1 921.4,705.89 918.15,707.36 920.39,703.81 919.08,700.12 921.75,701.31 
			923.93,697.35 923.6,701.84 926.62,702.05 923.38,704.67 		"/>
		<polygon fill="#F9EC00" points="926.62,702.05 923.6,701.84 923.92,697.45 921.36,705.92 921.4,705.89 923.51,709.1 
			923.38,704.67 		"/>
	</g>
	<g>
		<polygon fill="#F9EC00" points="1056.57,700.12 1052.44,699.06 1048.96,702.29 1049.74,697.94 1045.47,696.12 1049.98,695.02 
			1050.39,690.39 1052.83,694.34 1057.35,693.3 1054.35,696.84 		"/>
		<polygon fill="#F9EC00" points="1057.35,693.3 1052.83,694.34 1050.44,690.48 1052.41,699.1 1052.44,699.06 1056.57,700.12 
			1054.35,696.84 		"/>
		
			<radialGradient id="SVGID_42_" cx="1328.3163" cy="979.0576" r="4.9667" gradientTransform="matrix(0.0188 -0.8842 -0.724 -0.0154 1737.4681 1886.1031)" gradientUnits="userSpaceOnUse">
			<stop  offset="0" style="stop-color:#000000"/>
			<stop  offset="1" style="stop-color:#000000;stop-opacity:0"/>
		</radialGradient>
		<path opacity="0.57" fill="url(#SVGID_42_)" enable-background="new    " d="M1053.7,692.02c1.92,0.04,3.43,2.1,3.38,4.59
			c-0.05,2.49-1.65,4.48-3.57,4.43c-1.92-0.04-3.43-2.1-3.38-4.59C1050.18,693.97,1051.78,691.98,1053.7,692.02z"/>
		
			<radialGradient id="SVGID_43_" cx="977.293" cy="476.286" r="3.791" gradientTransform="matrix(0.65 -0.4634 -0.7301 -1.0242 763.1263 1638.0365)" gradientUnits="userSpaceOnUse">
			<stop  offset="0" style="stop-color:#000000"/>
			<stop  offset="1" style="stop-color:#000000;stop-opacity:0"/>
		</radialGradient>
		<path opacity="0.24" fill="url(#SVGID_43_)" enable-background="new    " d="M1052.44,694.51c1.43,2.01,2.06,5.58,0.71,6.54
			c-1.36,0.97-3.62,0.12-5.05-1.89c-1.43-2.01-1.5-4.42-0.14-5.39S1051,692.5,1052.44,694.51z"/>
		<polygon fill="#F9EC00" points="1055.76,700.83 1052.33,699.09 1050.24,701.96 1050.43,697.78 1047.46,695.21 1050.37,694.93 
			1050.3,690.41 1052.24,694.48 1054.97,693.16 1053.45,697.04 		"/>
		<polygon fill="#F9EC00" points="1054.97,693.16 1052.24,694.48 1050.34,690.49 1052.31,699.13 1052.33,699.09 1055.76,700.83 
			1053.45,697.04 		"/>
	</g>
	<g>
		
			<radialGradient id="SVGID_44_" cx="954.6396" cy="198.6778" r="47.8771" gradientTransform="matrix(0.6757 -0.2817 -0.2977 -0.7143 523.7604 1163.338)" gradientUnits="userSpaceOnUse">
			<stop  offset="0" style="stop-color:#000000"/>
			<stop  offset="1" style="stop-color:#000000;stop-opacity:0"/>
		</radialGradient>
		<path opacity="0.35" fill="url(#SVGID_44_)" enable-background="new    " d="M1142.89,738.65c7.6,18.24-1.11,39.22-19.46,46.87
			c-18.35,7.65-39.39-0.94-46.99-19.17s1.11-39.22,19.46-46.87C1114.25,711.83,1135.29,720.42,1142.89,738.65z"/>
		<g>
			<circle fill="#FACF00" cx="1083.27" cy="758.51" r="31.95"/>
			<path opacity="0.44" fill="#FACF00" enable-background="new    " d="M1083.27,726.56v63.89c17.64,0,31.95-14.3,31.95-31.95
				C1115.22,740.86,1100.91,726.56,1083.27,726.56z"/>
		</g>
		
			<radialGradient id="SVGID_45_" cx="976.1663" cy="198.5133" r="82.2055" gradientTransform="matrix(0.6757 -0.2817 -0.2977 -0.7143 555.0196 1238.3248)" gradientUnits="userSpaceOnUse">
			<stop  offset="0" style="stop-color:#000000"/>
			<stop  offset="1" style="stop-color:#000000;stop-opacity:0"/>
		</radialGradient>
		<path opacity="0.35" fill="url(#SVGID_45_)" enable-background="new    " d="M1212.56,797.76c13.05,31.31-1.91,67.34-33.41,80.47
			c-31.51,13.13-67.63-1.61-80.68-32.92c-13.05-31.31,1.91-67.34,33.41-80.47C1163.39,751.71,1199.51,766.45,1212.56,797.76z"/>
		<path fill="#ECECEC" d="M1182.16,769.04c-4.42,0-8.61,0.98-12.37,2.72c-8.03-15.52-24.22-26.14-42.89-26.14
			c-16.17,0-30.47,7.96-39.23,20.16c-3.05-0.89-6.26-1.38-9.59-1.38c-13.06,0-24.4,7.35-30.13,18.13c-1.68-0.56-3.47-0.88-5.33-0.88
			c-9.3,0-16.85,7.54-16.85,16.85c0,9.3,7.54,16.85,16.85,16.85c1.87,0,3.66-0.32,5.33-0.88c5.73,10.78,17.07,18.13,30.13,18.13
			c5.6,0,10.88-1.36,15.54-3.75c8.66,8.25,20.38,13.32,33.28,13.32c15.81,0,29.84-7.6,38.64-19.34c4.73,3.24,10.46,5.14,16.62,5.14
			c16.27,0,29.47-13.2,29.47-29.47C1211.63,782.24,1198.44,769.04,1182.16,769.04z"/>
		
			<radialGradient id="SVGID_46_" cx="1078.7971" cy="198.7382" r="49.0613" gradientTransform="matrix(0.7368 -0.3071 -0.2977 -0.7143 447.538 1281.1149)" gradientUnits="userSpaceOnUse">
			<stop  offset="0" style="stop-color:#000000"/>
			<stop  offset="1" style="stop-color:#000000;stop-opacity:0"/>
		</radialGradient>
		<path opacity="0.67" fill="url(#SVGID_46_)" enable-background="new    " d="M1220.36,792.38c7.79,18.69-2.52,40.77-23.02,49.31
			c-20.5,8.54-43.44,0.32-51.23-18.36c-7.79-18.69,2.52-40.77,23.02-49.31C1189.63,765.48,1212.57,773.7,1220.36,792.38z"/>
		
			<radialGradient id="SVGID_47_" cx="1067.7104" cy="198.7733" r="49.0563" gradientTransform="matrix(0.7368 -0.3071 -0.2977 -0.7143 441.9033 1267.5979)" gradientUnits="userSpaceOnUse">
			<stop  offset="0" style="stop-color:#000000"/>
			<stop  offset="1" style="stop-color:#000000;stop-opacity:0"/>
		</radialGradient>
		<path opacity="0.67" fill="url(#SVGID_47_)" enable-background="new    " d="M1206.54,782.25c7.79,18.69-2.52,40.77-23.02,49.31
			c-20.5,8.54-43.44,0.32-51.23-18.36c-7.79-18.69,2.52-40.77,23.02-49.31C1175.82,755.34,1198.75,763.56,1206.54,782.25z"/>
		
			<radialGradient id="SVGID_48_" cx="946.0791" cy="198.8275" r="49.0616" gradientTransform="matrix(0.7368 -0.3071 -0.2977 -0.7143 431.1772 1241.8673)" gradientUnits="userSpaceOnUse">
			<stop  offset="0" style="stop-color:#000000"/>
			<stop  offset="1" style="stop-color:#000000;stop-opacity:0"/>
		</radialGradient>
		<path opacity="0.67" fill="url(#SVGID_48_)" enable-background="new    " d="M1106.18,793.83c7.79,18.69-2.52,40.77-23.02,49.31
			c-20.5,8.54-43.44,0.33-51.23-18.36c-7.79-18.69,2.52-40.77,23.02-49.31C1075.46,766.92,1098.39,775.14,1106.18,793.83z"/>
		<path fill="#ECECEC" d="M1172.1,769.04c-3.64,0-7.09,0.98-10.19,2.72c-6.61-15.52-19.95-26.14-35.34-26.14
			c-13.32,0-25.1,7.96-32.32,20.16c-2.5-0.89-5.15-1.38-7.9-1.38c-10.76,0-20.1,7.35-24.82,18.13c-1.38-0.56-2.85-0.88-4.4-0.88
			c-7.67,0-13.88,7.54-13.88,16.85c0,9.3,6.21,16.85,13.88,16.85c1.54,0,3.01-0.32,4.4-0.88c4.72,10.78,14.06,18.13,24.82,18.13
			c4.61,0,8.96-1.36,12.8-3.75c7.14,8.25,16.78,13.32,27.42,13.32c13.02,0,24.58-7.6,31.83-19.34c3.9,3.24,8.61,5.14,13.69,5.14
			c13.41,0,24.28-13.2,24.28-29.47C1196.39,782.24,1185.52,769.04,1172.1,769.04z"/>
		
			<radialGradient id="SVGID_49_" cx="1052.1704" cy="198.7562" r="49.0612" gradientTransform="matrix(0.7368 -0.3071 -0.2977 -0.7143 444.1347 1272.9507)" gradientUnits="userSpaceOnUse">
			<stop  offset="0" style="stop-color:#000000"/>
			<stop  offset="1" style="stop-color:#000000;stop-opacity:0"/>
		</radialGradient>
		<path fill="url(#SVGID_49_)" d="M1197.33,792.38c7.79,18.69-2.52,40.77-23.02,49.31c-20.5,8.54-43.44,0.32-51.23-18.36
			c-7.79-18.69,2.52-40.77,23.02-49.31C1166.6,765.48,1189.54,773.7,1197.33,792.38z"/>
		
			<radialGradient id="SVGID_50_" cx="1008.5632" cy="244.0717" r="49.0699" gradientTransform="matrix(0.7368 -0.3071 -0.325 -0.7797 448.2865 1284.4901)" gradientUnits="userSpaceOnUse">
			<stop  offset="0" style="stop-color:#000000"/>
			<stop  offset="1" style="stop-color:#000000;stop-opacity:0"/>
		</radialGradient>
		<path opacity="0.67" fill="url(#SVGID_50_)" enable-background="new    " d="M1149.2,768.98c8.51,20.4-1.22,43.86-21.73,52.41
			c-20.5,8.54-44.02-1.06-52.52-21.46c-8.51-20.4,1.22-43.86,21.73-52.41C1117.18,738.98,1140.69,748.59,1149.2,768.98z"/>
		
			<radialGradient id="SVGID_51_" cx="985.5799" cy="198.8111" r="49.06" gradientTransform="matrix(0.7368 -0.3071 -0.2977 -0.7143 434.3088 1249.3796)" gradientUnits="userSpaceOnUse">
			<stop  offset="0" style="stop-color:#000000"/>
			<stop  offset="1" style="stop-color:#000000;stop-opacity:0"/>
		</radialGradient>
		<path opacity="0.67" fill="url(#SVGID_51_)" enable-background="new    " d="M1138.42,789.22c7.79,18.69-2.52,40.77-23.02,49.31
			c-20.5,8.54-43.44,0.32-51.23-18.36c-7.79-18.69,2.52-40.77,23.02-49.31C1107.7,762.32,1130.63,770.54,1138.42,789.22z"/>
		<g>
			<path fill="#ECECEC" d="M1162.09,769.04c-2.73,0-5.31,0.98-7.63,2.72c-4.95-15.52-14.93-26.14-26.45-26.14
				c-9.97,0-18.78,7.96-24.19,20.16c-1.87-0.89-3.86-1.38-5.91-1.38c-8.05,0-15.04,7.35-18.57,18.13c-1.03-0.56-2.14-0.88-3.29-0.88
				c-5.73,0-10.39,7.54-10.39,16.85c0,9.3,4.65,16.85,10.39,16.85c1.15,0,2.26-0.32,3.29-0.88c3.53,10.78,10.53,18.13,18.57,18.13
				c3.45,0,6.71-1.36,9.58-3.75c5.34,8.25,12.56,13.32,20.52,13.32c9.74,0,18.4-7.6,23.82-19.34c2.92,3.24,6.45,5.14,10.25,5.14
				c10.04,0,18.17-13.2,18.17-29.47C1180.27,782.24,1172.13,769.04,1162.09,769.04z"/>
			<path opacity="0.51" fill="#D6D6D6" enable-background="new    " d="M1162.09,769.04c-2.73,0-5.31,0.98-7.63,2.72
				c-4.93-15.46-14.86-26.05-26.32-26.13v96.54c9.69-0.06,18.29-7.64,23.7-19.33c2.92,3.24,6.45,5.14,10.25,5.14
				c10.04,0,18.17-13.2,18.17-29.47C1180.27,782.24,1172.13,769.04,1162.09,769.04z"/>
		</g>
	</g>
	<g>
		<polygon fill="#F79200" points="1131.47,896.73 1124.97,897.09 1121.38,903.39 1120.52,896.69 1113.46,896 1119.53,892.33 
			1118,885.41 1123.37,890.04 1129.48,886.45 1126.73,892.99 		"/>
		<polygon opacity="0.2" fill="#F79200" enable-background="new    " points="1129.48,886.45 1123.37,890.04 1118.12,885.51 
			1124.93,897.17 1124.97,897.09 1131.47,896.73 1126.73,892.99 		"/>
		
			<radialGradient id="SVGID_52_" cx="1341.9647" cy="1121.3462" r="7.5803" gradientTransform="matrix(-0.2473 -0.8492 -0.6953 0.2025 2237.0408 1805.3955)" gradientUnits="userSpaceOnUse">
			<stop  offset="0" style="stop-color:#000000"/>
			<stop  offset="1" style="stop-color:#000000;stop-opacity:0"/>
		</radialGradient>
		<path opacity="0.57" fill="url(#SVGID_52_)" enable-background="new    " d="M1123.58,886.26c2.81-0.82,5.95,1.48,7.02,5.13
			c1.06,3.65-0.35,7.28-3.17,8.1c-2.81,0.82-5.95-1.48-7.02-5.13C1119.35,890.71,1120.77,887.08,1123.58,886.26z"/>
		
			<radialGradient id="SVGID_53_" cx="1036.0831" cy="592.1894" r="5.7876" gradientTransform="matrix(0.4811 -0.637 -1.0038 -0.7581 1217.5386 2004.3564)" gradientUnits="userSpaceOnUse">
			<stop  offset="0" style="stop-color:#000000"/>
			<stop  offset="1" style="stop-color:#000000;stop-opacity:0"/>
		</radialGradient>
		<path opacity="0.24" fill="url(#SVGID_53_)" enable-background="new    " d="M1122.88,890.46c3.01,2.27,5.56,7.17,4.03,9.21
			c-1.54,2.03-5.21,1.84-8.22-0.44c-3.01-2.27-4.21-5.76-2.67-7.79C1117.55,889.41,1119.87,888.19,1122.88,890.46z"/>
		<polygon fill="#F79200" points="1130.62,898.14 1124.83,897.18 1123.09,902.32 1121.45,896.14 1115.96,893.76 1120.06,892.02 
			1117.89,885.47 1122.58,890.5 1125.95,887.33 1125.52,893.69 		"/>
		<polygon opacity="0.2" fill="#F79200" enable-background="new    " points="1125.95,887.33 1122.58,890.5 1117.99,885.58 
			1124.81,897.24 1124.83,897.18 1130.62,898.14 1125.52,893.69 		"/>
	</g>
	<g>
		<polygon fill="#F9EC00" points="1084.91,867.14 1079.92,861.23 1071.38,862.34 1077.11,856.73 1072.71,849.55 1080.53,852.67 
			1086,846.27 1085.45,854.66 1093.22,857.88 1085.07,859.96 		"/>
		<polygon fill="#F9EC00" points="1093.22,857.88 1085.45,854.66 1085.98,846.44 1079.82,861.26 1079.92,861.23 1084.91,867.14 
			1085.07,859.96 		"/>
		
			<radialGradient id="SVGID_54_" cx="870.5708" cy="540.4012" r="9.0051" gradientTransform="matrix(0.5282 -0.7094 -0.5808 -0.4325 938.3279 1710.0259)" gradientUnits="userSpaceOnUse">
			<stop  offset="0" style="stop-color:#000000"/>
			<stop  offset="1" style="stop-color:#000000;stop-opacity:0"/>
		</radialGradient>
		<path opacity="0.57" fill="url(#SVGID_54_)" enable-background="new    " d="M1089.18,852.16c2.79,2.08,2.86,6.7,0.17,10.32
			s-7.15,4.88-9.93,2.8c-2.79-2.08-2.86-6.7-0.17-10.32C1081.94,851.33,1086.39,850.08,1089.18,852.16z"/>
		
			<radialGradient id="SVGID_55_" cx="1032.6436" cy="295.514" r="6.8764" gradientTransform="matrix(0.7983 -5.000000e-04 -8.004986e-04 -1.2578 254.9228 1229.0184)" gradientUnits="userSpaceOnUse">
			<stop  offset="0" style="stop-color:#000000"/>
			<stop  offset="1" style="stop-color:#000000;stop-opacity:0"/>
		</radialGradient>
		<path opacity="0.24" fill="url(#SVGID_55_)" enable-background="new    " d="M1084.7,854.5c0,4.47-2.81,10.41-5.83,10.41
			s-5.47-3.63-5.47-8.1s2.44-8.1,5.47-8.1C1081.87,848.7,1084.7,850.02,1084.7,854.5z"/>
		<polygon fill="#F9EC00" points="1082.97,867.33 1079.73,861.15 1073.62,863.21 1078.3,857.22 1076.62,850.31 1081.21,852.95 
			1085.86,846.21 1084.45,854.25 1089.86,855.16 1083.53,859.32 		"/>
		<polygon fill="#F9EC00" points="1089.86,855.16 1084.45,854.25 1085.82,846.38 1079.66,861.19 1079.73,861.15 1082.97,867.33 
			1083.53,859.32 		"/>
	</g>
	<polygon fill="#F9EC00" points="1153.43,875.49 1148.8,875.28 1147.53,870.91 1147.12,879.76 1147.16,879.73 1150.87,881.85 
		1149.6,878.1 	"/>
	<g>
		<polygon fill="#F9EC00" points="1150.87,881.85 1147.16,879.73 1142.95,881.91 1144.86,877.92 1141.23,875.02 1145.87,875.17 
			1147.5,870.83 1148.8,875.28 1153.43,875.49 1149.6,878.1 		"/>
		
			<radialGradient id="SVGID_56_" cx="1004.6876" cy="782.9423" r="4.9714" gradientTransform="matrix(0.2546 -0.847 -0.6935 -0.2084 1436.1383 1891.7344)" gradientUnits="userSpaceOnUse">
			<stop  offset="0" style="stop-color:#000000"/>
			<stop  offset="1" style="stop-color:#000000;stop-opacity:0"/>
		</radialGradient>
		<path opacity="0.57" fill="url(#SVGID_56_)" enable-background="new    " d="M1150.26,873.28c1.84,0.55,2.75,2.94,2.03,5.32
			c-0.72,2.39-2.79,3.87-4.63,3.32c-1.84-0.55-2.75-2.94-2.03-5.32C1146.35,874.22,1148.42,872.72,1150.26,873.28z"/>
		
			<radialGradient id="SVGID_57_" cx="1009.6985" cy="381.5696" r="3.7898" gradientTransform="matrix(0.7502 -0.2727 -0.4297 -1.1822 552.3561 1604.0376)" gradientUnits="userSpaceOnUse">
			<stop  offset="0" style="stop-color:#000000"/>
			<stop  offset="1" style="stop-color:#000000;stop-opacity:0"/>
		</radialGradient>
		<path opacity="0.24" fill="url(#SVGID_57_)" enable-background="new    " d="M1148.38,875.34c0.84,2.32,0.5,5.93-1.06,6.5
			c-1.57,0.57-3.52-0.85-4.36-3.17c-0.84-2.32-0.25-4.66,1.31-5.23C1145.82,872.86,1147.53,873.02,1148.38,875.34z"/>
		<polygon fill="#F9EC00" points="1149.89,882.31 1147.06,879.72 1144.27,881.94 1145.57,877.95 1143.4,874.68 1146.28,875.19 
			1147.41,870.82 1148.2,875.25 1151.18,874.71 1148.67,878.06 		"/>
	</g>
	<polygon fill="#F9EC00" points="1151.18,874.71 1148.2,875.25 1147.43,870.91 1147.02,879.75 1147.06,879.72 1149.89,882.31 
		1148.67,878.06 	"/>
</g>
</svg>
