<?xml version="1.0" encoding="utf-8"?>
<!-- Generator: Adobe Illustrator 23.0.1, SVG Export Plug-In . SVG Version: 6.00 Build 0)  -->
<svg version="1.1" id="Layer_1" xmlns="http://www.w3.org/2000/svg" xmlns:xlink="http://www.w3.org/1999/xlink" x="0px" y="0px"
	 viewBox="0 0 1080 1080" style="enable-background:new 0 0 1080 1080;" xml:space="preserve">
<style type="text/css">
	.st0{fill:#F9EC00;}
	.st1{fill:#EEEEEE;}
	.st2{fill:#DE4740;}
	.st3{opacity:0.5;fill:#DE4740;enable-background:new    ;}
	.st4{clip-path:url(#SVGID_2_);fill:#BEBEBE;}
	.st5{clip-path:url(#SVGID_4_);fill:#DE4740;}
	.st6{clip-path:url(#SVGID_6_);fill:#F79200;}
	.st7{opacity:0.4;clip-path:url(#SVGID_8_);fill:#BEBEBE;enable-background:new    ;}
	.st8{opacity:0.4;clip-path:url(#SVGID_10_);fill:#BEBEBE;enable-background:new    ;}
	.st9{clip-path:url(#SVGID_12_);}
	.st10{opacity:0.4;fill:#BEBEBE;enable-background:new    ;}
	.st11{fill:#FFFFFF;}
	.st12{fill:#306979;}
	.st13{opacity:0.21;}
	.st14{fill:#EAEAEA;}
	.st15{fill:#B7B7B7;}
	.st16{fill:#FF9000;}
</style>
<g>
	<g>
		<polygon class="st0" points="546.1,114.1 539,121.6 546.9,170.6 554.2,121.6 549.8,113 		"/>
		<polygon class="st1" points="546.3,119.2 541.7,124 546.8,155.5 551.5,124 548.6,118.4 		"/>
		<g>
			<g>
				<rect x="539.1" y="117.9" class="st2" width="15.1" height="3.6"/>
				<rect x="551.9" y="117.9" class="st3" width="2.3" height="3.6"/>
				<rect x="539" y="117.9" class="st2" width="2.3" height="3.6"/>
			</g>
			<g>
				<g>
					<g>
						<defs>
							<polygon id="SVGID_1_" points="559.5,51.7 546.3,33 533.1,51.7 525.1,91.4 531.5,113.6 537,118.4 555.7,118.4 561.2,113.6 
								567.6,91.4 							"/>
						</defs>
						<clipPath id="SVGID_2_">
							<use xlink:href="#SVGID_1_"  style="overflow:visible;"/>
						</clipPath>
						<path class="st4" d="M559.5,51.7L546.3,33l-13.2,18.7l-8.1,39.7l6.4,22.2l5.5,4.8h18.7l5.5-4.8l6.5-22.3L559.5,51.7z"/>
					</g>
				</g>
				<g>
					<g>
						<defs>
							<polygon id="SVGID_3_" points="559.5,51.7 546.3,33 533.1,51.7 525.1,91.4 531.5,113.6 537,118.4 555.7,118.4 561.2,113.6 
								567.6,91.4 							"/>
						</defs>
						<clipPath id="SVGID_4_">
							<use xlink:href="#SVGID_3_"  style="overflow:visible;"/>
						</clipPath>
						<rect x="514.2" y="52" class="st5" width="63.8" height="39.8"/>
					</g>
				</g>
				<g>
					<g>
						<defs>
							<polygon id="SVGID_5_" points="559.5,51.7 546.3,33 533.1,51.7 525.1,91.4 531.5,113.6 537,118.4 555.7,118.4 561.2,113.6 
								567.6,91.4 							"/>
						</defs>
						<clipPath id="SVGID_6_">
							<use xlink:href="#SVGID_5_"  style="overflow:visible;"/>
						</clipPath>
						<rect x="514.2" y="107.3" class="st6" width="63.8" height="13.5"/>
					</g>
				</g>
				<g>
					<g>
						<defs>
							<polygon id="SVGID_7_" points="559.5,51.7 546.3,33 533.1,51.7 525.1,91.4 531.5,113.6 537,118.4 555.7,118.4 561.2,113.6 
								567.6,91.4 							"/>
						</defs>
						<clipPath id="SVGID_8_">
							<use xlink:href="#SVGID_7_"  style="overflow:visible;"/>
						</clipPath>
						<path class="st7" d="M551.4,118.4h4.3l5.5-4.8l6.5-22.3l-8.1-39.7L546.3,33l8,18.7l5.1,39.2l-3.6,22.3L551.4,118.4z"/>
					</g>
				</g>
				<g>
					<g>
						<defs>
							<polygon id="SVGID_9_" points="559.5,51.7 546.3,33 533.1,51.7 525.1,91.4 531.5,113.6 537,118.4 555.7,118.4 561.2,113.6 
								567.6,91.4 							"/>
						</defs>
						<clipPath id="SVGID_10_">
							<use xlink:href="#SVGID_9_"  style="overflow:visible;"/>
						</clipPath>
						<path class="st8" d="M541.3,118.4H537l-5.5-4.8L525,91.4l8.1-39.7L546.3,33l-8,18.7l-5.1,39.2l3.6,22.3L541.3,118.4z"/>
					</g>
				</g>
				<g>
					<g>
						<defs>
							<polygon id="SVGID_11_" points="559.5,51.7 546.3,33 533.1,51.7 525.1,91.4 531.5,113.6 537,118.4 555.7,118.4 561.2,113.6 
								567.6,91.4 							"/>
						</defs>
						<clipPath id="SVGID_12_">
							<use xlink:href="#SVGID_11_"  style="overflow:visible;"/>
						</clipPath>
						<g class="st9">
							<circle class="st10" cx="547.3" cy="73.6" r="8.3"/>
							<ellipse class="st11" cx="546.1" cy="72.1" rx="8.3" ry="8.3"/>
							<ellipse class="st12" cx="546.1" cy="72.1" rx="6.4" ry="6.4"/>
						</g>
					</g>
				</g>
			</g>
			<g>
				<polygon class="st2" points="567.1,93.4 577.5,105.8 575.8,129.5 572.6,129.6 568.8,110.5 560.5,104.6 564.9,93.6 				"/>
				<polygon class="st2" points="567.1,93.4 564.9,93.6 575.3,106.2 574.7,129.6 575.8,129.5 577.5,105.8 				"/>
			</g>
			<g>
				<polygon class="st2" points="525.5,93.4 515.1,105.8 516.8,129.5 520,129.6 523.8,110.5 532,104.6 527.7,93.6 				"/>
				<polygon class="st2" points="525.5,93.4 527.7,93.6 517.2,106.2 517.9,129.6 516.8,129.5 515.1,105.8 				"/>
			</g>
		</g>
	</g>
	<g class="st13">
		<g>
			<path class="st14" d="M309.3,322.6l-0.4-50l-0.1-12.5l0-12.5c0.1-8.3,0.2-16.7,0.5-25h0.1c0.3,8.3,0.4,16.7,0.5,25l0,12.5
				l-0.1,12.5L309.3,322.6L309.3,322.6z"/>
		</g>
		<g>
			<path class="st14" d="M811.5,488l-0.3-50l-0.1-12.5l0-12.5c0.1-8.3,0.2-16.7,0.5-25h0.1c0.3,8.3,0.4,16.7,0.5,25l0,12.5
				l-0.1,12.5l-0.3,50H811.5z"/>
		</g>
		<g>
			<path class="st14" d="M207.4,265l-0.4-50l-0.1-12.5l0-12.5c0.1-8.3,0.2-16.7,0.4-25h0.1c0.3,8.3,0.4,16.7,0.4,25l0,12.5
				l-0.1,12.5L207.4,265L207.4,265z"/>
		</g>
		<g>
			<path class="st14" d="M731.5,200l-0.3-50l-0.1-12.5l0-12.5c0.1-8.3,0.2-16.7,0.5-25h0.1c0.3,8.3,0.4,16.7,0.5,25l0,12.5
				l-0.1,12.5l-0.3,50H731.5z"/>
		</g>
		<g>
			<path class="st14" d="M253.4,488l-0.4-50l-0.1-12.5l0-12.5c0.1-8.3,0.2-16.7,0.4-25h0.1c0.3,8.3,0.4,16.7,0.4,25l0,12.5
				l-0.1,12.5L253.4,488L253.4,488z"/>
		</g>
		<g>
			<path class="st14" d="M48.5,899l-0.3-50L48,836.5l0-12.5c0.1-8.3,0.2-16.7,0.5-25h0.1c0.3,8.3,0.4,16.7,0.5,25l0,12.5L48.9,849
				l-0.3,50H48.5z"/>
		</g>
		<g>
			<path class="st14" d="M942.5,675l-0.3-50l-0.1-12.5l0-12.5c0.1-8.3,0.2-16.7,0.5-25h0.1c0.3,8.3,0.4,16.7,0.5,25l0,12.5
				l-0.1,12.5l-0.3,50H942.5z"/>
		</g>
		<g>
			<path class="st14" d="M128.4,625l-0.4-50l-0.1-12.5l0-12.5c0.1-8.3,0.2-16.7,0.4-25h0.1c0.3,8.3,0.4,16.7,0.4,25l0,12.5
				l-0.1,12.5L128.4,625L128.4,625z"/>
		</g>
		<g>
			<path class="st14" d="M841.5,775l-0.3-50l-0.1-12.5l0-12.5c0.1-8.3,0.2-16.7,0.5-25h0.1c0.3,8.3,0.4,16.7,0.5,25l0,12.5
				l-0.1,12.5l-0.3,50H841.5z"/>
		</g>
		<g>
			<path class="st14" d="M942.5,285l-0.3-50l-0.1-12.5l0-12.5c0.1-8.3,0.2-16.7,0.5-25h0.1c0.3,8.3,0.4,16.7,0.5,25l0,12.5
				l-0.1,12.5l-0.3,50H942.5z"/>
		</g>
		<g>
			<path class="st14" d="M226.4,725l-0.4-50l-0.1-12.5l0-12.5c0.1-8.3,0.2-16.7,0.4-25h0.1c0.3,8.3,0.4,16.7,0.4,25l0,12.5
				l-0.1,12.5L226.4,725L226.4,725z"/>
		</g>
	</g>
	<g>
		<path class="st14" d="M292.7,338.4v-42.9h11.2c1.8,0,3.6,0.1,5.2,0.4s3.1,0.8,4.4,1.6s2.3,1.9,3,3.4c0.7,1.5,1.1,3.4,1.1,5.8
			c0,1.7-0.3,3.2-0.8,4.4c-0.5,1.2-1.2,2.1-2.2,2.8c-0.9,0.7-2.1,1.2-3.4,1.4c1.7,0.2,3.1,0.8,4.2,1.6s2,2,2.6,3.5
			c0.6,1.5,0.9,3.2,0.9,5.3c0,2.2-0.3,4.1-0.9,5.8s-1.4,2.9-2.5,4c-1.1,1-2.5,1.8-4,2.3c-1.6,0.5-3.5,0.7-5.5,0.7H292.7z
			 M302.2,312.6h1.9c1.5,0,2.5-0.2,3.3-0.7c0.7-0.4,1.3-1.1,1.5-1.9c0.3-0.9,0.4-1.9,0.4-3.1c0-1.1-0.2-2.1-0.6-2.8
			c-0.4-0.8-1-1.3-1.8-1.7c-0.8-0.4-1.8-0.6-3-0.6h-1.6L302.2,312.6L302.2,312.6z M302.2,331.7h2c2.1,0,3.5-0.5,4.3-1.6
			s1.2-2.6,1.2-4.7c0-1.6-0.2-2.9-0.5-3.9c-0.4-1-0.9-1.6-1.8-2.1s-1.9-0.7-3.3-0.7h-2L302.2,331.7L302.2,331.7z"/>
		<path class="st14" d="M336.3,339c-3.3,0-5.9-0.5-7.7-1.6s-3.1-2.6-3.9-4.7c-0.7-2.1-1.1-4.6-1.1-7.6v-29.6h9.4v31.1
			c0,0.9,0.1,1.8,0.2,2.6c0.1,0.9,0.5,1.6,0.9,2.2c0.5,0.6,1.2,0.9,2.2,0.9c1,0,1.8-0.3,2.2-0.9c0.5-0.6,0.8-1.3,0.9-2.2
			s0.2-1.8,0.2-2.6v-31.1h9.4v29.6c0,3-0.4,5.5-1.1,7.6c-0.8,2.1-2.1,3.6-3.9,4.7C342.1,338.5,339.6,339,336.3,339z"/>
		<path class="st14" d="M360.5,338.4v-17.5l-8.2-25.4h9l4.1,13.6l3.7-13.6h8.6l-8,25.4v17.5L360.5,338.4L360.5,338.4z"/>
	</g>
	<g>
		<path class="st14" d="M746.1,389c-2.7,0-4.9-0.5-6.7-1.4s-3.2-2.4-4.1-4.4c-0.9-2-1.4-4.6-1.5-7.8l8.1-1.2c0,1.8,0.2,3.3,0.5,4.5
			s0.7,1.9,1.3,2.4c0.5,0.5,1.2,0.7,2,0.7c1,0,1.6-0.3,1.9-1s0.5-1.4,0.5-2.1c0-1.8-0.4-3.3-1.3-4.5c-0.8-1.2-2-2.5-3.4-3.7
			l-3.7-3.2c-1.6-1.4-3-2.9-4.1-4.7s-1.7-3.9-1.7-6.5c0-3.6,1.1-6.4,3.2-8.4c2.2-1.9,5.1-2.9,8.8-2.9c2.3,0,4.1,0.4,5.5,1.2
			c1.4,0.8,2.5,1.8,3.2,3c0.7,1.3,1.2,2.6,1.5,4c0.3,1.4,0.4,2.7,0.5,4l-8.2,1c0-1.3-0.1-2.4-0.2-3.3c-0.1-0.9-0.4-1.7-0.8-2.2
			s-1-0.8-1.8-0.8c-0.9,0-1.5,0.4-1.9,1.1c-0.4,0.7-0.6,1.5-0.6,2.2c0,1.6,0.4,2.9,1.1,3.9s1.8,2.1,3,3.1l3.5,3.1
			c1.9,1.6,3.5,3.4,4.7,5.4c1.3,2,1.9,4.5,1.9,7.5c0,2-0.5,3.8-1.4,5.5c-0.9,1.6-2.2,2.9-3.9,3.9C750.4,388.5,748.4,389,746.1,389z"
			/>
		<path class="st14" d="M761.1,388.4v-42.9h19.3v6.5h-9.8v10.6h7.5v6.6h-7.5v12.8h9.9v6.4H761.1z"/>
		<path class="st14" d="M784.8,388.4v-42.9h9.5v36.5h9.9v6.4H784.8z"/>
		<path class="st14" d="M807.9,388.4v-42.9h9.5v36.5h9.9v6.4H807.9z"/>
	</g>
	<g>
		<path class="st14" d="M110.1,626c-2.7,0-4.9-0.5-6.7-1.4s-3.2-2.4-4.1-4.4s-1.4-4.6-1.5-7.8l8.1-1.2c0,1.8,0.2,3.3,0.5,4.5
			s0.7,1.9,1.3,2.4c0.6,0.5,1.2,0.7,2,0.7c1,0,1.6-0.3,1.9-1c0.3-0.7,0.4-1.4,0.4-2.1c0-1.8-0.4-3.3-1.3-4.5s-2-2.5-3.4-3.7
			l-3.7-3.2c-1.6-1.4-3-2.9-4.1-4.7c-1.1-1.8-1.7-3.9-1.7-6.5c0-3.6,1.1-6.4,3.2-8.3c2.2-1.9,5.1-2.9,8.8-2.9c2.3,0,4.1,0.4,5.5,1.2
			c1.4,0.8,2.5,1.8,3.2,3c0.7,1.3,1.2,2.6,1.5,4c0.3,1.4,0.4,2.7,0.4,4l-8.2,1c0-1.3-0.1-2.4-0.2-3.3c-0.1-0.9-0.4-1.7-0.8-2.2
			s-1-0.8-1.8-0.8c-0.9,0-1.5,0.4-1.9,1.1c-0.4,0.7-0.6,1.5-0.6,2.2c0,1.6,0.4,2.9,1.1,3.9s1.8,2.1,3,3.2l3.6,3.1
			c1.9,1.6,3.4,3.4,4.7,5.4c1.3,2,1.9,4.5,1.9,7.5c0,2-0.5,3.8-1.4,5.5c-0.9,1.6-2.2,2.9-3.9,3.9C114.4,625.5,112.4,626,110.1,626z"
			/>
		<path class="st14" d="M123.5,625.4l8.1-42.9h10.8l8,42.9h-8.8l-1.4-9.1h-6.3l-1.5,9.1H123.5z M134.8,610.6h4.6l-2.3-16.8
			L134.8,610.6z"/>
		<path class="st14" d="M159,625.4l-7.7-42.9h8.1l4.6,29.2l4.3-29.2h8.6l-7.8,42.9H159z"/>
		<path class="st14" d="M181.1,625.4v-42.9h19.3v6.5h-9.8v10.7h7.5v6.6h-7.5V619h9.9v6.4H181.1z"/>
		<path class="st14" d="M218.3,625.4l0.7-42.9h10.2l4.7,25l5.1-25h9.8l0.7,42.9h-6.7l-0.8-28.6l-5,28.6h-6l-5.3-28.8l-0.6,28.8
			H218.3z"/>
		<path class="st14" d="M268,626c-3.2,0-5.8-0.6-7.6-1.7s-3.2-2.8-4-4.9s-1.2-4.7-1.2-7.6v-16c0-3,0.4-5.5,1.2-7.6
			c0.8-2.1,2.1-3.7,4-4.8c1.9-1.1,4.4-1.7,7.6-1.7c3.3,0,5.8,0.6,7.7,1.7c1.9,1.1,3.2,2.7,4,4.8c0.8,2.1,1.2,4.6,1.2,7.6v16
			c0,2.9-0.4,5.5-1.2,7.6s-2.2,3.8-4,4.9C273.8,625.4,271.3,626,268,626z M268,619.3c1,0,1.7-0.3,2.2-0.7c0.5-0.5,0.8-1.1,0.9-1.9
			c0.1-0.8,0.2-1.6,0.2-2.4v-20.7c0-0.8-0.1-1.7-0.2-2.4c-0.1-0.8-0.4-1.4-0.9-1.9c-0.5-0.5-1.2-0.7-2.2-0.7c-0.9,0-1.6,0.3-2.1,0.7
			c-0.5,0.5-0.8,1.1-0.9,1.9c-0.1,0.8-0.2,1.6-0.2,2.4v20.7c0,0.8,0.1,1.6,0.2,2.4c0.1,0.8,0.4,1.4,0.9,1.9
			C266.3,619,267,619.3,268,619.3z"/>
		<path class="st14" d="M286.8,625.4v-42.9h6.7l8.8,20.7v-20.7h7.8v42.9h-6.4l-8.8-22.3v22.3H286.8z"/>
		<path class="st14" d="M316.5,625.4v-42.9h19.3v6.5H326v10.7h7.5v6.6H326V619h9.9v6.4H316.5z"/>
		<path class="st14" d="M345.6,625.4v-17.5l-8.2-25.4h9l4.1,13.6l3.7-13.6h8.6l-8,25.4v17.5H345.6z"/>
	</g>
	<g>
		<path class="st14" d="M654.7,675.4v-42.9H674v6.5h-9.8v10.7h7.5v6.6h-7.5V669h9.9v6.4H654.7z"/>
		<path class="st14" d="M676.4,675.4l8.1-42.9h10.8l8,42.9h-8.8l-1.4-9.1h-6.3l-1.5,9.1H676.4z M687.7,660.6h4.6l-2.3-16.8
			L687.7,660.6z"/>
		<path class="st14" d="M707.2,675.4v-42.9H719c2.9,0,5.4,0.3,7.5,1c2.1,0.6,3.8,1.8,5,3.4c1.2,1.6,1.8,4,1.8,7
			c0,1.8-0.1,3.3-0.4,4.7c-0.3,1.4-0.8,2.6-1.6,3.6s-1.8,1.8-3.3,2.5l5.9,20.8h-9.8l-4.7-19.2h-2.7v19.2L707.2,675.4L707.2,675.4z
			 M716.7,650.7h2.7c1.3,0,2.4-0.2,3.1-0.7s1.3-1.2,1.6-2.1s0.5-2,0.5-3.3c0-1.8-0.3-3.3-1-4.3c-0.7-1-1.9-1.5-3.7-1.5h-3.1V650.7z"
			/>
		<path class="st14" d="M738.8,675.4v-42.9h6.7l8.8,20.7v-20.7h7.8v42.9h-6.4l-8.8-22.3v22.3H738.8z"/>
		<path class="st14" d="M781.9,675.4l0.7-42.9h10.2l4.7,25l5.1-25h9.8l0.7,42.9h-6.7l-0.8-28.6l-5,28.6h-6l-5.3-28.8l-0.6,28.8
			H781.9z"/>
		<path class="st14" d="M831.7,676c-3.2,0-5.8-0.6-7.6-1.7s-3.2-2.8-4-4.9c-0.8-2.1-1.2-4.7-1.2-7.6v-16c0-3,0.4-5.5,1.2-7.6
			c0.8-2.1,2.2-3.7,4-4.8c1.9-1.1,4.4-1.7,7.6-1.7c3.3,0,5.8,0.6,7.7,1.7s3.2,2.7,4,4.8c0.8,2.1,1.2,4.6,1.2,7.6v16
			c0,2.9-0.4,5.5-1.2,7.6s-2.2,3.8-4,4.9C837.5,675.4,835,676,831.7,676z M831.7,669.3c1,0,1.7-0.3,2.2-0.7c0.5-0.5,0.8-1.1,0.9-1.9
			c0.1-0.8,0.2-1.6,0.2-2.4v-20.7c0-0.8-0.1-1.7-0.2-2.4c-0.1-0.8-0.4-1.4-0.9-1.9c-0.5-0.5-1.2-0.7-2.2-0.7c-0.9,0-1.6,0.3-2.1,0.7
			s-0.8,1.1-0.9,1.9s-0.2,1.6-0.2,2.4v20.7c0,0.8,0.1,1.6,0.2,2.4c0.1,0.8,0.4,1.4,0.8,1.9C830,669,830.7,669.3,831.7,669.3z"/>
		<path class="st14" d="M850.5,675.4v-42.9h6.7l8.8,20.7v-20.7h7.8v42.9h-6.4l-8.8-22.3v22.3H850.5z"/>
		<path class="st14" d="M880.2,675.4v-42.9h19.3v6.5h-9.8v10.7h7.5v6.6h-7.5V669h9.9v6.4H880.2z"/>
		<path class="st14" d="M909.3,675.4v-17.5l-8.2-25.4h9l4.1,13.6l3.7-13.6h8.6l-8,25.4v17.5H909.3z"/>
	</g>
</g>
<g>
	<g>
		<path class="st15" d="M591.5,1080c-3.5-8.7-7.2-17.4-11.2-25.9c-4.9-10.3-10.7-21.1-21-26.7c-16-8.7-36.5-2-54.2-6.7
			c-36.7-9.8-45.4-61.7-81.3-73.7c-18-6-37.7,0-56.4,3.6c-18.7,3.6-41.1,3.7-53.5-10.4c-20.3-23,2-65.7-21.9-85.2
			c-11.4-9.3-28.7-8.3-42.8-3.3c-14.1,5-26.8,13.3-41.2,17.3c-14.4,4-32.2,2.5-41.3-9c-14.1-17.9,2.2-42.9,2.7-65.3
			c0.7-30.6-30.5-54.9-62.2-59.1c-27.6-3.6-59.2,4.9-85.5,14.4c-1.3,0.5-1.3,0.7-1.3,3.1V1080L591.5,1080"/>
	</g>
	<g>
		<path class="st16" d="M571.1,1080c-3.5-8.7-7.2-17.4-11.2-25.9c-4.9-10.3-10.7-21.1-21-26.7c-16-8.7-36.5-2-54.2-6.7
			c-36.7-9.8-45.4-61.7-81.3-73.7c-18-6-37.7,0-56.4,3.6c-18.7,3.6-41.1,3.7-53.5-10.4c-20.3-23,2-65.7-21.9-85.2
			c-11.4-9.3-28.7-8.3-42.8-3.3c-14.1,5-26.8,13.3-41.2,17.3c-14.4,4-32.2,2.5-41.3-9c-14.1-17.9,2.2-42.9,2.7-65.3
			c0.7-30.6-30.5-54.9-62.2-59.1C59.1,732,27.6,740.6,1.3,750C0,750.5,0,750.7,0,753.1V1080L571.1,1080"/>
	</g>
	<g>
		<path class="st15" d="M1062.4,782.7c-11.5-18.2-39-32.8-60.4-30c-21.3,2.7-40.4,18.6-47,39.1c-4.8,15-3.2,31.2-5,46.9
			c-1.8,15.7-8.5,32.6-23,38.7c-21.8,9.1-43.9-11.1-59.1-29.1c-15.2-18.1-37.5-38-59.2-28.7c-22.2,9.6-22.3,40.5-18.8,64.4
			c3.5,23.9,3.1,54.9-19.1,64.2c-17.6,7.4-36.9-4.6-52.7-15.2c-15.9-10.6-37.3-20.5-53-9.6c-15.8,10.9-14.4,35.1-26,50.4
			c-15.9,21-47.4,17.5-73.8,18.2c-59.9,1.6-117.5,33.9-143.3,88.1h640.3V782.7"/>
	</g>
	<g>
		<path class="st16" d="M1080,782.7c-11.5-18.2-39-32.8-60.4-30c-21.3,2.7-40.4,18.6-47,39.1c-4.8,15-3.2,31.2-5,46.9
			c-1.8,15.7-8.5,32.6-23,38.7c-21.8,9.1-43.9-11.1-59.1-29.1c-15.2-18.1-37.5-38-59.2-28.7c-22.2,9.6-22.3,40.5-18.8,64.4
			c3.5,23.9,3.1,54.9-19.1,64.2c-17.6,7.4-36.9-4.6-52.7-15.2c-15.9-10.6-37.3-20.5-53-9.6c-15.8,10.9-14.4,35.1-26,50.4
			c-15.9,21-47.4,17.5-73.8,18.2c-59.9,1.6-117.5,33.9-143.3,88.1H1080V782.7"/>
	</g>
</g>
</svg>
