<?xml version="1.0" encoding="utf-8"?>
<!-- Generator: Adobe Illustrator 23.0.1, SVG Export Plug-In . SVG Version: 6.00 Build 0)  -->
<svg version="1.0" xmlns="http://www.w3.org/2000/svg" xmlns:xlink="http://www.w3.org/1999/xlink" x="0px" y="0px"
	 viewBox="0 0 1920 1080" enable-background="new 0 0 1920 1080" xml:space="preserve">
<g id="Layer_1">
	<g>
		
			<radialGradient id="SVGID_1_" cx="963.2034" cy="539" r="962.276" gradientTransform="matrix(1.0016 0 0 0.5113 -3.2085 263.8873)" gradientUnits="userSpaceOnUse">
			<stop  offset="0" style="stop-color:#1E1E1E"/>
			<stop  offset="0.3665" style="stop-color:#181818"/>
			<stop  offset="1" style="stop-color:#141414"/>
		</radialGradient>
		<rect x="0" y="-1" fill="url(#SVGID_1_)" width="1923" height="1081"/>
	</g>
</g>
<g id="Layer_2">
	<g>
		<g>
			
				<radialGradient id="SVGID_2_" cx="523.1591" cy="263.3124" r="175.3822" gradientTransform="matrix(0.6757 -0.2817 0.2977 0.7143 221.4978 438.0807)" gradientUnits="userSpaceOnUse">
				<stop  offset="0" style="stop-color:#000000"/>
				<stop  offset="1" style="stop-color:#000000;stop-opacity:0"/>
			</radialGradient>
			<path opacity="0.44" fill="url(#SVGID_2_)" d="M775.09,428.06c27.84,66.79-4.07,143.65-71.28,171.67s-144.26-3.42-172.1-70.22
				c-27.84-66.79,4.07-143.65,71.28-171.67C670.19,329.82,747.25,361.26,775.09,428.06z"/>
			<path fill="#ECECEC" d="M666.78,395.76c-9.43,0-18.37,2.09-26.39,5.81c-17.12-33.11-51.66-55.75-91.5-55.75
				c-34.49,0-65,16.97-83.69,43c-6.49-1.9-13.35-2.94-20.46-2.94c-27.86,0-52.05,15.67-64.27,38.67c-3.58-1.2-7.4-1.87-11.38-1.87
				c-19.85,0-35.94,16.09-35.94,35.94c0,19.85,16.09,35.94,35.94,35.94c3.98,0,7.8-0.67,11.38-1.87
				c12.22,23,36.41,38.67,64.27,38.67c11.95,0,23.21-2.9,33.15-8c18.48,17.6,43.46,28.42,70.99,28.42
				c33.72,0,63.65-16.21,82.43-41.25c10.1,6.91,22.31,10.96,35.46,10.96c34.72,0,62.87-28.15,62.87-62.87
				S701.5,395.76,666.78,395.76z"/>
			
				<radialGradient id="SVGID_3_" cx="642.9233" cy="265.8138" r="104.6739" gradientTransform="matrix(0.7368 -0.3071 0.2977 0.7143 116.2101 486.1335)" gradientUnits="userSpaceOnUse">
				<stop  offset="0" style="stop-color:#000000"/>
				<stop  offset="1" style="stop-color:#000000;stop-opacity:0"/>
			</radialGradient>
			<path opacity="0.67" fill="url(#SVGID_3_)" d="M748.26,445.54c16.62,39.86-5.37,86.96-49.11,105.19
				c-43.74,18.23-92.66,0.7-109.28-39.17c-16.62-39.86,5.37-86.96,49.11-105.19S731.64,405.68,748.26,445.54z"/>
			
				<radialGradient id="SVGID_4_" cx="619.2605" cy="251.101" r="104.6739" gradientTransform="matrix(0.7368 -0.3071 0.2977 0.7143 108.5513 467.761)" gradientUnits="userSpaceOnUse">
				<stop  offset="0" style="stop-color:#000000"/>
				<stop  offset="1" style="stop-color:#000000;stop-opacity:0"/>
			</radialGradient>
			<path opacity="0.67" fill="url(#SVGID_4_)" d="M718.78,423.93c16.62,39.86-5.37,86.96-49.11,105.19
				c-43.74,18.23-92.66,0.7-109.28-39.17c-16.62-39.86,5.37-86.96,49.11-105.19C653.24,366.53,702.17,384.06,718.78,423.93z"/>
			
				<radialGradient id="SVGID_5_" cx="359.8058" cy="223.094" r="104.6739" gradientTransform="matrix(0.7368 -0.3071 0.2977 0.7143 93.9723 432.7876)" gradientUnits="userSpaceOnUse">
				<stop  offset="0" style="stop-color:#000000"/>
				<stop  offset="1" style="stop-color:#000000;stop-opacity:0"/>
			</radialGradient>
			<path opacity="0.67" fill="url(#SVGID_5_)" d="M504.7,448.63c16.62,39.86-5.37,86.96-49.11,105.19s-92.66,0.7-109.28-39.17
				s5.37-86.96,49.11-105.19C439.15,391.23,488.08,408.76,504.7,448.63z"/>
			<path fill="#ECECEC" d="M645.33,395.76c-7.77,0-15.13,2.09-21.74,5.81c-14.11-33.11-42.56-55.75-75.38-55.75
				c-28.41,0-53.54,16.97-68.94,43c-5.35-1.9-11-2.94-16.85-2.94c-22.95,0-42.88,15.67-52.94,38.67c-2.95-1.2-6.1-1.87-9.38-1.87
				c-16.35,0-29.61,16.09-29.61,35.94c0,19.85,13.26,35.94,29.61,35.94c3.28,0,6.43-0.67,9.38-1.87
				c10.07,23,29.99,38.67,52.94,38.67c9.84,0,19.12-2.9,27.31-8c15.22,17.6,35.8,28.42,58.48,28.42c27.78,0,52.43-16.21,67.91-41.25
				c8.32,6.91,18.38,10.96,29.22,10.96c28.6,0,51.79-28.15,51.79-62.87S673.93,395.76,645.33,395.76z"/>
			
				<radialGradient id="SVGID_6_" cx="586.121" cy="256.9274" r="104.6739" gradientTransform="matrix(0.7368 -0.3071 0.2977 0.7143 111.5843 475.0367)" gradientUnits="userSpaceOnUse">
				<stop  offset="0" style="stop-color:#000000"/>
				<stop  offset="1" style="stop-color:#000000;stop-opacity:0"/>
			</radialGradient>
			<path fill="url(#SVGID_6_)" d="M699.13,445.54c16.62,39.86-5.37,86.96-49.11,105.19c-43.74,18.23-92.67,0.7-109.28-39.17
				c-16.62-39.86,5.37-86.96,49.11-105.19C633.59,388.14,682.52,405.68,699.13,445.54z"/>
			
				<radialGradient id="SVGID_7_" cx="492.2666" cy="227.1979" r="104.6739" gradientTransform="matrix(0.7368 -0.3071 0.325 0.7797 80.7182 402.6645)" gradientUnits="userSpaceOnUse">
				<stop  offset="0" style="stop-color:#000000"/>
				<stop  offset="1" style="stop-color:#000000;stop-opacity:0"/>
			</radialGradient>
			<path opacity="0.67" fill="url(#SVGID_7_)" d="M596.45,395.63c18.14,43.52-2.61,93.57-46.35,111.8
				c-43.74,18.23-93.9-2.27-112.04-45.78c-18.14-43.52,2.61-93.57,46.35-111.8C528.15,331.62,578.32,352.11,596.45,395.63z"/>
			
				<radialGradient id="SVGID_8_" cx="444.065" cy="231.2709" r="104.6738" gradientTransform="matrix(0.7368 -0.3071 0.2977 0.7143 98.2288 442.9984)" gradientUnits="userSpaceOnUse">
				<stop  offset="0" style="stop-color:#000000"/>
				<stop  offset="1" style="stop-color:#000000;stop-opacity:0"/>
			</radialGradient>
			<path opacity="0.67" fill="url(#SVGID_8_)" d="M573.47,438.8c16.62,39.86-5.37,86.96-49.11,105.19
				c-43.74,18.23-92.66,0.7-109.28-39.17c-16.62-39.86,5.37-86.96,49.11-105.19S556.85,398.94,573.47,438.8z"/>
			<g>
				<path fill="#ECECEC" d="M623.97,395.76c-5.81,0-11.32,2.09-16.27,5.81c-10.56-33.11-31.85-55.75-56.42-55.75
					c-21.27,0-40.07,16.97-51.6,43c-4-1.9-8.23-2.94-12.61-2.94c-17.18,0-32.09,15.67-39.62,38.67c-2.21-1.2-4.56-1.87-7.02-1.87
					c-12.24,0-22.16,16.09-22.16,35.94c0,19.85,9.92,35.94,22.16,35.94c2.46,0,4.81-0.67,7.02-1.87c7.53,23,22.45,38.67,39.62,38.67
					c7.37,0,14.31-2.9,20.44-8c11.39,17.6,26.8,28.42,43.77,28.42c20.79,0,39.24-16.21,50.82-41.25
					c6.22,6.91,13.75,10.96,21.87,10.96c21.41,0,38.76-28.15,38.76-62.87S645.38,395.76,623.97,395.76z"/>
				<path opacity="0.51" fill="#D6D6D6" d="M623.97,395.76c-5.81,0-11.32,2.09-16.27,5.81c-10.52-32.98-31.69-55.58-56.15-55.74
					v205.94c20.68-0.14,39.02-16.3,50.55-41.24c6.22,6.91,13.75,10.96,21.87,10.96c21.41,0,38.76-28.15,38.76-62.87
					S645.38,395.76,623.97,395.76z"/>
			</g>
		</g>
		<g>
			
				<radialGradient id="SVGID_9_" cx="776.1655" cy="159.6778" r="126.1815" gradientTransform="matrix(0.6757 -0.2817 0.2977 0.7143 167.5507 308.6683)" gradientUnits="userSpaceOnUse">
				<stop  offset="0" style="stop-color:#000000"/>
				<stop  offset="1" style="stop-color:#000000;stop-opacity:0"/>
			</radialGradient>
			<path opacity="0.35" fill="url(#SVGID_9_)" d="M827.1,167.58c20.03,48.06-2.93,103.35-51.28,123.51
				c-48.35,20.16-103.79-2.46-123.82-50.52c-20.03-48.06,2.93-103.35,51.28-123.51C751.63,96.91,807.07,119.52,827.1,167.58z"/>
			<path fill="#ECECEC" d="M780.44,123.5c-6.78,0-13.21,1.5-18.99,4.18c-12.32-23.82-37.17-40.11-65.83-40.11
				c-24.81,0-46.76,12.21-60.21,30.94c-4.67-1.37-9.6-2.11-14.72-2.11c-20.04,0-37.45,11.27-46.24,27.82
				c-2.58-0.86-5.32-1.35-8.19-1.35c-14.28,0-25.86,11.58-25.86,25.86c0,14.28,11.58,25.86,25.86,25.86c2.87,0,5.61-0.48,8.19-1.35
				c8.79,16.55,26.19,27.82,46.24,27.82c8.59,0,16.7-2.09,23.85-5.76c13.29,12.66,31.27,20.45,51.07,20.45
				c24.26,0,45.79-11.66,59.31-29.68c7.26,4.97,16.05,7.89,25.52,7.89c24.98,0,45.23-20.25,45.23-45.23S805.42,123.5,780.44,123.5z"
				/>
			
				<radialGradient id="SVGID_10_" cx="916.0379" cy="158.0146" r="75.3093" gradientTransform="matrix(0.7368 -0.3071 0.2977 0.7143 60.0952 351.5206)" gradientUnits="userSpaceOnUse">
				<stop  offset="0" style="stop-color:#000000"/>
				<stop  offset="1" style="stop-color:#000000;stop-opacity:0"/>
			</radialGradient>
			<path opacity="0.67" fill="url(#SVGID_10_)" d="M839.06,159.32c11.95,28.68-3.86,62.56-35.33,75.68
				c-31.47,13.12-66.67,0.5-78.62-28.18c-11.95-28.68,3.86-62.56,35.33-75.68C791.9,118.02,827.1,130.64,839.06,159.32z"/>
			
				<radialGradient id="SVGID_11_" cx="899.0132" cy="147.4293" r="75.3093" gradientTransform="matrix(0.7368 -0.3071 0.2977 0.7143 54.585 338.3024)" gradientUnits="userSpaceOnUse">
				<stop  offset="0" style="stop-color:#000000"/>
				<stop  offset="1" style="stop-color:#000000;stop-opacity:0"/>
			</radialGradient>
			<path opacity="0.67" fill="url(#SVGID_11_)" d="M817.85,143.77c11.95,28.68-3.86,62.56-35.33,75.68
				c-31.47,13.12-66.67,0.5-78.62-28.18c-11.95-28.68,3.86-62.56,35.33-75.68C770.7,102.47,805.9,115.09,817.85,143.77z"/>
			
				<radialGradient id="SVGID_12_" cx="712.3445" cy="127.2793" r="75.3092" gradientTransform="matrix(0.7368 -0.3071 0.2977 0.7143 44.0958 313.1402)" gradientUnits="userSpaceOnUse">
				<stop  offset="0" style="stop-color:#000000"/>
				<stop  offset="1" style="stop-color:#000000;stop-opacity:0"/>
			</radialGradient>
			<path opacity="0.67" fill="url(#SVGID_12_)" d="M663.83,161.54c11.96,28.68-3.86,62.56-35.33,75.68
				c-31.47,13.12-66.67,0.5-78.62-28.18c-11.96-28.68,3.86-62.56,35.33-75.68S651.87,132.86,663.83,161.54z"/>
			<path fill="#ECECEC" d="M765.01,123.5c-5.59,0-10.89,1.5-15.64,4.18c-10.15-23.82-30.62-40.11-54.23-40.11
				c-20.44,0-38.52,12.21-49.6,30.94c-3.85-1.37-7.91-2.11-12.12-2.11c-16.51,0-30.85,11.27-38.09,27.82
				c-2.12-0.86-4.39-1.35-6.75-1.35c-11.76,0-21.3,11.58-21.3,25.86c0,14.28,9.54,25.86,21.3,25.86c2.36,0,4.62-0.48,6.75-1.35
				c7.24,16.55,21.58,27.82,38.09,27.82c7.08,0,13.76-2.09,19.65-5.76c10.95,12.66,25.76,20.45,42.07,20.45
				c19.98,0,37.72-11.66,48.86-29.68c5.98,4.97,13.22,7.89,21.02,7.89c20.58,0,37.26-20.25,37.26-45.23S785.58,123.5,765.01,123.5z"
				/>
			
				<radialGradient id="SVGID_13_" cx="875.1705" cy="151.6212" r="75.3093" gradientTransform="matrix(0.7368 -0.3071 0.2977 0.7143 56.767 343.5369)" gradientUnits="userSpaceOnUse">
				<stop  offset="0" style="stop-color:#000000"/>
				<stop  offset="1" style="stop-color:#000000;stop-opacity:0"/>
			</radialGradient>
			<path fill="url(#SVGID_13_)" d="M803.72,159.32c11.95,28.68-3.86,62.56-35.33,75.68c-31.47,13.12-66.67,0.5-78.62-28.18
				c-11.95-28.68,3.86-62.56,35.33-75.68C756.56,118.02,791.76,130.64,803.72,159.32z"/>
			
				<radialGradient id="SVGID_14_" cx="807.8649" cy="141.0712" r="75.3092" gradientTransform="matrix(0.7368 -0.3071 0.325 0.7797 31.7812 285.2585)" gradientUnits="userSpaceOnUse">
				<stop  offset="0" style="stop-color:#000000"/>
				<stop  offset="1" style="stop-color:#000000;stop-opacity:0"/>
			</radialGradient>
			<path opacity="0.67" fill="url(#SVGID_14_)" d="M729.84,123.41c13.05,31.31-1.88,67.32-33.35,80.44
				c-31.47,13.12-67.56-1.63-80.61-32.94c-13.05-31.31,1.88-67.32,33.35-80.44C680.7,77.35,716.79,92.1,729.84,123.41z"/>
			
				<radialGradient id="SVGID_15_" cx="772.9661" cy="133.1622" r="75.3092" gradientTransform="matrix(0.7368 -0.3071 0.2977 0.7143 47.1582 320.4865)" gradientUnits="userSpaceOnUse">
				<stop  offset="0" style="stop-color:#000000"/>
				<stop  offset="1" style="stop-color:#000000;stop-opacity:0"/>
			</radialGradient>
			<path opacity="0.67" fill="url(#SVGID_15_)" d="M713.31,154.47c11.96,28.68-3.86,62.56-35.33,75.68
				c-31.47,13.12-66.67,0.5-78.62-28.18c-11.96-28.68,3.86-62.56,35.33-75.68S701.35,125.79,713.31,154.47z"/>
			<g>
				<path fill="#ECECEC" d="M749.64,123.5c-4.18,0-8.15,1.5-11.71,4.18c-7.6-23.82-22.91-40.11-40.59-40.11
					c-15.3,0-28.83,12.21-37.12,30.94c-2.88-1.37-5.92-2.11-9.07-2.11c-12.36,0-23.09,11.27-28.51,27.82
					c-1.59-0.86-3.28-1.35-5.05-1.35c-8.8,0-15.94,11.58-15.94,25.86c0,14.28,7.14,25.86,15.94,25.86c1.77,0,3.46-0.48,5.05-1.35
					c5.42,16.55,16.15,27.82,28.51,27.82c5.3,0,10.29-2.09,14.71-5.76c8.2,12.66,19.28,20.45,31.49,20.45
					c14.96,0,28.23-11.66,36.57-29.68c4.48,4.97,9.89,7.89,15.73,7.89c15.4,0,27.89-20.25,27.89-45.23S765.04,123.5,749.64,123.5z"
					/>
				<path opacity="0.51" fill="#D6D6D6" d="M749.64,123.5c-4.18,0-8.15,1.5-11.71,4.18c-7.57-23.73-22.8-39.98-40.39-40.1v148.17
					c14.88-0.1,28.07-11.73,36.37-29.67c4.48,4.97,9.89,7.89,15.73,7.89c15.4,0,27.89-20.25,27.89-45.23S765.04,123.5,749.64,123.5z
					"/>
			</g>
		</g>
		
			<radialGradient id="SVGID_16_" cx="995.3243" cy="297.409" r="174.9816" gradientTransform="matrix(0.6757 -0.2817 0.2977 0.7143 239.2468 480.6584)" gradientUnits="userSpaceOnUse">
			<stop  offset="0" style="stop-color:#000000"/>
			<stop  offset="1" style="stop-color:#000000;stop-opacity:0"/>
		</radialGradient>
		<path opacity="0.54" fill="url(#SVGID_16_)" d="M1121.75,362.09c27.78,66.64-4.06,143.32-71.12,171.27
			c-67.05,27.95-143.93-3.41-171.71-70.05c-27.78-66.64,4.06-143.32,71.12-171.28S1093.98,295.45,1121.75,362.09z"/>
		
			<radialGradient id="SVGID_17_" cx="977.9619" cy="980.6555" r="723.8333" gradientTransform="matrix(1 0 0 0.7774 0 170.2003)" gradientUnits="userSpaceOnUse">
			<stop  offset="0" style="stop-color:#333333"/>
			<stop  offset="0.6476" style="stop-color:#0E0E0E"/>
			<stop  offset="1" style="stop-color:#000000"/>
		</radialGradient>
		<path opacity="0.48" fill="url(#SVGID_17_)" d="M1523.58,904.91c35.27-6.14,54.92-12.95,54.92-20.12
			c0-26.97-277.71-48.84-620.29-48.84s-620.29,21.87-620.29,48.84c0,7.8,23.25,15.17,64.52,21.71c-97.6,9.72-155.87,22-155.87,35.36
			c0,31.52,324.47,36.68,724.72,36.68S1696,973.37,1696,941.85C1696,927.76,1631.09,914.86,1523.58,904.91z"/>
		<path fill="#E1DEDF" d="M1341.29,932.33c0,0-41.16-10.15-136.49-2.5L1341.29,932.33z"/>
		<path fill="#E1DEDF" d="M746.6,901.36c0,0-41.8-7.06-136.3,7.67L746.6,901.36z"/>
		<ellipse fill="#5E2A0E" cx="965.61" cy="929.02" rx="94.78" ry="49.82"/>
		<g>
			<g>
				<path fill="#F7F5F6" d="M687.81,903.13l-207.91-21.49l177.34-148.49l267.03,21.49c0,0,42.3,87.43,40.51,138.48l-122.05,11.97
					L687.81,903.13z"/>
				<path fill="#ECECEC" d="M964.77,893.12c0,0-43.83-50.96-103.7-54.46c-167.15-9.77-381.18,42.98-381.18,42.98l-40.77,76.2
					l446.11-0.21C885.24,957.63,913.56,896.78,964.77,893.12z"/>
			</g>
			<g>
				<path fill="#F7F5F6" d="M1242.55,903.13l207.91-21.49l-177.34-148.49l-267.03,21.49c0,0-42.3,87.43-40.51,138.48l122.05,11.97
					L1242.55,903.13z"/>
				<path fill="#ECECEC" d="M965.59,893.12c0,0,43.83-50.96,103.7-54.46c167.15-9.77,381.18,42.98,381.18,42.98l40.77,76.2
					l-446.11-0.21C1045.12,957.63,1016.8,896.78,965.59,893.12z"/>
			</g>
		</g>
		
			<radialGradient id="SVGID_18_" cx="448.0845" cy="777.9773" r="220.8428" gradientTransform="matrix(0.7976 -0.0253 0.0151 0.2764 284.2473 604.5104)" gradientUnits="userSpaceOnUse">
			<stop  offset="0" style="stop-color:#000000"/>
			<stop  offset="0.919" style="stop-color:#000000;stop-opacity:0"/>
		</radialGradient>
		<path opacity="0.65" fill="url(#SVGID_18_)" d="M834.29,802.5c1.78,32.55-77.75,61.5-177.65,64.67
			c-99.89,3.16-182.32-20.66-184.1-53.21c-1.78-32.55,77.75-61.5,177.65-64.67C750.08,746.13,832.51,769.95,834.29,802.5z"/>
		
			<radialGradient id="SVGID_19_" cx="628.7791" cy="899.1206" r="240.1903" gradientTransform="matrix(0.7945 0.0586 -0.0215 0.1687 293.7319 625.514)" gradientUnits="userSpaceOnUse">
			<stop  offset="0" style="stop-color:#000000"/>
			<stop  offset="0.0891" style="stop-color:#070707;stop-opacity:0.9109"/>
			<stop  offset="0.2165" style="stop-color:#1A1A1A;stop-opacity:0.7835"/>
			<stop  offset="0.3669" style="stop-color:#383838;stop-opacity:0.6331"/>
			<stop  offset="0.5348" style="stop-color:#646464;stop-opacity:0.4652"/>
			<stop  offset="0.7174" style="stop-color:#9B9B9B;stop-opacity:0.2826"/>
			<stop  offset="0.9092" style="stop-color:#DDDDDD;stop-opacity:0.0908"/>
			<stop  offset="1" style="stop-color:#FFFFFF;stop-opacity:0"/>
		</radialGradient>
		<path opacity="0.65" fill="url(#SVGID_19_)" d="M965.61,875.1c-4.14,32.43-27.08-10.05-171.22-18.6
			c-99.68-5.91-222.75-19.88-218.62-52.31c4.14-32.43,138.22-54.27,237.74-46.94S969.75,842.68,965.61,875.1z"/>
		<path fill="#E1DEDF" d="M467.15,839.07c0,0,394.42-60.44,499.15,54.05l-14.52-104.03c0,0-62.68-86.02-203.33-81.37
			c-110.06,3.64-166.64,1.16-166.64,1.16L467.15,839.07z"/>
		
			<radialGradient id="SVGID_20_" cx="994.4632" cy="715.587" r="257.7877" gradientTransform="matrix(0.7847 -0.1279 0.0554 0.2412 278.8448 753.821)" gradientUnits="userSpaceOnUse">
			<stop  offset="0" style="stop-color:#000000"/>
			<stop  offset="0.0891" style="stop-color:#070707;stop-opacity:0.9109"/>
			<stop  offset="0.2165" style="stop-color:#1A1A1A;stop-opacity:0.7835"/>
			<stop  offset="0.3669" style="stop-color:#383838;stop-opacity:0.6331"/>
			<stop  offset="0.5348" style="stop-color:#646464;stop-opacity:0.4652"/>
			<stop  offset="0.7174" style="stop-color:#9B9B9B;stop-opacity:0.2826"/>
			<stop  offset="0.9092" style="stop-color:#DDDDDD;stop-opacity:0.0908"/>
			<stop  offset="1" style="stop-color:#FFFFFF;stop-opacity:0"/>
		</radialGradient>
		<path opacity="0.65" fill="url(#SVGID_20_)" d="M1311.41,771.85c8.33,36.25-113.1,79.21-211.39,95.23
			c-98.28,16.02-196.28,35.21-204.61-1.04c-8.33-36.25,76.15-114.22,174.43-130.24C1168.13,719.78,1303.07,735.59,1311.41,771.85z"
			/>
		
			<radialGradient id="SVGID_21_" cx="563.3164" cy="878.073" r="220.8474" gradientTransform="matrix(0.7753 0.1446 -0.0867 0.2687 336.9191 423.1227)" gradientUnits="userSpaceOnUse">
			<stop  offset="0" style="stop-color:#000000"/>
			<stop  offset="0.919" style="stop-color:#000000;stop-opacity:0"/>
		</radialGradient>
		<path opacity="0.65" fill="url(#SVGID_21_)" d="M873.37,773.29c-10.21,31.64-97.2,42.61-194.3,24.5
			c-97.1-18.11-167.54-58.44-157.34-90.08c10.21-31.64,97.2-42.61,194.3-24.5C813.14,701.32,883.58,741.65,873.37,773.29z"/>
		
			<radialGradient id="SVGID_22_" cx="885.4907" cy="1045.7518" r="185.5143" gradientTransform="matrix(0.6913 0.3035 -0.1819 0.2396 436.571 261.4392)" gradientUnits="userSpaceOnUse">
			<stop  offset="0" style="stop-color:#000000"/>
			<stop  offset="0.0891" style="stop-color:#070707;stop-opacity:0.9109"/>
			<stop  offset="0.2165" style="stop-color:#1A1A1A;stop-opacity:0.7835"/>
			<stop  offset="0.3669" style="stop-color:#383838;stop-opacity:0.6331"/>
			<stop  offset="0.5348" style="stop-color:#646464;stop-opacity:0.4652"/>
			<stop  offset="0.7174" style="stop-color:#9B9B9B;stop-opacity:0.2826"/>
			<stop  offset="0.9092" style="stop-color:#DDDDDD;stop-opacity:0.0908"/>
			<stop  offset="1" style="stop-color:#FFFFFF;stop-opacity:0"/>
		</radialGradient>
		<path opacity="0.65" fill="url(#SVGID_22_)" d="M990.15,838.56c-18,23.7-91.55,17.03-164.28-14.9
			c-72.73-31.93-117.11-77.02-99.11-100.72c18-23.7,91.55-17.03,164.28,14.9C963.77,769.77,1008.15,814.86,990.15,838.56z"/>
		
			<radialGradient id="SVGID_23_" cx="1213.0549" cy="807.7873" r="220.8431" gradientTransform="matrix(0.7983 0 0 0.2766 291.0325 564.119)" gradientUnits="userSpaceOnUse">
			<stop  offset="0" style="stop-color:#000000"/>
			<stop  offset="1" style="stop-color:#000000;stop-opacity:0"/>
		</radialGradient>
		<ellipse opacity="0.65" fill="url(#SVGID_23_)" cx="1259.41" cy="787.59" rx="181.03" ry="58.99"/>
		<path fill="#F7F5F6" d="M519.21,686.8c0,0,59.15,83.84,226.26,86.79c175.3,3.1,223.89,119.53,223.89,119.53l-14.52-104.03
			c0,0,19.18-76.93-126.89-108.1c-125.28-26.73-165.11-87.18-165.11-87.18L519.21,686.8z"/>
		<path fill="#ECECEC" d="M519.21,686.8c0,0,59.15,83.84,226.26,86.79c175.3,3.1,223.89,119.53,223.89,119.53l-14.52-104.03
			c0,0,19.18-76.93-126.89-108.1c-125.28-26.73-165.11-87.18-165.11-87.18L519.21,686.8z"/>
		<path fill="#E1DEDF" d="M1456.81,810.66c0,0-398.65-41.44-493.68,77.84l5.88-104.52c0,0,55.43-88.85,196.19-90.94
			c110.15-1.64,166.4-6.82,166.4-6.82L1456.81,810.66z"/>
		
			<radialGradient id="SVGID_24_" cx="1056.3273" cy="582.0367" r="289.8216" gradientTransform="matrix(0.7368 -0.2335 0.14 0.2554 271.883 834.2047)" gradientUnits="userSpaceOnUse">
			<stop  offset="0" style="stop-color:#000000"/>
			<stop  offset="0.0891" style="stop-color:#070707;stop-opacity:0.9109"/>
			<stop  offset="0.2165" style="stop-color:#1A1A1A;stop-opacity:0.7835"/>
			<stop  offset="0.3669" style="stop-color:#383838;stop-opacity:0.6331"/>
			<stop  offset="0.5348" style="stop-color:#646464;stop-opacity:0.4652"/>
			<stop  offset="0.7174" style="stop-color:#9B9B9B;stop-opacity:0.2826"/>
			<stop  offset="0.9092" style="stop-color:#DDDDDD;stop-opacity:0.0908"/>
			<stop  offset="1" style="stop-color:#FFFFFF;stop-opacity:0"/>
		</radialGradient>
		<path opacity="0.49" fill="url(#SVGID_24_)" d="M1350.95,666.68c21.63,39.46-59,102.57-180.1,140.95
			c-121.1,38.38-236.81,37.51-258.44-1.95c-21.63-39.46,59-102.56,180.1-140.95C1213.61,626.35,1329.32,627.22,1350.95,666.68z"/>
		
			<radialGradient id="SVGID_25_" cx="1192.0084" cy="592.3978" r="289.8217" gradientTransform="matrix(0.7368 -0.2335 0.14 0.2554 274.4192 838.8303)" gradientUnits="userSpaceOnUse">
			<stop  offset="0" style="stop-color:#000000"/>
			<stop  offset="0.919" style="stop-color:#000000;stop-opacity:0"/>
		</radialGradient>
		<path opacity="0.49" fill="url(#SVGID_25_)" d="M1454.91,642.27c21.63,39.46-59,102.56-180.1,140.95
			c-121.1,38.38-236.81,37.51-258.44-1.95c-21.63-39.46,59-102.57,180.1-140.95C1317.57,601.94,1433.28,602.81,1454.91,642.27z"/>
		<path fill="#F1F1F1" d="M1368.39,649.51c0,0-57.27,76.58-214.43,105.32C996.67,783.59,963.13,888.5,963.13,888.5l5.88-104.52
			c0,0-0.72-64.02,117.69-113.96c95.66-40.35,157.56-94.91,157.56-94.91L1368.39,649.51z"/>
		
			<radialGradient id="SVGID_26_" cx="1153.3331" cy="498.623" r="236.1098" gradientTransform="matrix(0.6913 -0.3035 0.1819 0.2396 286.4699 919.0873)" gradientUnits="userSpaceOnUse">
			<stop  offset="0" style="stop-color:#000000"/>
			<stop  offset="0.919" style="stop-color:#000000;stop-opacity:0"/>
		</radialGradient>
		<path opacity="0.49" fill="url(#SVGID_26_)" d="M1342.1,614.94c22.9,30.16-33.57,87.56-126.14,128.19
			c-92.57,40.64-186.18,49.13-209.08,18.96c-22.9-30.16,33.57-87.56,126.14-128.19C1225.58,593.27,1319.19,584.78,1342.1,614.94z"/>
		<path fill="#F7F5F6" d="M1325.36,609.95c0,0-2.01,59.41-193.68,104.5c-143.43,33.74-169.69,175.74-169.69,175.74L954,777.88
			c0,0-9.1-68.53,99.68-129.11c87.88-48.94,141.02-111.09,141.02-111.09L1325.36,609.95z"/>
		<g>
			<path fill="#F79200" d="M1046.79,956.1c0,0-17.91-65.63-73.81-67.54c-6.15-0.21-11.98,0.3-17.47,1.4
				c-37.23,7.47-61.75,40.65-66.1,64l10.7,6.37c0,0,18.97-67.93,71.87-61.24c52.9,6.7,63.88,59.32,63.88,59.32L1046.79,956.1z"/>
			<g>
				<polygon fill="#DE4740" points="1040.12,946.16 1055.02,962.03 1516.91,962.03 1506.98,942.99 				"/>
				<polygon fill="#DE4740" points="897.08,946.16 882.18,962.03 420.29,962.03 430.22,942.99 				"/>
				<path fill="#DE4740" d="M1085.29,951.49l-30.26,10.54c0,0-76.82,59.07-173.94-0.74l15.99-15.13c0,0,40.43,24.38,82.22,22.43
					c41.79-1.95,60.83-22.43,60.83-22.43L1085.29,951.49z"/>
			</g>
		</g>
		<path fill="#E1DEDF" d="M1222.91,912.76c0,0-48.1-11.37-159.51-2.8L1222.91,912.76z"/>
		
			<radialGradient id="SVGID_27_" cx="704.5234" cy="310.0236" r="95.9972" gradientTransform="matrix(-0.0978 -0.5296 0.661 -0.1221 1092.0734 1351.8285)" gradientUnits="userSpaceOnUse">
			<stop  offset="0" style="stop-color:#000000"/>
			<stop  offset="0.919" style="stop-color:#000000;stop-opacity:0"/>
		</radialGradient>
		<path opacity="0.35" fill="url(#SVGID_27_)" d="M1218.44,888.66c33.83-6.25,65.58,12.06,70.9,40.89
			c5.33,28.83-17.79,57.27-51.62,63.52c-33.83,6.25-65.58-12.06-70.9-40.89C1161.5,923.35,1184.61,894.91,1218.44,888.66z"/>
		<path fill="#E1DEDF" d="M885.05,917.16c0,0-48.1-11.37-159.51-2.8L885.05,917.16z"/>
		<path fill="#F79200" d="M1150.42,886.79c0,0,41.64-2.43,62.86,28.08c21.22,30.51,27.32,93.95,69.75,127
			c42.44,33.05,92.83,38.13,92.83,38.13l-34.48-40.68l74.26,27.97c0,0-45.09-33.05-82.22-63.56
			c-37.13-30.51-41.65-98.04-68.17-113.29C1238.74,875.19,1150.42,886.79,1150.42,886.79z"/>
		<path fill="#E1DEDF" d="M1294.82,892.39c0,0-56.49-18.18-156.26-5.02L1294.82,892.39z"/>
		<g>
			<polygon fill="#F79200" points="875.09,612.09 841.13,604.61 813.64,631.85 818.81,596.15 783.53,582.51 819.96,572.32 
				822.04,534.55 842.99,566.05 879.55,556.35 856.07,586.01 			"/>
			<polygon opacity="0.2" fill="#F79200" points="879.55,556.35 842.99,566.05 822.48,535.2 840.84,604.96 841.13,604.61 
				875.09,612.09 856.07,586.01 			"/>
			
				<radialGradient id="SVGID_28_" cx="1450.0846" cy="54.1501" r="40.4918" gradientTransform="matrix(-0.0104 -0.8844 0.7241 -8.478008e-03 825.7908 1866.597)" gradientUnits="userSpaceOnUse">
				<stop  offset="0" style="stop-color:#000000"/>
				<stop  offset="0.9944" style="stop-color:#000000;stop-opacity:0"/>
			</radialGradient>
			<path opacity="0.57" fill="url(#SVGID_28_)" d="M849.49,546.91c15.63-0.18,28.5,16.13,28.74,36.44
				c0.24,20.31-12.24,36.92-27.88,37.1c-15.63,0.18-28.5-16.13-28.74-36.44C821.37,563.71,833.85,547.09,849.49,546.91z"/>
			
				<radialGradient id="SVGID_29_" cx="879.0049" cy="310.4393" r="30.9043" gradientTransform="matrix(0.6344 -0.4846 0.7636 0.9996 31.2611 706.8243)" gradientUnits="userSpaceOnUse">
				<stop  offset="0" style="stop-color:#000000"/>
				<stop  offset="0.9944" style="stop-color:#000000;stop-opacity:0"/>
			</radialGradient>
			<path opacity="0.24" fill="url(#SVGID_29_)" d="M839.85,567.5c12.21,15.99,18.34,44.88,7.55,53.12
				c-10.79,8.24-29.44,1.97-41.65-14.02c-12.21-15.99-13.37-35.63-2.57-43.88C813.96,554.49,827.64,551.52,839.85,567.5z"/>
			<polygon fill="#F79200" points="868.66,618.08 840.26,604.84 823.99,628.83 824.4,594.68 799.54,574.56 823.16,571.48 
				821.38,534.72 838.26,567.29 860.14,555.81 848.82,587.91 			"/>
			<polygon opacity="0.2" fill="#F79200" points="860.14,555.81 838.26,567.29 821.73,535.4 840.09,605.16 840.26,604.84 
				868.66,618.08 848.82,587.91 			"/>
		</g>
		<g>
			<polygon fill="#F79200" points="1126.86,153.74 1107.66,135.71 1079.21,142.78 1096.41,121.55 1078.74,98.99 1106.4,106.49 
				1122.4,82.71 1123.82,111.33 1151.38,119.2 1124.59,129.39 			"/>
			<polygon opacity="0.2" fill="#F79200" points="1151.38,119.2 1123.82,111.33 1122.43,83.3 1107.33,135.83 1107.66,135.71 
				1126.86,153.74 1124.59,129.39 			"/>
			
				<radialGradient id="SVGID_30_" cx="1683.3885" cy="125.14" r="30.6765" gradientTransform="matrix(0.4437 -0.7651 0.6264 0.3633 296.1836 1367.9951)" gradientUnits="userSpaceOnUse">
				<stop  offset="0" style="stop-color:#000000"/>
				<stop  offset="1" style="stop-color:#000000;stop-opacity:0"/>
			</radialGradient>
			<path opacity="0.57" fill="url(#SVGID_30_)" d="M1135.47,101.39c10.25,5.94,12.3,21.55,4.58,34.86
				c-7.72,13.31-22.28,19.28-32.53,13.34c-10.25-5.94-12.3-21.55-4.58-34.86C1110.66,101.43,1125.22,95.45,1135.47,101.39z"/>
			
				<radialGradient id="SVGID_31_" cx="1182.9913" cy="287.8793" r="23.4134" gradientTransform="matrix(0.793 -0.0917 0.1445 1.2495 123.2868 -130.1609)" gradientUnits="userSpaceOnUse">
				<stop  offset="0" style="stop-color:#000000"/>
				<stop  offset="1" style="stop-color:#000000;stop-opacity:0"/>
			</radialGradient>
			<path opacity="0.24" fill="url(#SVGID_31_)" d="M1121.21,111.06c1.75,15.14-5.46,36.32-15.68,37.5
				c-10.22,1.18-19.92-10.14-21.67-25.28c-1.75-15.14,5.12-28.37,15.34-29.55C1109.41,92.55,1119.46,95.92,1121.21,111.06z"/>
			<polygon fill="#F79200" points="1120.35,155.15 1107,135.52 1087.11,144.82 1100.62,122.76 1092.24,100.02 1108.81,107.18 
				1121.9,82.56 1120.26,110.31 1138.95,111.32 1119.14,127.82 			"/>
			<polygon opacity="0.2" fill="#F79200" points="1138.95,111.32 1120.26,110.31 1121.87,83.14 1106.77,135.66 1107,135.52 
				1120.35,155.15 1119.14,127.82 			"/>
		</g>
		<g>
			<polygon fill="#F79200" points="511.91,296.72 499.19,283.55 479.2,287.49 491.87,273.34 480.37,257.07 499.32,263.22 
				511.23,247.25 511.24,267.17 530.11,273.57 511.17,279.74 			"/>
			<polygon opacity="0.2" fill="#F79200" points="530.11,273.57 511.24,267.17 511.23,247.67 498.96,283.62 499.19,283.55 
				511.91,296.72 511.17,279.74 			"/>
			
				<radialGradient id="SVGID_32_" cx="1183.9032" cy="-117.1902" r="21.3228" gradientTransform="matrix(0.4807 -0.7424 0.6079 0.3936 11.2806 1201.978)" gradientUnits="userSpaceOnUse">
				<stop  offset="0" style="stop-color:#000000"/>
				<stop  offset="1" style="stop-color:#000000;stop-opacity:0"/>
			</radialGradient>
			<path opacity="0.57" fill="url(#SVGID_32_)" d="M519.67,260.67c6.91,4.47,7.8,15.38,1.99,24.36
				c-5.81,8.98-16.13,12.63-23.04,8.15c-6.91-4.47-7.8-15.38-1.99-24.36C502.45,259.85,512.76,256.2,519.67,260.67z"/>
			
				<radialGradient id="SVGID_33_" cx="375.1669" cy="307.6411" r="16.2753" gradientTransform="matrix(0.7965 -0.0527 0.083 1.2551 172.0817 -93.1231)" gradientUnits="userSpaceOnUse">
				<stop  offset="0" style="stop-color:#000000"/>
				<stop  offset="1" style="stop-color:#000000;stop-opacity:0"/>
			</radialGradient>
			<path opacity="0.24" fill="url(#SVGID_33_)" d="M509.44,266.9c0.7,10.57-5.03,25.03-12.17,25.5
				c-7.14,0.47-13.49-7.72-14.19-18.29c-0.7-10.57,4.52-19.52,11.65-20C501.88,253.64,508.74,256.33,509.44,266.9z"/>
			<polygon fill="#F79200" points="507.34,297.48 498.74,283.39 484.62,289.17 494.75,274.32 489.71,258.25 500.97,263.78 
				510.89,247.13 508.81,266.34 521.75,267.68 507.43,278.46 			"/>
			<polygon opacity="0.2" fill="#F79200" points="521.75,267.68 508.81,266.34 510.85,247.53 498.58,283.49 498.74,283.39 
				507.34,297.48 507.43,278.46 			"/>
		</g>
		<g>
			<polygon fill="#F9EC00" points="489.4,643.01 475.12,626.62 451.17,630.07 467.06,614.06 454.42,594.07 476.51,602.52 
				491.62,584.31 490.41,607.94 512.39,616.68 489.55,622.83 			"/>
			<polygon fill="#F9EC00" points="512.39,616.68 490.41,607.94 491.59,584.8 474.85,626.69 475.12,626.62 489.4,643.01 
				489.55,622.83 			"/>
			
				<radialGradient id="SVGID_34_" cx="789.6824" cy="-39.3847" r="25.3184" gradientTransform="matrix(0.5182 -0.7167 0.5868 0.4243 101.2284 1202.0514)" gradientUnits="userSpaceOnUse">
				<stop  offset="0" style="stop-color:#000000"/>
				<stop  offset="0.9944" style="stop-color:#000000;stop-opacity:0"/>
			</radialGradient>
			<path opacity="0.57" fill="url(#SVGID_34_)" d="M500.8,600.74c7.92,5.73,8.31,18.71,0.87,29c-7.44,10.29-19.89,13.99-27.82,8.26
				c-7.92-5.73-8.31-18.71-0.87-29C480.42,598.71,492.88,595.02,500.8,600.74z"/>
			
				<radialGradient id="SVGID_35_" cx="266.4497" cy="414.9522" r="19.3234" gradientTransform="matrix(0.7982 -0.0117 0.0184 1.2577 252.1755 95.4356)" gradientUnits="userSpaceOnUse">
				<stop  offset="0" style="stop-color:#000000"/>
				<stop  offset="0.9944" style="stop-color:#000000;stop-opacity:0"/>
			</radialGradient>
			<path opacity="0.24" fill="url(#SVGID_35_)" d="M488.29,607.5c0.18,12.58-7.49,29.37-15.98,29.5
				c-8.49,0.12-15.52-9.97-15.71-22.55c-0.18-12.58,6.55-22.88,15.04-23C480.13,591.32,488.11,594.92,488.29,607.5z"/>
			<polygon fill="#F9EC00" points="483.94,643.63 474.6,626.41 457.5,632.4 470.41,615.4 465.42,596.04 478.43,603.29 
				491.22,584.16 487.57,606.8 502.84,609.18 485.2,621.09 			"/>
			<polygon fill="#F9EC00" points="502.84,609.18 487.57,606.8 491.14,584.63 474.4,626.51 474.6,626.41 483.94,643.63 
				485.2,621.09 			"/>
		</g>
		<g>
			<polygon fill="#F9EC00" points="760.93,318.15 739.54,314.28 723,331.94 725.4,309.51 703.04,301.81 725.56,294.6 725.98,270.94 
				739.8,290.14 762.42,283.22 748.44,302.3 			"/>
			<polygon fill="#F9EC00" points="762.42,283.22 739.8,290.14 726.27,271.34 739.37,314.5 739.54,314.28 760.93,318.15 
				748.44,302.3 			"/>
			
				<radialGradient id="SVGID_36_" cx="1787.5508" cy="-10.0337" r="25.3171" gradientTransform="matrix(-0.0434 -0.8834 0.7233 -0.0355 829.3823 1879.7601)" gradientUnits="userSpaceOnUse">
				<stop  offset="0" style="stop-color:#000000"/>
				<stop  offset="1" style="stop-color:#000000;stop-opacity:0"/>
			</radialGradient>
			<path opacity="0.57" fill="url(#SVGID_36_)" d="M743.42,278.03c9.76-0.48,18.18,9.41,18.81,22.1
				c0.62,12.68-6.79,23.35-16.55,23.83c-9.76,0.48-18.18-9.41-18.81-22.1C726.24,289.18,733.65,278.51,743.42,278.03z"/>
			
				<radialGradient id="SVGID_37_" cx="985.7065" cy="220.4704" r="19.3233" gradientTransform="matrix(0.6158 -0.508 0.8004 0.9703 -53.7284 593.0496)" gradientUnits="userSpaceOnUse">
				<stop  offset="0" style="stop-color:#000000"/>
				<stop  offset="1" style="stop-color:#000000;stop-opacity:0"/>
			</radialGradient>
			<path opacity="0.24" fill="url(#SVGID_37_)" d="M737.87,291.12c8,9.7,12.51,27.61,5.96,33.02c-6.55,5.4-18.35,1.92-26.35-7.79
				c-8-9.7-9.18-21.95-2.63-27.35C721.4,283.59,729.87,281.42,737.87,291.12z"/>
			<polygon fill="#F9EC00" points="757.06,322.05 739,314.44 729.4,329.81 728.86,308.46 712.86,296.47 727.54,293.99 
				725.57,271.07 736.88,291.03 750.28,283.34 743.96,303.66 			"/>
			<polygon fill="#F9EC00" points="750.28,283.34 736.88,291.03 725.8,271.48 738.91,314.64 739,314.44 757.06,322.05 
				743.96,303.66 			"/>
		</g>
		<g>
			<polygon fill="#F9EC00" points="598.43,313.5 589.93,311.78 583.19,318.69 584.33,309.77 575.47,306.51 584.52,303.82 
				584.87,294.39 590.23,302.16 599.31,299.58 593.57,307.08 			"/>
			<polygon fill="#F9EC00" points="599.31,299.58 590.23,302.16 584.98,294.55 589.86,311.87 589.93,311.78 598.43,313.5 
				593.57,307.08 			"/>
			
				<radialGradient id="SVGID_38_" cx="1738.2615" cy="-87.8836" r="10.0975" gradientTransform="matrix(-0.0255 -0.8841 0.7238 -0.0208 699.9709 1841.4894)" gradientUnits="userSpaceOnUse">
				<stop  offset="0" style="stop-color:#000000"/>
				<stop  offset="1" style="stop-color:#000000;stop-opacity:0"/>
			</radialGradient>
			<path opacity="0.57" fill="url(#SVGID_38_)" d="M591.77,297.36c3.9-0.11,7.18,3.9,7.32,8.96c0.15,5.06-2.9,9.26-6.79,9.37
				c-3.9,0.11-7.18-3.9-7.32-8.96C584.83,301.67,587.87,297.47,591.77,297.36z"/>
			
				<radialGradient id="SVGID_39_" cx="808.7419" cy="204.336" r="7.7073" gradientTransform="matrix(0.626 -0.4953 0.7805 0.9864 -79.6753 507.5085)" gradientUnits="userSpaceOnUse">
				<stop  offset="0" style="stop-color:#000000"/>
				<stop  offset="1" style="stop-color:#000000;stop-opacity:0"/>
			</radialGradient>
			<path opacity="0.24" fill="url(#SVGID_39_)" d="M589.45,302.53c3.11,3.93,4.76,11.11,2.11,13.21c-2.66,2.1-7.33,0.62-10.45-3.32
				c-3.11-3.93-3.48-8.83-0.83-10.93C582.94,299.4,586.34,298.6,589.45,302.53z"/>
			<polygon fill="#F9EC00" points="596.85,315.02 589.71,311.84 585.76,317.89 585.72,309.38 579.43,304.46 585.31,303.6 
				584.71,294.44 589.06,302.49 594.46,299.53 591.78,307.58 			"/>
			<polygon fill="#F9EC00" points="594.46,299.53 589.06,302.49 584.8,294.61 589.67,311.92 589.71,311.84 596.85,315.02 
				591.78,307.58 			"/>
		</g>
		<g>
			<polygon fill="#F9EC00" points="840.2,51.99 831.57,43.66 818.57,46.71 826.53,37.15 818.63,26.77 831.17,30.35 838.6,19.62 
				839.07,32.66 851.57,36.41 839.32,40.89 			"/>
			<polygon fill="#F9EC00" points="851.57,36.41 839.07,32.66 838.61,19.9 831.42,43.72 831.57,43.66 840.2,51.99 839.32,40.89 			
				"/>
			
				<radialGradient id="SVGID_40_" cx="1624.6356" cy="-22.7202" r="13.9667" gradientTransform="matrix(0.4539 -0.7591 0.6215 0.3716 114.627 1280.8042)" gradientUnits="userSpaceOnUse">
				<stop  offset="0" style="stop-color:#000000"/>
				<stop  offset="1" style="stop-color:#000000;stop-opacity:0"/>
			</radialGradient>
			<path opacity="0.57" fill="url(#SVGID_40_)" d="M844.44,28.21c4.63,2.77,5.47,9.89,1.87,15.9c-3.6,6.01-10.26,8.64-14.89,5.88
				c-4.63-2.77-5.47-9.89-1.87-15.9C833.14,28.08,839.81,25.44,844.44,28.21z"/>
			
				<radialGradient id="SVGID_41_" cx="861.849" cy="249.9705" r="10.6608" gradientTransform="matrix(0.7941 -0.081 0.1277 1.2514 113.2179 -206.0192)" gradientUnits="userSpaceOnUse">
				<stop  offset="0" style="stop-color:#000000"/>
				<stop  offset="1" style="stop-color:#000000;stop-opacity:0"/>
			</radialGradient>
			<path opacity="0.24" fill="url(#SVGID_41_)" d="M837.89,32.53c0.7,6.9-2.71,16.5-7.37,16.98c-4.66,0.48-9.01-4.74-9.71-11.64
				c-0.7-6.9,2.5-12.89,7.16-13.36C832.63,24.03,837.18,25.62,837.89,32.53z"/>
			<polygon fill="#F9EC00" points="837.23,52.59 831.27,43.57 822.16,47.69 828.44,37.73 824.77,27.32 832.27,30.68 838.38,19.56 
				837.46,32.18 845.96,32.75 836.84,40.15 			"/>
			<polygon fill="#F9EC00" points="845.96,32.75 837.46,32.18 838.36,19.82 831.16,43.64 831.27,43.57 837.23,52.59 836.84,40.15 
							"/>
		</g>
		<g>
			<polygon fill="#F9EC00" points="1211.25,27.34 1199.63,24.37 1189.84,33.45 1192.03,21.2 1180.02,16.1 1192.7,13 1193.85,0 
				1200.71,11.1 1213.43,8.17 1204.99,18.13 			"/>
			<polygon fill="#F9EC00" points="1213.43,8.17 1200.71,11.1 1193.99,0.23 1199.53,24.49 1199.63,24.37 1211.25,27.34 
				1204.99,18.13 			"/>
			
				<radialGradient id="SVGID_42_" cx="2099.8008" cy="198.433" r="13.9676" gradientTransform="matrix(0.0188 -0.8842 0.724 0.0154 1019.7603 1870.8396)" gradientUnits="userSpaceOnUse">
				<stop  offset="0" style="stop-color:#000000"/>
				<stop  offset="1" style="stop-color:#000000;stop-opacity:0"/>
			</radialGradient>
			<path opacity="0.57" fill="url(#SVGID_42_)" d="M1203.17,4.58c5.39,0.12,9.64,5.89,9.49,12.89c-0.15,7-4.64,12.59-10.03,12.47
				c-5.39-0.12-9.64-5.89-9.49-12.89C1193.28,10.05,1197.78,4.46,1203.17,4.58z"/>
			
				<radialGradient id="SVGID_43_" cx="1616.9434" cy="228.8799" r="10.6602" gradientTransform="matrix(0.65 -0.4634 0.7301 1.0242 -23.5779 534.4309)" gradientUnits="userSpaceOnUse">
				<stop  offset="0" style="stop-color:#000000"/>
				<stop  offset="1" style="stop-color:#000000;stop-opacity:0"/>
			</radialGradient>
			<path opacity="0.24" fill="url(#SVGID_43_)" d="M1199.61,11.56c4.03,5.65,5.81,15.68,2,18.4c-3.81,2.72-10.17,0.34-14.2-5.31
				s-4.2-12.44-0.39-15.15C1190.83,6.78,1195.58,5.91,1199.61,11.56z"/>
			<polygon fill="#F9EC00" points="1208.96,29.33 1199.33,24.44 1193.44,32.52 1193.97,20.76 1185.63,13.54 1193.81,12.74 
				1193.62,0.05 1199.07,11.47 1206.74,7.77 1202.47,18.7 			"/>
			<polygon fill="#F9EC00" points="1206.74,7.77 1199.07,11.47 1193.73,0.29 1199.27,24.55 1199.33,24.44 1208.96,29.33 
				1202.47,18.7 			"/>
		</g>
		<g>
			
				<radialGradient id="SVGID_44_" cx="1574.5516" cy="259.2234" r="134.598" gradientTransform="matrix(0.6757 -0.2817 0.2977 0.7143 219.3692 432.9745)" gradientUnits="userSpaceOnUse">
				<stop  offset="0" style="stop-color:#000000"/>
				<stop  offset="1" style="stop-color:#000000;stop-opacity:0"/>
			</radialGradient>
			<path opacity="0.35" fill="url(#SVGID_44_)" d="M1453.87,135.65c21.37,51.26-3.12,110.25-54.7,131.75
				c-51.58,21.5-110.71-2.63-132.08-53.89c-21.37-51.26,3.12-110.25,54.7-131.75C1373.37,60.26,1432.5,84.39,1453.87,135.65z"/>
			<g>
				<circle fill="#FACF00" cx="1286.29" cy="191.46" r="89.8"/>
				<path opacity="0.44" fill="#FACF00" d="M1286.29,101.66v179.59c49.59,0,89.8-40.2,89.8-89.8
					C1376.08,141.86,1335.88,101.66,1286.29,101.66z"/>
			</g>
			
				<radialGradient id="SVGID_45_" cx="1635.0697" cy="366.776" r="231.1026" gradientTransform="matrix(0.6757 -0.2817 0.2977 0.7143 275.3559 567.2794)" gradientUnits="userSpaceOnUse">
				<stop  offset="0" style="stop-color:#000000"/>
				<stop  offset="1" style="stop-color:#000000;stop-opacity:0"/>
			</radialGradient>
			<path opacity="0.35" fill="url(#SVGID_45_)" d="M1649.73,301.81c36.69,88.02-5.36,189.29-93.92,226.21
				c-88.56,36.92-190.1-4.51-226.78-92.52c-36.69-88.02,5.36-189.29,93.92-226.21S1613.05,213.8,1649.73,301.81z"/>
			<path fill="#ECECEC" d="M1564.27,221.08c-12.43,0-24.2,2.75-34.78,7.66c-22.56-43.62-68.07-73.46-120.57-73.46
				c-45.45,0-85.65,22.37-110.27,56.67c-8.55-2.5-17.59-3.87-26.95-3.87c-36.71,0-68.59,20.65-84.69,50.95
				c-4.72-1.58-9.75-2.46-15-2.46c-26.16,0-47.36,21.2-47.36,47.36c0,26.16,21.2,47.36,47.36,47.36c5.25,0,10.28-0.89,15-2.46
				c16.1,30.31,47.98,50.95,84.69,50.95c15.74,0,30.58-3.82,43.69-10.54c24.35,23.19,57.27,37.45,93.54,37.45
				c44.43,0,83.87-21.35,108.62-54.36c13.3,9.11,29.39,14.44,46.73,14.44c45.75,0,82.84-37.09,82.84-82.84
				C1647.11,258.17,1610.03,221.08,1564.27,221.08z"/>
			
				<radialGradient id="SVGID_46_" cx="1753.0559" cy="363.905" r="137.9296" gradientTransform="matrix(0.7368 -0.3071 0.2977 0.7143 167.2716 608.6235)" gradientUnits="userSpaceOnUse">
				<stop  offset="0" style="stop-color:#000000"/>
				<stop  offset="1" style="stop-color:#000000;stop-opacity:0"/>
			</radialGradient>
			<path opacity="0.67" fill="url(#SVGID_46_)" d="M1671.63,286.68c21.9,52.53-7.08,114.59-64.71,138.61
				c-57.63,24.02-122.11,0.92-144-51.61c-21.9-52.53,7.08-114.59,64.71-138.61S1649.73,234.16,1671.63,286.68z"/>
			
				<radialGradient id="SVGID_47_" cx="1721.875" cy="344.5178" r="137.9296" gradientTransform="matrix(0.7368 -0.3071 0.2977 0.7143 157.1796 584.414)" gradientUnits="userSpaceOnUse">
				<stop  offset="0" style="stop-color:#000000"/>
				<stop  offset="1" style="stop-color:#000000;stop-opacity:0"/>
			</radialGradient>
			<path opacity="0.67" fill="url(#SVGID_47_)" d="M1632.79,258.2c21.9,52.53-7.08,114.59-64.71,138.61
				c-57.63,24.02-122.11,0.92-144-51.61c-21.9-52.53,7.08-114.59,64.71-138.61S1610.9,205.67,1632.79,258.2z"/>
			
				<radialGradient id="SVGID_48_" cx="1379.9895" cy="307.6128" r="137.9296" gradientTransform="matrix(0.7368 -0.3071 0.2977 0.7143 137.9686 538.3293)" gradientUnits="userSpaceOnUse">
				<stop  offset="0" style="stop-color:#000000"/>
				<stop  offset="1" style="stop-color:#000000;stop-opacity:0"/>
			</radialGradient>
			<path opacity="0.67" fill="url(#SVGID_48_)" d="M1350.69,290.75c21.9,52.53-7.08,114.59-64.71,138.61
				c-57.63,24.02-122.11,0.92-144-51.61s7.08-114.59,64.71-138.61S1328.8,238.22,1350.69,290.75z"/>
			<path fill="#ECECEC" d="M1536,221.08c-10.24,0-19.94,2.75-28.65,7.66c-18.59-43.62-56.08-73.46-99.33-73.46
				c-37.44,0-70.56,22.37-90.84,56.67c-7.05-2.5-14.49-3.87-22.2-3.87c-30.24,0-56.5,20.65-69.76,50.95
				c-3.89-1.58-8.03-2.46-12.36-2.46c-21.55,0-39.01,21.2-39.01,47.36c0,26.16,17.47,47.36,39.01,47.36c4.32,0,8.47-0.89,12.36-2.46
				c13.26,30.31,39.52,50.95,69.76,50.95c12.97,0,25.19-3.82,35.99-10.54c20.06,23.19,47.18,37.45,77.06,37.45
				c36.6,0,69.09-21.35,89.48-54.36c10.96,9.11,24.21,14.44,38.5,14.44c37.69,0,68.24-37.09,68.24-82.84
				C1604.25,258.17,1573.69,221.08,1536,221.08z"/>
			
				<radialGradient id="SVGID_49_" cx="1678.2068" cy="352.1953" r="137.9296" gradientTransform="matrix(0.7368 -0.3071 0.2977 0.7143 161.1761 594.0012)" gradientUnits="userSpaceOnUse">
				<stop  offset="0" style="stop-color:#000000"/>
				<stop  offset="1" style="stop-color:#000000;stop-opacity:0"/>
			</radialGradient>
			<path fill="url(#SVGID_49_)" d="M1606.9,286.68c21.9,52.53-7.08,114.59-64.71,138.61c-57.63,24.02-122.11,0.92-144-51.61
				s7.08-114.59,64.71-138.61C1520.53,211.05,1585,234.16,1606.9,286.68z"/>
			
				<radialGradient id="SVGID_50_" cx="1554.2838" cy="302.7587" r="137.9297" gradientTransform="matrix(0.7368 -0.3071 0.325 0.7797 123.6517 505.6674)" gradientUnits="userSpaceOnUse">
				<stop  offset="0" style="stop-color:#000000"/>
				<stop  offset="1" style="stop-color:#000000;stop-opacity:0"/>
			</radialGradient>
			<path opacity="0.67" fill="url(#SVGID_50_)" d="M1471.6,220.92c23.9,57.34-3.44,123.3-61.08,147.33
				c-57.63,24.02-123.73-2.99-147.63-60.33c-23.9-57.34,3.44-123.3,61.08-147.33S1447.7,163.57,1471.6,220.92z"/>
			
				<radialGradient id="SVGID_51_" cx="1491.0186" cy="318.3876" r="137.9296" gradientTransform="matrix(0.7368 -0.3071 0.2977 0.7143 143.5775 551.7842)" gradientUnits="userSpaceOnUse">
				<stop  offset="0" style="stop-color:#000000"/>
				<stop  offset="1" style="stop-color:#000000;stop-opacity:0"/>
			</radialGradient>
			<path opacity="0.67" fill="url(#SVGID_51_)" d="M1441.31,277.81c21.9,52.53-7.08,114.59-64.71,138.61
				c-57.63,24.02-122.11,0.92-144-51.61c-21.9-52.53,7.08-114.59,64.71-138.61C1354.95,202.17,1419.42,225.28,1441.31,277.81z"/>
			<g>
				<path fill="#ECECEC" d="M1507.86,221.08c-7.66,0-14.92,2.75-21.44,7.66c-13.91-43.62-41.97-73.46-74.34-73.46
					c-28.02,0-52.81,22.37-67.99,56.67c-5.27-2.5-10.85-3.87-16.62-3.87c-22.63,0-42.29,20.65-52.21,50.95
					c-2.91-1.58-6.01-2.46-9.25-2.46c-16.13,0-29.2,21.2-29.2,47.36c0,26.16,13.07,47.36,29.2,47.36c3.24,0,6.34-0.89,9.25-2.46
					c9.93,30.31,29.58,50.95,52.21,50.95c9.71,0,18.86-3.82,26.93-10.54c15.01,23.19,35.31,37.45,57.67,37.45
					c27.39,0,51.71-21.35,66.97-54.36c8.2,9.11,18.12,14.44,28.81,14.44c28.21,0,51.08-37.09,51.08-82.84
					C1558.93,258.17,1536.07,221.08,1507.86,221.08z"/>
				<path opacity="0.51" fill="#D6D6D6" d="M1507.86,221.08c-7.66,0-14.92,2.75-21.44,7.66c-13.86-43.46-41.76-73.23-73.98-73.45
					v271.37c27.25-0.19,51.42-21.48,66.61-54.34c8.2,9.11,18.12,14.44,28.81,14.44c28.21,0,51.08-37.09,51.08-82.84
					C1558.93,258.17,1536.07,221.08,1507.86,221.08z"/>
			</g>
		</g>
		<g>
			<polygon fill="#F79200" points="1421.79,580.02 1403.5,581.02 1393.41,598.72 1390.99,579.88 1371.16,577.95 1388.21,567.63 
				1383.92,548.18 1399,561.2 1416.18,551.11 1408.45,569.47 			"/>
			<polygon opacity="0.2" fill="#F79200" points="1416.18,551.11 1399,561.2 1384.24,548.45 1403.41,581.24 1403.5,581.02 
				1421.79,580.02 1408.45,569.47 			"/>
			
				<radialGradient id="SVGID_52_" cx="1605.007" cy="336.4031" r="21.3221" gradientTransform="matrix(-0.2473 -0.8492 0.6953 -0.2025 1568.035 2000.2418)" gradientUnits="userSpaceOnUse">
				<stop  offset="0" style="stop-color:#000000"/>
				<stop  offset="1" style="stop-color:#000000;stop-opacity:0"/>
			</radialGradient>
			<path opacity="0.57" fill="url(#SVGID_52_)" d="M1399.59,550.57c7.91-2.3,16.74,4.16,19.73,14.43
				c2.99,10.27-0.99,20.46-8.9,22.76c-7.91,2.3-16.74-4.16-19.73-14.43C1387.7,563.06,1391.69,552.87,1399.59,550.57z"/>
			
				<radialGradient id="SVGID_53_" cx="1560.6721" cy="377.0262" r="16.2747" gradientTransform="matrix(0.4811 -0.637 1.0038 0.7581 264.623 1284.6871)" gradientUnits="userSpaceOnUse">
				<stop  offset="0" style="stop-color:#000000"/>
				<stop  offset="1" style="stop-color:#000000;stop-opacity:0"/>
			</radialGradient>
			<path opacity="0.24" fill="url(#SVGID_53_)" d="M1397.61,562.38c8.45,6.39,15.64,20.18,11.34,25.88
				c-4.31,5.71-14.66,5.16-23.11-1.23c-8.45-6.39-11.81-16.19-7.5-21.89C1382.64,559.43,1389.16,555.99,1397.61,562.38z"/>
			<polygon fill="#F79200" points="1419.37,583.97 1403.1,581.26 1398.23,595.73 1393.61,578.35 1378.16,571.65 1389.71,566.75 
				1383.61,548.36 1396.78,562.5 1406.25,553.58 1405.05,571.46 			"/>
			<polygon opacity="0.2" fill="#F79200" points="1406.25,553.58 1396.78,562.5 1383.89,548.65 1403.06,581.45 1403.1,581.26 
				1419.37,583.97 1405.05,571.46 			"/>
		</g>
		<g>
			<polygon fill="#F9EC00" points="1290.91,496.82 1276.86,480.22 1252.87,483.34 1268.98,467.55 1256.62,447.39 1278.59,456.14 
				1293.95,438.15 1292.41,461.76 1314.27,470.8 1291.35,476.64 			"/>
			<polygon fill="#F9EC00" points="1314.27,470.8 1292.41,461.76 1293.92,438.64 1276.59,480.29 1276.86,480.22 1290.91,496.82 
				1291.35,476.64 			"/>
			
				<radialGradient id="SVGID_54_" cx="1358.5387" cy="278.222" r="25.3176" gradientTransform="matrix(0.5282 -0.7094 0.5808 0.4325 409.9923 1316.5815)" gradientUnits="userSpaceOnUse">
				<stop  offset="0" style="stop-color:#000000"/>
				<stop  offset="1" style="stop-color:#000000;stop-opacity:0"/>
			</radialGradient>
			<path opacity="0.57" fill="url(#SVGID_54_)" d="M1302.9,454.71c7.84,5.84,8.05,18.83,0.47,29.01
				c-7.58,10.19-20.09,13.71-27.93,7.87c-7.84-5.84-8.05-18.83-0.47-29.01C1282.56,452.4,1295.06,448.87,1302.9,454.71z"/>
			
				<radialGradient id="SVGID_55_" cx="1277.6833" cy="407.6707" r="19.3229" gradientTransform="matrix(0.7983 -5.000000e-04 8.004986e-04 1.2578 254.1124 -44.3615)" gradientUnits="userSpaceOnUse">
				<stop  offset="0" style="stop-color:#000000"/>
				<stop  offset="1" style="stop-color:#000000;stop-opacity:0"/>
			</radialGradient>
			<path opacity="0.24" fill="url(#SVGID_55_)" d="M1290.3,461.29c0.01,12.58-7.9,29.27-16.39,29.27
				c-8.49,0.01-15.38-10.19-15.39-22.77c-0.01-12.58,6.87-22.78,15.36-22.79C1282.37,445,1290.29,448.71,1290.3,461.29z"/>
			<polygon fill="#F9EC00" points="1285.44,497.36 1276.35,480.01 1259.16,485.76 1272.31,468.94 1267.59,449.51 1280.5,456.94 
				1293.55,437.99 1289.59,460.58 1304.82,463.17 1287.03,474.84 			"/>
			<polygon fill="#F9EC00" points="1304.82,463.17 1289.59,460.58 1293.47,438.46 1276.14,480.1 1276.35,480.01 1285.44,497.36 
				1287.03,474.84 			"/>
		</g>
		<polygon fill="#F9EC00" points="1483.52,520.29 1470.48,519.71 1466.91,507.44 1465.76,532.3 1465.89,532.21 1476.3,538.18 
			1472.73,527.63 		"/>
		<g>
			<polygon fill="#F9EC00" points="1476.3,538.18 1465.89,532.21 1454.03,538.34 1459.42,527.13 1449.21,519 1462.26,519.4 
				1466.83,507.18 1470.48,519.71 1483.52,520.29 1472.73,527.63 			"/>
			
				<radialGradient id="SVGID_56_" cx="1489.9374" cy="357.1449" r="13.9669" gradientTransform="matrix(0.2546 -0.847 0.6935 0.2084 843.9167 1713.7721)" gradientUnits="userSpaceOnUse">
				<stop  offset="0" style="stop-color:#000000"/>
				<stop  offset="1" style="stop-color:#000000;stop-opacity:0"/>
			</radialGradient>
			<path opacity="0.57" fill="url(#SVGID_56_)" d="M1474.59,514.08c5.16,1.55,7.72,8.25,5.7,14.96c-2.02,6.71-7.84,10.89-13,9.34
				c-5.16-1.55-7.72-8.25-5.7-14.96C1463.61,516.71,1469.43,512.53,1474.59,514.08z"/>
			
				<radialGradient id="SVGID_57_" cx="1532.5916" cy="408.5906" r="10.6607" gradientTransform="matrix(0.7502 -0.2727 0.4297 1.1822 136.9477 461.145)" gradientUnits="userSpaceOnUse">
				<stop  offset="0" style="stop-color:#000000"/>
				<stop  offset="1" style="stop-color:#000000;stop-opacity:0"/>
			</radialGradient>
			<path opacity="0.24" fill="url(#SVGID_57_)" d="M1469.3,519.87c2.37,6.52,1.41,16.66-2.99,18.26c-4.4,1.6-9.89-2.39-12.26-8.91
				c-2.37-6.52-0.72-13.11,3.68-14.71C1462.12,512.91,1466.93,513.35,1469.3,519.87z"/>
			<polygon fill="#F9EC00" points="1473.56,539.49 1465.58,532.2 1457.75,538.42 1461.41,527.22 1455.3,518.03 1463.4,519.45 
				1466.6,507.17 1468.8,519.63 1477.18,518.11 1470.15,527.51 			"/>
		</g>
		<polygon fill="#F9EC00" points="1477.18,518.11 1468.8,519.63 1466.64,507.43 1465.49,532.29 1465.58,532.2 1473.56,539.49 
			1470.15,527.51 		"/>
	</g>
	<g>
	</g>
	<g>
	</g>
	<g>
	</g>
	<g>
	</g>
	<g>
	</g>
	<g>
	</g>
	<g>
	</g>
	<g>
	</g>
	<g>
	</g>
	<g>
	</g>
	<g>
	</g>
	<g>
	</g>
	<g>
	</g>
	<g>
	</g>
	<g>
	</g>
</g>
</svg>
